<svg xmlns="http://www.w3.org/2000/svg" xmlns:xlink="http://www.w3.org/1999/xlink" width="373.404" height="234.404" viewBox="0 0 373.404 234.404">
  <defs>
    <clipPath id="clip-path">
      <rect y="71" width="373.404" height="234.404" fill="none"/>
    </clipPath>
    <linearGradient id="linear-gradient" x1="-7.817" y1="4.249" x2="-0.097" y2="-3.787" gradientUnits="objectBoundingBox">
      <stop offset="0"/>
      <stop offset="0.71"/>
      <stop offset="1"/>
    </linearGradient>
    <linearGradient id="linear-gradient-2" x1="0.021" y1="1.57" x2="1.821" y2="0.246" xlink:href="#linear-gradient"/>
    <linearGradient id="linear-gradient-3" x1="0.046" y1="0.935" x2="0.935" y2="0.126" gradientUnits="objectBoundingBox">
      <stop offset="0" stop-color="#eac4b2"/>
      <stop offset="0.71" stop-color="#a48070"/>
      <stop offset="1" stop-color="#a48070"/>
    </linearGradient>
    <linearGradient id="linear-gradient-4" x1="-0.134" y1="1.173" x2="0.454" y2="0.642" xlink:href="#linear-gradient-3"/>
    <linearGradient id="linear-gradient-5" x1="-0.169" y1="0.132" x2="-4.332" y2="1.369" gradientUnits="objectBoundingBox">
      <stop offset="0" stop-color="#fff"/>
      <stop offset="0.671" stop-color="#fff"/>
      <stop offset="1" stop-color="#fff"/>
    </linearGradient>
    <linearGradient id="linear-gradient-6" x1="-62.952" y1="-344.326" x2="-610.916" y2="147.57" gradientUnits="objectBoundingBox">
      <stop offset="0" stop-color="#4c6b9a"/>
      <stop offset="0.671" stop-color="#4c6b9a"/>
      <stop offset="1" stop-color="#4c6b9a"/>
    </linearGradient>
    <linearGradient id="linear-gradient-7" x1="-2.793" y1="0.309" x2="-16.679" y2="4.273" gradientUnits="objectBoundingBox">
      <stop offset="0" stop-color="#2f4642"/>
      <stop offset="0.671" stop-color="#2f4642"/>
      <stop offset="1" stop-color="#2f4642"/>
    </linearGradient>
    <linearGradient id="linear-gradient-8" x1="-13.466" y1="0.48" x2="-68.742" y2="17.832" gradientUnits="objectBoundingBox">
      <stop offset="0" stop-color="#4c5e5a"/>
      <stop offset="0.671" stop-color="#4c5e5a"/>
      <stop offset="1" stop-color="#4c5e5a"/>
    </linearGradient>
    <linearGradient id="linear-gradient-9" x1="0.974" y1="0.154" x2="0.018" y2="1.259" xlink:href="#linear-gradient-5"/>
    <linearGradient id="linear-gradient-10" x1="100.344" y1="-36.678" x2="-5.86" y2="58.792" gradientUnits="objectBoundingBox">
      <stop offset="0" stop-color="#debaae"/>
      <stop offset="0.671" stop-color="#debaae"/>
      <stop offset="1" stop-color="#debaae"/>
    </linearGradient>
    <linearGradient id="linear-gradient-11" x1="18.996" y1="-2.395" x2="-0.556" y2="3.75" xlink:href="#linear-gradient-10"/>
    <linearGradient id="linear-gradient-12" x1="48.107" y1="-7.926" x2="-2.333" y2="9.267" xlink:href="#linear-gradient-10"/>
    <clipPath id="clip-path-2">
      <path id="Path_3368" data-name="Path 3368" d="M8546.9,7608.015l3.5-7.875a10.515,10.515,0,0,0,1.851.964s.106.079.283.2a5.958,5.958,0,0,0-.756,2.554.821.821,0,0,0-.586.964l.067.319c-1.155.269-1.926.452-2.026.477-.649.154-1.226,1.107-1.381,1.648a3.921,3.921,0,0,0-.116.677c-.289.021-.57.043-.835.068Z" transform="translate(-8546.9 -7600.14)" clip-rule="evenodd"/>
    </clipPath>
    <clipPath id="clip-path-3">
      <path id="Path_3369" data-name="Path 3369" d="M8705.213,7547.117l-.286-.2a10.584,10.584,0,0,1-1.848-.963l.55-1.242a4.019,4.019,0,0,0,2.224,1.536,5.019,5.019,0,0,0-.64.871Z" transform="translate(-8703.079 -7544.71)" clip-rule="evenodd"/>
    </clipPath>
    <clipPath id="clip-path-4">
      <path id="Path_3370" data-name="Path 3370" d="M8584.28,7826.381a3.536,3.536,0,0,1,.115-.679c.155-.541.73-1.493,1.378-1.646.1-.026.872-.208,2.028-.476l.1.506.291-.057-.286.071.011.027a.826.826,0,0,0,.393.5l0,.008-.106,1.485c-1.478.088-2.8.178-3.924.261Z" transform="translate(-8584.28 -7823.58)" clip-rule="evenodd"/>
    </clipPath>
    <clipPath id="clip-path-5">
      <path id="Path_3371" data-name="Path 3371" d="M8827,6501.031a21.928,21.928,0,0,0-1.819-4,2.11,2.11,0,0,0-1.456-.995.625.625,0,0,0-.25.042v-.01s-1.183.269-2.889.673l-.137-.393a.821.821,0,0,0-.772-.58.755.755,0,0,0-.228.031v.01a4.834,4.834,0,0,0-3.32-2.547c-.342-.973-.66-1.771-.66-1.771a18.909,18.909,0,0,0-4.435-2.641l6.46-14.529,57.426-5.354c3.889.2,7.072.424,12.373.8l-11.486,30.094C8862.635,6499.861,8842.848,6500.4,8827,6501.031Zm-15.146-2.268-.023-.073.363-.383v-.052l.068.041v.011l.092.342C8812.167,6498.69,8812.008,6498.732,8811.85,6498.763Zm1.068-.249-.045-.3-.023-.073a.861.861,0,0,0-.637-.59,6.065,6.065,0,0,1,.159-.953,6,6,0,0,0,1.819.942h0c.387-.01-.023-.859-.66-1.843l.137.155c.705.726.979,2.092,1.5,2.144C8814.4,6498.173,8813.646,6498.349,8812.918,6498.515Zm2.455-.569a.987.987,0,0,0,.274-.249.655.655,0,0,0,.136-.373c.092.166.182.321.273.466Zm-4.252-.238a7.691,7.691,0,0,1,.364-1.7,1.909,1.909,0,0,1,.183.114,5.564,5.564,0,0,0-.319,1.533l-.228.052Zm6.551-.29-.046-.124v-.083l.091-.2a.713.713,0,0,0,.205.042,1.1,1.1,0,0,0,.182-.021l.022.052.069.207C8818.013,6497.334,8817.854,6497.376,8817.672,6497.417Zm-.547-.062v-.021l.068-.01Zm1.66-.2-.09-.217v-.052l.045-.073.068.042.09.269A.948.948,0,0,0,8818.785,6497.158Zm.705-.166-.045-.134.091-.032.114-.424.227.135.113.342C8819.831,6496.91,8819.649,6496.951,8819.49,6496.993Zm-2.41-.155a7.753,7.753,0,0,0-.205-1.047,6.111,6.111,0,0,1,.479.694A.778.778,0,0,0,8817.08,6496.838Zm1.364-.725a5.115,5.115,0,0,0-1.433-1.688,5.065,5.065,0,0,1,1.592,1.646c-.022.01-.046.021-.046.031a.348.348,0,0,0-.113.01Z" transform="translate(-8811.03 -6468.97)" clip-rule="evenodd"/>
    </clipPath>
    <clipPath id="clip-path-6">
      <path id="Path_3372" data-name="Path 3372" d="M8775.834,7365.668c-.508-.047-.8-1.418-1.486-2.139-.047-.048-.1-.106-.15-.162.645.992,1.057,1.832.67,1.847h-.015a6.1,6.1,0,0,1-1.8-.937,3.415,3.415,0,0,1,.73-1.379,1.922,1.922,0,0,1,.279.185c.92.729,1.439,1.328,1.8,1.328a.321.321,0,0,0,.176-.055c.308-.221-.1-1.229-.917-2.375.114-.043.229-.087.354-.122l.065-.016c.054.023.107.047.161.075a5.238,5.238,0,0,1,1.852,1.544c.076.335.144.7.19,1.048a.8.8,0,0,0-.04.524l.083-.023v.023l-.071.043.05.146c-.344.079-.69.157-1.038.24a3.745,3.745,0,0,1-.279-.469.636.636,0,0,1-.133.375.978.978,0,0,1-.279.252C8775.967,7365.637,8775.9,7365.652,8775.834,7365.668Zm-3.507-1.875c-.058-.04-.111-.075-.165-.114a4.446,4.446,0,0,1,.466-.954,2.587,2.587,0,0,1,.165-.208,1.192,1.192,0,0,1,.18.059A4.375,4.375,0,0,0,8772.327,7363.793Zm2.149-2.679c-.988-1.319-1.82-2.792-2.594-2.82h-.075a2.01,2.01,0,0,0-1.007.284l.906-2.048a18.781,18.781,0,0,1,4.436,2.639s.318.8.662,1.769a3.293,3.293,0,0,0-.451-.028,4.06,4.06,0,0,0-1.027.134l-.126.031c-.046.012-.089.028-.133.04-.1,0-.193-.008-.29-.008s-.2,0-.3.008Z" transform="translate(-8770.801 -7356.53)" clip-rule="evenodd"/>
    </clipPath>
    <clipPath id="clip-path-7">
      <path id="Path_3373" data-name="Path 3373" d="M9126.986,7666.938l-.068-.2-.008-.054a.874.874,0,0,0,.557-.265l.069.042-.041.076.013.054.07.216C9127.385,7666.848,9127.188,7666.895,9126.986,7666.938Zm1.809-.417-.113-.342-.227-.126.043-.151c-.072-.131-.16-.283-.258-.446l.012-.006a.794.794,0,0,1,.211-.028.837.837,0,0,1,.795.576l.127.389-.59.135Zm-1.365-.776c-.013,0-.025,0-.041,0a.155.155,0,0,0-.039,0l.061-.028c.007.009.012.02.02.028Z" transform="translate(-9126.91 -7665.42)" clip-rule="evenodd"/>
    </clipPath>
    <clipPath id="clip-path-8">
      <path id="Path_3374" data-name="Path 3374" d="M8815.905,7745.935l-.068-.337v-.012l-.076-.047c0-.243,0-.475.022-.7a.817.817,0,0,1,.632.592l.016.069.063.3c-.2.047-.4.09-.589.135Zm-.99-.708a.8.8,0,0,0-.235-.076c0-.05.007-.106.013-.164h0l.229-.043c0,.094-.009.189-.009.283Z" transform="translate(-8814.68 -7744.84)" clip-rule="evenodd"/>
    </clipPath>
    <clipPath id="clip-path-9">
      <path id="Path_3375" data-name="Path 3375" d="M8825.629,7557.556l-.035-.165-.016-.063a.826.826,0,0,0-.437-.521c0-.1,0-.189.012-.284a5.316,5.316,0,0,1,.3-1.539,4.407,4.407,0,0,1,.643-1.219,4.619,4.619,0,0,1,.812.326,3.43,3.43,0,0,0-.729,1.374,5.09,5.09,0,0,0-.165.954,6.23,6.23,0,0,0-.024.7c0,.019,0,.036,0,.058Zm7.61-1.832-.063-.186a.835.835,0,0,0-.756-.576.119.119,0,0,0-.02-.027,4.939,4.939,0,0,0-1.588-1.648,4.831,4.831,0,0,0-2.623-.982c.043-.015.086-.027.13-.039l.13-.03a4.062,4.062,0,0,1,1.027-.135,3.544,3.544,0,0,1,.449.028,4.843,4.843,0,0,1,3.306,2.544c.1.165.185.317.256.448l-.044.149-.11.418-.095.036Zm-4.991-2.554c-.07-.1-.142-.2-.216-.3a2.3,2.3,0,0,1,.634.161l-.067.016c-.122.036-.236.079-.351.122Z" transform="translate(-8825.141 -7552.1)" clip-rule="evenodd"/>
    </clipPath>
    <clipPath id="clip-path-10">
      <path id="Path_3376" data-name="Path 3376" d="M8829.868,7684.469l.131-.138.01-1.384-.02-.031a.819.819,0,0,0,.4-.878l-.121-.568c.165-.037.324-.075.489-.115.192-.044.39-.088.588-.136l2.237-.521.2-.047c.231-.053.464-.106.69-.16l1.038-.238.218.665a.8.8,0,0,0,.468.5l-.091,1.415.787.763.933-1.011,0-1.4-.067-.1a.788.788,0,0,0,.313-.875l-.014-.038-.155-.486c.169-.037.339-.078.5-.115.2-.048.4-.092.589-.136l2.879-.665,0,0a1.524,1.524,0,0,0-.83,1.026,10.165,10.165,0,0,0,.058,4.109C8836.9,7684.1,8833.076,7684.287,8829.868,7684.469Zm6.569-3.661-.136-.068-.213-.621c.175-.041.344-.078.513-.119.2-.044.4-.091.589-.138a.847.847,0,0,0,.121-.028l.184.539,0,.034-.1.154-.01-.016-.937.231-.014.031Z" transform="translate(-8829.868 -7678.778)" clip-rule="evenodd"/>
    </clipPath>
    <clipPath id="clip-path-11">
      <path id="Path_3377" data-name="Path 3377" d="M9321.094,7682.258a10.194,10.194,0,0,1-.057-4.112,1.531,1.531,0,0,1,.83-1.026.841.841,0,0,1,.258-.04,2.078,2.078,0,0,1,1.449,1,21.6,21.6,0,0,1,1.813,4q-2.2.089-4.294.18Z" transform="translate(-9320.854 -7677.08)" clip-rule="evenodd"/>
    </clipPath>
    <clipPath id="clip-path-12">
      <path id="Path_3378" data-name="Path 3378" d="M9078.649,7682.344a.821.821,0,0,1-.472-.5h0l-.213-.667-.048-.148.072-.04.065-.038-.065.016-.085.022a.787.787,0,0,1,.04-.526.856.856,0,0,1,.283-.35,2.04,2.04,0,0,0,.368.53v0l-.107.193.018.088.036.117.213.622.133.07-.231.512Zm1.565-.328-.362-.535.1-.153,0-.036-.182-.539-.095-.271-.07-.045-.068-.04a.164.164,0,0,0,.018-.157c-.074-.178-.155-.344-.24-.5a.556.556,0,0,1,.105-.013.21.21,0,0,1,.038,0l.04,0a.843.843,0,0,1,.757.577l.061.184.045.133.157.485.014.036a.8.8,0,0,1-.312.878h0Z" transform="translate(-9077.877 -7679.721)" clip-rule="evenodd"/>
    </clipPath>
    <clipPath id="clip-path-13">
      <path id="Path_3379" data-name="Path 3379" d="M8764.821,7789.265l-.062-.3.14-.245.321-.04c0,.028.011.055.013.084l.086.391C8765.148,7789.189,8764.98,7789.228,8764.821,7789.265Zm1.077-.252-.077-.367.017-.025.131.081.051-.018-.051.034.056.268-.126.027Z" transform="translate(-8764.76 -7788.62)" clip-rule="evenodd"/>
    </clipPath>
    <clipPath id="clip-path-14">
      <path id="Path_3380" data-name="Path 3380" d="M8785.429,7788.331l-.087-.392c0-.028-.008-.056-.012-.084l.582-.076.035.02-.016.025.077.367-.579.14h0Z" transform="translate(-8785.33 -7787.779)" clip-rule="evenodd"/>
    </clipPath>
    <clipPath id="clip-path-15">
      <path id="Path_3381" data-name="Path 3381" d="M8767.764,7805.846l-.152-.1v-.01l-.111-.521c.16-.038.327-.076.5-.112l.579-.14c.045-.01.087-.02.126-.027l.121.555-.156.245-.067-.1-.837.2h0Z" transform="translate(-8767.499 -7804.94)" clip-rule="evenodd"/>
    </clipPath>
    <clipPath id="clip-path-16">
      <path id="Path_3382" data-name="Path 3382" d="M8738.262,7761.22a.825.825,0,0,1-.393-.5l-.009-.027.286-.071-.293.056-.1-.5-.066-.321a.818.818,0,0,1,.586-.961,3.122,3.122,0,0,0,0,.615l.14-.019-.141.245.061.3.111.521,0,.009.151.095-.1.022-.24.537Zm1.592-.152-.35-.51.155-.245-.12-.557-.057-.268.051-.036-.051.021-.131-.083-.036-.019.066-.008a3.233,3.233,0,0,1,.011-.643.84.84,0,0,1,.668.6l.02.063.034.166.013.074.119.568a.813.813,0,0,1-.393.878Z" transform="translate(-8737.665 -7758.721)" clip-rule="evenodd"/>
    </clipPath>
    <clipPath id="clip-path-17">
      <path id="Path_3383" data-name="Path 3383" d="M9108.947,7760.686l-.789-.764.095-1.415.007-.1.232-.512.017-.031.936-.233.013.016.361.534.066.1-.007,1.4-.931,1.013Z" transform="translate(-9108.158 -7757.63)" clip-rule="evenodd"/>
    </clipPath>
    <clipPath id="clip-path-18">
      <path id="Path_3384" data-name="Path 3384" d="M8759.38,7838.468l.108-1.485v-.009l.239-.537.1-.022.837-.2.068.1.35.51.018.031-.013,1.384-.123.137c-.544.031-1.073.063-1.583.095Z" transform="translate(-8759.38 -7836.21)" clip-rule="evenodd"/>
    </clipPath>
    <clipPath id="clip-path-19">
      <path id="Path_3385" data-name="Path 3385" d="M8764.157,7566.158a3.134,3.134,0,0,1,0-.616,5.961,5.961,0,0,1,.752-2.557,5.063,5.063,0,0,1,.643-.874c.252.084.5.161.736.237a1.681,1.681,0,0,0-.165.21,4.44,4.44,0,0,0-.469.951,7.392,7.392,0,0,0-.362,1.7,1.284,1.284,0,0,0-.012.165,3.04,3.04,0,0,0-.012.644l-.067,0-.579.076-.323.043Zm7.933-1.6a.464.464,0,0,1-.2-.037v0a1.935,1.935,0,0,1-.367-.527c-.122-.2-.279-.438-.477-.7a5.246,5.246,0,0,0-1.852-1.542,1.267,1.267,0,0,0-.161-.076,2.266,2.266,0,0,0-.635-.161c-.066-.095-.142-.187-.216-.281s-.146-.186-.217-.286c.1-.006.2-.006.3-.006s.193,0,.292.006a4.822,4.822,0,0,1,2.623.981,5.19,5.19,0,0,1,1.423,1.688c.086.162.168.329.243.5a.171.171,0,0,1-.02.158.912.912,0,0,1-.556.266,1.347,1.347,0,0,1-.181.015h0Z" transform="translate(-8764.142 -7560.94)" clip-rule="evenodd"/>
    </clipPath>
    <clipPath id="clip-path-20">
      <path id="Path_3386" data-name="Path 3386" d="M8733.662,7441.37c-.363,0-.882-.6-1.8-1.327a1.612,1.612,0,0,0-.279-.185,4.866,4.866,0,0,0-.81-.326c-.057-.022-.115-.041-.182-.06-.234-.075-.482-.151-.734-.235a3.992,3.992,0,0,1-2.224-1.534l.966-2.168a2.022,2.022,0,0,1,1.011-.285h.075c.769.028,1.6,1.5,2.591,2.823.072.1.145.191.216.285s.148.188.218.279l.216.3c.813,1.145,1.223,2.152.916,2.375a.325.325,0,0,1-.176.057Z" transform="translate(-8727.63 -7435.25)" clip-rule="evenodd"/>
    </clipPath>
  </defs>
  <g id="Scroll_Group_3" data-name="Scroll Group 3" transform="translate(0 -71)" clip-path="url(#clip-path)" style="isolation: isolate">
    <g id="Component_1_3" data-name="Component 1 – 3">
      <rect id="Rectangle_2383" data-name="Rectangle 2383" width="373.404" height="373.404" fill="none"/>
      <path id="Path_3262" data-name="Path 3262" d="M7681.787,6240.72c.78,3.635,5.376,13.259,6.415,14.555s12.045,9.882,13.347,10.923a29.323,29.323,0,0,0-3.292,3.464s-15.513-6.238-16.812-8.316-5.464-10.488-5.464-12.573,5.807-8.053,5.807-8.053Z" transform="translate(-7504.005 -6100.901)" fill="#d6a092"/>
      <path id="Path_3263" data-name="Path 3263" d="M8608.436,7329.59a20.319,20.319,0,0,1,5.914,3.241s.66,1.638,1.1,3.084c0,0,.993,3.242.321,3.647s-1.453-1.521-1.727-2.427a21.391,21.391,0,0,0-2.267-3.481s3.612,4.328,2.751,5.38-1.095-.924-1.968-1.842-3.088-3.631-2.582-3.361c.271.142,4.038,5.011,3.1,5.046-.588.038-3.732-2.264-3.732-2.264-3.643-1.484-4.04-3.581-4.04-3.581Z" transform="translate(-8412.506 -7165.376)" fill="#d6a092"/>
      <path id="Path_3264" data-name="Path 3264" d="M8793.941,7667.519l.017,0,.028-.006.717-.224.154-.235v-.035l-.273-.821-.268-.148h0l-.777.236-.145.267.012.054.258.77.271.145Zm.193.576-.064.022-.01-.006a.833.833,0,0,1-.974-.551l-.265-.808-.009-.053v-.016a.808.808,0,0,1,.541-.962l.761-.243.025-.006.016-.006a.831.831,0,0,1,1,.547l.267.811.016.037a.814.814,0,0,1-.55.994l-.757.239Zm-8.2-.132-.041-.107.029.1-.011.013v-.006l-.149.261.176.82.006.022.271.157.764-.157H8787l.148-.257-.17-.833v-.013l-.261-.16Zm1.215,1.679-.031,0-.787.158a.839.839,0,0,1-.969-.582l-.006-.038.289-.076-.295.054-.177-.821a.817.817,0,0,1,.592-.959l.069-.015.75-.148a.823.823,0,0,1,.97.591l.017.069.172.808A.815.815,0,0,1,8787.148,7669.642Z" transform="translate(-8588.332 -7493.7)" fill="#ce7f3e"/>
      <path id="Path_3265" data-name="Path 3265" d="M8833.359,7555.551l.156-.566c-.619-1.116-2.152-3.634-5.04-2.886l-.128.032c-2.289.679-3.273,2.691-3.173,4.936l.438.4.405-.424c-.057-2.037.7-3.54,2.61-4.128l.072-.016c2.193-.61,3.431,1.358,4.083,2.487l.479.208Z" transform="translate(-8627.447 -7382.766)"/>
      <path id="Path_3266" data-name="Path 3266" d="M8602.985,7691.515c-.856.946-16.224,3.691-17.64,3.326a1.318,1.318,0,0,1-1.037-1.082c-.207-.987-1.816-7.455-1.188-9.652.153-.541.729-1.493,1.378-1.647.49-.129,16.02-3.72,16.02-3.72Z" transform="translate(-8390.681 -7506.704)" fill="#232121"/>
      <path id="Path_3267" data-name="Path 3267" d="M9327.374,7687.688c-.037,1.354-3.734,2.628-4.008,2.449-.682-.444-3.1-9.716-2.242-12.052.513-1.411,1.5-1.411,2.538-.065C9324.77,7679.465,9327.385,7687.338,9327.374,7687.688Z" transform="translate(-9112.115 -7505.021)"/>
      <path id="Path_3268" data-name="Path 3268" d="M8746.459,7681.863l.017-.019h.033l.7-.215.156-.244,0-.035-.276-.812-.252-.154-.779.239-.151.268.017.087.252.739.279.147Zm.189.565-.1.035-.019-.01a.845.845,0,0,1-.94-.557l.286-.088-.286.088-.262-.814.139-.078-.149.037a.815.815,0,0,1,.547-.983l.754-.236.022-.007.017-.009a.835.835,0,0,1,1,.55l.265.8.013.038a.8.8,0,0,1-.551.993Zm-7.16-.113.051-.034-.051.019-.268-.163-.773.163-.021-.048.01.045-.007,0v0l-.151.265.174.823,0,.01.268.163.768-.148.012-.006.164-.265Zm.174,1.657-.031.013-.787.16a.845.845,0,0,1-.969-.6l-.009-.026.286-.072-.293.058-.17-.827a.82.82,0,0,1,.59-.963l.067-.013.755-.146a.822.822,0,0,1,.965.587l.02.063.166.808A.816.816,0,0,1,8739.662,7683.973Z" transform="translate(-8541.911 -7507.719)" fill="#ce7f3e"/>
      <path id="Path_3269" data-name="Path 3269" d="M9109.406,7757.63l.44.646-.007,1.4-.931,1.012-.789-.764.1-1.516.249-.543Z" transform="translate(-8904.06 -7583.826)"/>
      <path id="Path_3270" data-name="Path 3270" d="M8760.692,7836.19l.437.642-.012,1.383-.928,1.019-.779-.77.107-1.5.24-.547Z" transform="translate(-8563.163 -7660.626)"/>
      <path id="Path_3271" data-name="Path 3271" d="M8772.8,7564.033c.121.308-.711.524-.955.4a7.467,7.467,0,0,0-2.7-2.771,2.5,2.5,0,0,0-3.078.81,6.557,6.557,0,0,0-.852,3.455l-1.107.144a5.573,5.573,0,0,1,1.916-4.539C8767.525,7560.3,8771.293,7560.514,8772.8,7564.033Z" transform="translate(-8567.742 -7391.456)" fill="#232121"/>
      <path id="Path_3272" data-name="Path 3272" d="M8711.119,7436.835c.8,2.509,3.527,2.282,4.6,3.141s1.609,1.531,1.978,1.27-.261-1.588-1.349-2.952c-1.082-1.384-1.984-3.077-2.809-3.109C8712.094,7435.123,8711.119,7436.835,8711.119,7436.835Z" transform="translate(-8515.953 -7268.603)" fill="#d6a092"/>
      <path id="Path_3273" data-name="Path 3273" d="M6747.073,4788.57c-.175,5.366,1.212,27.9,3.984,29.64-3.468,1.38-21.321-.183-21.321-.183l6.933-31.887,10.4,2.43Zm-24.819,147.715c-1.3,1.786-3.235,4.217-1.116,6.217,1.562,1.484,4.011,3.911,4.011,3.911Z" transform="translate(-6569.635 -4678.911)"/>
      <path id="Path_3274" data-name="Path 3274" d="M6419.888,7566.952c-6.2,10.081-6.948,2.883-6.036,8.807s6.053,31.775,4.775,35.382-3.42,7.407-2.594,14.394,6.151,26.332,6.349,28.96c.5,6.417,1.7,8.414,3.811,10.917,1.918,2.3,7.807,4.452,7.363,1.469-.327-2.186-3.2-6.049-4.641-11.489s-.012-22.09.733-30.52,1.169-7.339,1.679-13.143,3.622-36.623,1.478-43.983c-1.251-4.289-12.917-.792-12.917-.792Z" transform="translate(-6269.841 -7396.107)" fill="#d6a092"/>
      <path id="Path_3275" data-name="Path 3275" d="M6790.3,11740c3.129,4.948,7.081,8.26,9.411,7.734,1.09-.242,1.974-.2,1.506-2.186,2.339,2.8,3.153,3.836,3.128,5.169-.031,2.33-2.521,1.938-6.345,1.1a5.438,5.438,0,0,1-4.266-3.826C6792.586,11744.785,6790.3,11740,6790.3,11740Z" transform="translate(-6638.168 -11476.975)"/>
      <path id="Path_3276" data-name="Path 3276" d="M6748.94,11715.4a30.778,30.778,0,0,1,1.031,7.81c1.207.446.915.028.915.028l.5-5.342Z" transform="translate(-6597.735 -11452.926)"/>
      <path id="Path_3277" data-name="Path 3277" d="M6187.467,7013.85c-2.964,3.475-10.24,10.23-9.725,25.829s11.961,30.681,11.961,30.681,34.84-15.6,41.6-14.036,6.936-5.719,3.295-10.926-7.279-8.662-13.517-14.905-6.421-13.693-11.1-14.209-22.516-2.433-22.516-2.433Z" transform="translate(-6039.31 -6856.71)" fill="#142163"/>
      <path id="Path_3278" data-name="Path 3278" d="M7637.369,5744.77c4.207,1.361,4.609,9.366,8.153,18.563-2.922,2.245-10.471,5.744-10.565,5.137s-.38-15.959.189-18.211A34.4,34.4,0,0,1,7637.369,5744.77Z" transform="translate(-7463.75 -5616.063)" fill="#aa0202"/>
      <path id="Path_3279" data-name="Path 3279" d="M6409.2,4117.481c-2.125-5.833-13.821-3.484-16.9,3.383-3.38,7.54-7.857,31.885-15.988,33.929,3.846,3.2,11.537,17.777,11.537,17.777s11.673-41.311,14.1-42.729S6409.2,4117.481,6409.2,4117.481Z" transform="translate(-6233.454 -4021.998)"/>
      <path id="Path_3280" data-name="Path 3280" d="M6626.734,4635.087c-.258-1.918-.522-4.506-1.476-9.414.432.305.058-.415-.021-.585a18.39,18.39,0,0,1-.129-4.021c-.751-.179-1.874-1.229-3.308-3.766a8.621,8.621,0,0,1,5.82-8.826s-9.234-18-10.169-12.6c-2.543,14.664-9.816,18.358-10,18.208-1.078.616-2.744.63-4.127,1.909-2.639,3.376-4.2,10.763-3.29,17.506.947,6.934,23.01,11.083,23.868,9.65,1.38-2.324,3.373-4.087,2.836-8.056Z" transform="translate(-6451.907 -4491.917)" fill="#eac4b2"/>
      <path id="Path_3281" data-name="Path 3281" d="M7596.98,5374.212a8.247,8.247,0,0,1,.833-1.9,10.865,10.865,0,0,0,.937.732Z" transform="translate(-7426.776 -5251.948)" fill-rule="evenodd" fill="url(#linear-gradient)"/>
      <path id="Path_3282" data-name="Path 3282" d="M6972.34,4935.475a22.751,22.751,0,0,0,2.6-2.245A12.532,12.532,0,0,1,6972.34,4935.475Zm3.789-3.687a29.992,29.992,0,0,0,3.543-7.857s.091.169.26.469A27.512,27.512,0,0,1,6976.128,4931.787Z" transform="translate(-6816.13 -4813.613)" fill-rule="evenodd" fill="url(#linear-gradient-2)"/>
      <path id="Path_3283" data-name="Path 3283" d="M6950.8,4963.737l-3.321-7.411s.218-.148.557-.4a12.5,12.5,0,0,0,2.6-2.245c.082-.084.164-.173.242-.258a11.6,11.6,0,0,0,.946-1.185,27.527,27.527,0,0,0,3.8-7.389c.9,1.581,3.994,6.777,7.235,9.576a8.249,8.249,0,0,0-.833,1.9l-11.231,7.408Z" transform="translate(-6791.827 -4834.065)" fill-rule="evenodd" fill="url(#linear-gradient-3)"/>
      <path id="Path_3284" data-name="Path 3284" d="M7187.413,4283.455c2.346-7.282,7.618-8.628,13.4-6.772s7.518,7.46,5.181,14.733c-.349,1.084-2.056,9.466-9.262,11.737-1.409.44-2.041-.274-3.223-.9-5.361-2.862-8.427-11.524-6.1-18.8Z" transform="translate(-7025.612 -4180.134)" fill-rule="evenodd" fill="url(#linear-gradient-4)"/>
      <path id="Path_3285" data-name="Path 3285" d="M7673.027,4254.407a5.676,5.676,0,0,1,5.071,6.109,8.815,8.815,0,0,0-1.634-12.124c-2.9-2.311-6.512-3.286-7.046-2.274S7673.027,4254.407,7673.027,4254.407Z" transform="translate(-7497.543 -4150.599)" fill="#232121"/>
      <path id="Path_3286" data-name="Path 3286" d="M7056.541,4213.173c-1.479.12-10.617-2.927-13.522,3.515,0,0-1.955-2.461-2.931-1.186-1.486,1.937.313,4.7.313,4.7l-.158,4.513s-6.562-6.575-3.182-13.671,11.359-10.036,17.528-6.194c2.77,1.72,1.953,8.323,1.953,8.323Z" transform="translate(-6878.455 -4108.985)"/>
      <path id="Path_3287" data-name="Path 3287" d="M6510.512,5497.76c-2.342.524-4.682.524-4.682,2.084s2.339,18.72,0,23.4-2.858,8.056-.776,9.875,14.472,5.531,15.035,3.416,3.685-16.152,1.864-21.349-11.441-17.425-11.441-17.425Z" transform="translate(-6358.038 -5374.587)" fill="#aa0202"/>
      <path id="Path_3288" data-name="Path 3288" d="M6763.867,5465.03a24.413,24.413,0,0,0,2.789-7.771c.194-1.925-1.346-9.8-1.861-12.892-.1-.754-.18-1.288-.167-1.409.086-.641-2.83-4.512-2.978-3.238-.651,5.587-6.5.638-7.93-.916l-1.194,1.922c-2.686-2.72-5.509-5.8-5.509-5.8s-3.191,1.191-5.257,1.8c1.082.265,10.753,14.731,11.7,18.589,1.819,7.414-.692,19.8-.692,19.8s5.706.538,6.524.453,2.836,1.669,3.37-.126-.11-7.9,1.2-10.407Z" transform="translate(-6590.716 -5313.165)" fill="#ce0000"/>
      <path id="Path_3289" data-name="Path 3289" d="M7561.8,5499.16l3.305,4.33-1.817,2.3-2.11-4.519Z" transform="translate(-7391.778 -5375.956)" fill="#aa0202"/>
      <path id="Path_3290" data-name="Path 3290" d="M6945.662,5279.14l7.352,8.281-4.289,4.415-6.295-8.81Z" transform="translate(-6786.89 -5160.865)" fill="#aa0202"/>
      <path id="Path_3291" data-name="Path 3291" d="M6074.19,6015.179c-2.578,7.775-3.446,9.515-3.446,11.417,0,2.774.353,15.255,1.632,18.713,1.245,1.227,3.119,1.9,3.628,3.374s3.409,3.524,1.679,3.286a4.844,4.844,0,0,1-2.908-2.041,15.577,15.577,0,0,0,1.556,3.949c2.066,3.021,2.025,3.308,1.513,3.417,0,0-2.126-1.958-2.459-2.945,1.117,2.647,2.6,3.241,2.177,3.731-1.047,1.186-3.142-3.336-3.142-3.336s2.125,3.2,1.927,3.619c-.49.991-3.764-3.547-3.764-3.547l1.692,2.736c-.978.638-4.053-2.409-5.156-5.616a43.7,43.7,0,0,1-1.667-6.968c-1.041-4.847-5.543-13-5.2-16.984.434-5.021,1.387-22.087,8.319-21.146S6074.19,6015.179,6074.19,6015.179Z" transform="translate(-5926.417 -5872.223)" fill="#eac4b2"/>
      <path id="Path_3292" data-name="Path 3292" d="M6055.565,5566.895c-1.814-1.425-6.629-.6-8.534,2.163-4.695,6.835-6.942,18.87-6.942,18.87l12.328,2.99s2.078-5.934,3.669-11C6058.819,5571.2,6057.48,5568.4,6055.565,5566.895Z" transform="translate(-5904.767 -5441.501)" fill="#ce0000"/>
      <path id="Path_3293" data-name="Path 3293" d="M3713.784,5806.986c6.275-3.618,24.408.664,48.5,4.585,7.162,3.779,16.982,22.846,18.792,25.729,1.694,2.688,6.059,22.751,6.059,22.751l-84.678-6.367S3708.548,5827.041,3713.784,5806.986Zm-6.4-4.354c-4.235,18.05-10.929,52.14-10.929,52.14l101.857,8.829s-9.306-25.082-11.209-28.159c-5.7-9.222-15.069-24.216-23.188-28.687C3736.591,5802.072,3714.459,5798.4,3707.379,5802.632Z" transform="translate(-3613.634 -5670.806)" fill="#fcb910"/>
      <path id="Path_3294" data-name="Path 3294" d="M3668.572,7825.773l-88.447-6.826s-8.675-38.425-11.08-50.224c-.428-2.1-2.456-15.828,9.535-13.543,12.021,2.286,91.57,10.88,91.57,10.88Z" transform="translate(-3488.697 -7581.182)" fill="#fcb910"/>
      <path id="Path_3295" data-name="Path 3295" d="M3975.09,8130.281a11.105,11.105,0,0,1-1.315-.082c-4.883-.579-14.812-3.191-13.762-7,.355-1.3,2.443-1.817,5.166-1.817,4.707,0,11.306,1.56,14.108,3.355,0,0,1.6,5.546-4.2,5.546Zm-10.948-6.863a.9.9,0,0,0-.277.024c-.6.242-.974.852.271,1.754a32.049,32.049,0,0,0,10.183,2.853,2.194,2.194,0,0,0,.823-.12c1.594-.7,1.129-2.638,1.129-2.638-.959-.478-10.316-1.873-12.13-1.873Z" transform="translate(-3871.218 -7939.427)" fill="#9f9169"/>
      <path id="Path_3296" data-name="Path 3296" d="M4121.474,8216.95a32.024,32.024,0,0,1-10.184-2.853c-1.245-.9-.868-1.511-.271-1.753a.854.854,0,0,1,.277-.025c1.814,0,11.171,1.4,12.13,1.873,0,0,.465,1.935-1.129,2.639A2.195,2.195,0,0,1,4121.474,8216.95Z" transform="translate(-4018.372 -8028.329)" fill="#b5b7b1"/>
      <path id="Path_3297" data-name="Path 3297" d="M13495.678,7810.24c1.775-.591,7.086,12.416,7.626,16.312-1.4,2.091-7.658,6.065-7.658,6.065a50.385,50.385,0,0,1-2.981-10.062c-.924-5.351,2.316-12.086,3.014-12.315Z" transform="translate(-13190.211 -7635.239)" fill="#1d1d56"/>
      <path id="Path_3298" data-name="Path 3298" d="M12746.51,7519.091c-2.736-.839-11.646-5.044-15.209-6.071l-4.04,5.934s.257,9.115.978,16.353c.707,7.219,0,19.034,0,19.034s2.795.645,14.441-.578c1.656-.177,3.767-1.217,3.531-7.669s-.471-11.649-.643-15.325C12745.141,7521.832,12750.105,7520.188,12746.51,7519.091Z" transform="translate(-12442.116 -7344.696)" fill="#233377"/>
      <path id="Path_3299" data-name="Path 3299" d="M11990.683,7603.2c-1.161-7.778-2.554-15.6-2.554-15.6s11.322-5.4,12.754-5.4,3.684,2.021,5.825,3.317c0,0,.981,7.159,1.513,13.745.556,6.864,1.512,22.249,1.512,22.249s-16.045,3.012-16.471-.229c0,0-.664-1.469.619-9.832C11994.04,7610.416,11990.721,7604.225,11990.683,7603.2Z" transform="translate(-11719.544 -7412.317)" fill="#1d1d56"/>
      <path id="Path_3300" data-name="Path 3300" d="M12539,7216.77c-.1,2.779,2.534,9.416,1.812,10.568-2.561,4.105-10.955,2.445-11.892-.919-.306-1.079.025-.082,1.258-8.059C12530.339,7217.3,12539,7216.77,12539,7216.77Z" transform="translate(-12248.116 -7055.083)" fill="#eac4b2"/>
      <path id="Path_3301" data-name="Path 3301" d="M12506.778,7182.926c-.3-1.1.05-1.909.191-8.19.024-1.078,10.376-2.2,10.376-2.2a31.007,31.007,0,0,0,.167,3.43c-.762,1.542-2.87,5.317-3.655,5.679-.974.44-.244,4.5-.115,4.9C12510.426,7186.931,12507.162,7184.41,12506.778,7182.926Z" transform="translate(-12226.46 -7011.845)" fill="#d19d90"/>
      <path id="Path_3302" data-name="Path 3302" d="M11689.16,7528.607c-2.1.465-3.836,2.075-5.226,9.272-1.312,6.779-1.626,10.332-1.626,10.332l10.449,5.175s.119-3.607.119-7.327-3.717-17.454-3.717-17.454Zm11.207-6.757-5.846,4.955,8.34,2.77-.7,1.861,6.159,3.227s-3.832-5.669-5.463-7.754A17.717,17.717,0,0,1,11700.367,7521.85Z" transform="translate(-11420.575 -7353.329)" fill="#233377"/>
      <path id="Path_3303" data-name="Path 3303" d="M12861.217,7487.88l7.251,4.348-7.958,4.295.836,1.805-4.547,3.575s2.045-5.829,3.5-8.026c1.463-2.223.915-6,.915-6Z" transform="translate(-12568.753 -7320.12)" fill="#1d1d56"/>
      <path id="Path_3304" data-name="Path 3304" d="M11951.937,7599.2a16.01,16.01,0,1,0,16.017-16.007A16.034,16.034,0,0,0,11951.937,7599.2Zm-3.656,0a19.667,19.667,0,1,1,19.673,19.673A19.667,19.667,0,0,1,11948.28,7599.2Z" transform="translate(-11680.589 -7409.717)"/>
      <path id="Path_3305" data-name="Path 3305" d="M11806.759,7857.721c.247-.49.2-1.217-.362-1.321-.145-.025.455-.937-.411-1.188-.3-.1-.06-.255-.048-.469.022-.663-.34-.961-1.648-.352s-2.58,1.635-3.143,1.352,1.916-1.943,2.387-2.377-1.371-.311-2.551.113a10.552,10.552,0,0,0-3.367,2.842,25.91,25.91,0,0,1-3.455,2.72l3.634,2.777c1.265-.318,5.11-.239,6.144-.391s1.625-1.258,2.961-2.676c.146-.286.759-.848-.141-1.031Zm29.729-1.978c-1.011-1.22-2.029-2.54-3.18-3.04s-2.98-.757-2.538-.29,2.812,2.27,2.233,2.519-1.788-.853-3.06-1.544-1.639-.424-1.664.251c0,.2.232.371-.08.44-.879.21-.334,1.157-.479,1.176-.578.053-.667.783-.455,1.289-.91.126-.325.727-.205,1.025,1.235,1.5,1.754,2.651,2.785,2.864s4.864.39,6.1.792l3.8-2.547a25.591,25.591,0,0,1-3.264-2.937Z" transform="translate(-11529.921 -7676.242)" fill="#ddac9e"/>
      <path id="Path_3306" data-name="Path 3306" d="M12343.7,6640.535c-.364-4.119-1.519-7.531-8.018-7.045-8.111.613-7.084,5.077-6.811,10.127s4.063,10.237,8.2,10c3.15-.169,5.59-3.452,6.448-7.225a3.238,3.238,0,0,0,1.4-2.839C12344.914,6641.915,12344.885,6640.575,12343.7,6640.535Z" transform="translate(-12052.461 -6484.826)" fill="#eac4b2"/>
      <path id="Path_3307" data-name="Path 3307" d="M12260.314,6678.026c-2.442-9.985-.877-11.652-1.15-11.6-4.662.839-5.543,2.745-5.319,6.445l.217,1.1c-1.265.157-.636,1.554.054,3.109s1.223,2.475,1.918,2.591c1.4,3.528,3.756,6.307,6.826,6.131l.4-.057S12261.83,6683.987,12260.314,6678.026Z" transform="translate(-11978.808 -6517.073)" fill="#d6a092"/>
      <path id="Path_3308" data-name="Path 3308" d="M12216.3,6511.2l.116-.409s.453-2.364.121-2.327a4.436,4.436,0,0,0-2.684,1.383l-.338-.412s-.7.761-1.287,1.339-1.051,1.025-1.051,1.025.213.609.213-.29a3.684,3.684,0,0,0-1.43,4.314c-.025.462.176,1.343.211,1.893.135,2.276,1.012,2.132,1.012,2.132l.528.224-.37-2.2s-.137-1.268,2-2.836c1.565-1.161,5.367-1.177,5.367-1.177Z" transform="translate(-11936.166 -6362.642)"/>
      <path id="Path_3309" data-name="Path 3309" d="M12335.347,6485.917c-.592-1.368-1-2.182-3.442-2.424-.674-.981-3.834-1.333-3.6-1.239.636.239.714.38.714,1.038a3.581,3.581,0,0,0-2.848-1.019s1.188.573,1.358,1.393l.367.126c-.316-1.3-3.465-2.054-3.408-1.595.051.387,2.163.487,1.956,1.516,0-.988-2.537-2.025-4.217-1.151.724,1.025.862.814-1.537,3.217-1.39.21-.935,3.455,1.679,3.439.814-.019,4.506-.836,6.529-1.013a7.535,7.535,0,0,1,3.595,1.9,9.983,9.983,0,0,1,1.063,3.043l1.662-.576.881.331A15.123,15.123,0,0,0,12335.347,6485.917Z" transform="translate(-12043.9 -6336.835)" fill="#232121"/>
      <path id="Path_3310" data-name="Path 3310" d="M9826.639,5820.58c.438-2.421,3.063-6.464,9.2-7.47v2.628s-5.479,1.412-6.355,5.449A1.743,1.743,0,0,1,9826.639,5820.58Zm69.82,0c-.437-2.421-3.072-6.464-9.206-7.47v2.628s5.479,1.412,6.354,5.449A1.749,1.749,0,0,0,9896.459,5820.58Z" transform="translate(-9606.48 -5682.872)" fill="#2b2323"/>
      <path id="Path_3311" data-name="Path 3311" d="M10239.241,5325.664c-1.251-7.687-3.8-14.384-11.759-14.384h-30.259c-8.889,0-10.886,6.7-12.243,14.384,5.917-1,15.859-1.657,27.124-1.657S10233.318,5324.661,10239.241,5325.664Z" transform="translate(-9956.794 -5192.285)"/>
      <path id="Path_3312" data-name="Path 3312" d="M10414.258,5353.344c-1.143-7.046-3.436-11.354-9.877-11.354h-25.9c-7.178,0-9.1,4.308-10.275,11.354a243.538,243.538,0,0,1,46.049,0Z" transform="translate(-10135.917 -5222.307)" fill="#fcb910"/>
      <path id="Path_3313" data-name="Path 3313" d="M10834.654,5437.967h-1.954v-1.257h5.876v1.257h-1.955v4.443h-1.967Z" transform="translate(-10590.002 -5314.905)"/>
      <path id="Path_3314" data-name="Path 3314" d="M11134.718,5440.023l-.116-.4c-.189-.538-.377-1.235-.551-1.8h-.041c-.163.578-.349,1.267-.527,1.8l-.129.4Zm.354,1.167H11133l-.364,1.21h-2.01l2.257-5.7h2.365l2.261,5.7h-2.071Zm5.428-1.716-1.889-2.773h2.182l.51.931c.154.26.314.575.519.939h.044c.16-.365.324-.679.459-.939l.432-.931h2.09l-1.893,2.839,2.009,2.861h-2.185l-.588-1.019c-.183-.3-.346-.595-.525-.947h-.047c-.16.353-.314.651-.484.947l-.541,1.019h-2.1Z" transform="translate(-10881.257 -5314.894)"/>
      <path id="Path_3315" data-name="Path 3315" d="M11861.1,5442.371h1.96v-5.7h-1.96Z" transform="translate(-11595.36 -5314.866)"/>
      <path id="Path_3316" data-name="Path 3316" d="M6847.24,7629.645l7.974-1.339c3.965-.664,7.583,1.481,7.795,4.873a3.522,3.522,0,0,0,1.57,2.076l4.384.962a2.463,2.463,0,0,1,1.852,2.93c-.27,1.333-1.887,3.246-3.185,2.956l-6.286-1.365c-1.445,1.654-3.542,1.6-6.13,1.424l-7.974-.537a4.934,4.934,0,0,1-4.7-4.824v-1.879A5.556,5.556,0,0,1,6847.24,7629.645Z" transform="translate(-6689.238 -7457.282)"/>
      <path id="Path_3317" data-name="Path 3317" d="M13854.227,10254.2c0,9.886-6.189,13.288-13.813,13.288h-4.03c-7.629,0-13.812-3.4-13.812-13.288v-21.757c0-9.883,6.184-17.893,13.813-17.893h4.03c7.624,0,13.813,8.01,13.813,17.893Z" transform="translate(-13512.887 -9985.702)" fill="#2b2b2b"/>
      <path id="Path_3318" data-name="Path 3318" d="M7510.039,10254.2c0,9.886-6.182,13.288-13.813,13.288h-4.03c-7.631,0-13.806-3.4-13.806-13.288v-21.757c0-9.883,6.175-17.893,13.806-17.893h4.03c7.631,0,13.813,8.01,13.813,17.893Z" transform="translate(-7310.842 -9985.702)"/>
      <path id="Path_3319" data-name="Path 3319" d="M8497.209,6340.39c-.217-.024-.434-.047-.654-.072-4.008-.565-8.728-1.006-13.95-1.336-1.353-2.851-2.71-5.068-3.5-5.068a.264.264,0,0,0-.07.006,2.309,2.309,0,0,0-1.125-.594c-1.035-.317-2.953-1.116-5.131-2.044l.453-.242-7.25-4.349a12.877,12.877,0,0,1,.1,1.784.581.581,0,0,0-.06-.026c-.469-2.062-1.306-4.794-1.554-6.719-.016-.205-.034-.419-.047-.625.054-.2.107-.4.15-.607a3.239,3.239,0,0,0,1.4-2.84c0-1.232-.019-2.295-.534-2.764l.276.1a15.135,15.135,0,0,0-.751-6.986c-.592-1.368-1-2.182-3.443-2.424-.6-.88-3.2-1.255-3.568-1.255-.045,0-.057.006-.032.016.636.239.714.381.714,1.037a3.672,3.672,0,0,0-2.578-1.056.65.65,0,0,0-.27.037,3.973,3.973,0,0,1,.6.375,4.981,4.981,0,0,0-1.975-.584c-.2,0-.317.043-.3.135a.221.221,0,0,0,.122.145,4.152,4.152,0,0,0-.934-.106,3.148,3.148,0,0,0-1.449.327,3.838,3.838,0,0,1,.418.634,4.246,4.246,0,0,0-.9.684q.255-.51.52-.994h0l-4.7-.323c-5.287-.372-8.477-.6-12.363-.79-3.261-.161-7.012-.29-12.9-.447h0c-6.625.3-35.978,2.262-45.385,5.933-2.095.821-4.656,6.911-7.1,13.583-.651-.512-1.444-1.138-2.3-1.82,2.7-6.968,5.467-12.9,7.777-13.8,11.461-4.49,44.342-6.87,52.42-7.241h3.166c8.061.371,40.383,2.751,51.846,7.241,4.51,1.754,10.778,22.663,14.885,33.07Zm-134.541-.2c-.586-.624-1.2-1.258-1.839-1.916,1.282-3.408,2.729-7.555,4.237-11.7.566.239,1.07.446,1.482.617a4.832,4.832,0,0,0,.926,1.2c-1.146,3.264-2.229,6.367-3.172,8.747l.01,0c.217-.02.445-.038.686-.057.264-.022.545-.043.836-.066a14.279,14.279,0,0,0,.143,2.927Q8364.26,6340.063,8362.668,6340.192Zm25.226-1.418c-.3-.887-.656-1.884-1.022-2.846,15.857-.636,35.648-1.17,48.813-1.176.1,0,.211,0,.318,0,1.678,0,3.248.01,4.682.028a6.751,6.751,0,0,0-2.4,3.439c-3.232.041-6.465.1-9.678.164-4.3-.092-8.648-.133-12.979-.133-9.556,0-19.021.2-27.731.525Z" transform="translate(-8173.511 -6158.931)" fill="#fff"/>
      <path id="Path_3320" data-name="Path 3320" d="M8551.481,7245.157c-.412-.17-.916-.378-1.481-.616.673-1.843,1.355-3.688,2.047-5.461.861.682,1.653,1.308,2.3,1.819l-.142.391-2.972,3.26A2.4,2.4,0,0,0,8551.481,7245.157Z" transform="translate(-8358.444 -7076.894)" fill="#debaae"/>
      <path id="Path_3321" data-name="Path 3321" d="M8606.469,7342.814a4.84,4.84,0,0,1-.927-1.2,2.365,2.365,0,0,1-.242-.607l2.972-3.26C8607.658,7339.432,8607.055,7341.146,8606.469,7342.814Z" transform="translate(-8412.505 -7173.354)" fill="#debaae"/>
      <path id="Path_3322" data-name="Path 3322" d="M8583.154,7912.032a14.34,14.34,0,0,1-.142-2.927c1.128-.085,2.447-.173,3.924-.261v.016l.78.771.8-.881c3.207-.182,7.03-.367,11.237-.55.139.93.327,1.915.541,2.861-6.311.273-12.118.61-17.143.972Z" transform="translate(-8390.689 -7731.023)" fill="#4c5e5a"/>
      <path id="Path_3323" data-name="Path 3323" d="M9332.07,7903.229c-.215-.946-.4-1.93-.541-2.86q2.089-.089,4.295-.18c.365.962.72,1.959,1.021,2.846Q9334.417,7903.126,9332.07,7903.229Z" transform="translate(-9122.463 -7723.192)" fill="#2f4642"/>
      <path id="Path_3324" data-name="Path 3324" d="M11930.6,6990.9c2.55-5.27,4.549-12.731,6.876-19.585a1.464,1.464,0,0,0,.554.933c-.494.479.021,1.632.582,2.893.675,1.554,1.223,2.474,1.918,2.591a12.263,12.263,0,0,0,3.118,4.757c-.06,1.1-.116,1.827-.136,2.358-.276-.714-.418-1.2-.418-1.2l-4.137,3.507c-3.418,1.5-7.069,3.25-7.069,3.25h0A4.305,4.305,0,0,0,11930.6,6990.9Z" transform="translate(-11663.304 -6815.132)" fill="#fff"/>
      <path id="Path_3325" data-name="Path 3325" d="M8760.18,7933.62l-.779-.771v-.016l1.581-.095Z" transform="translate(-8563.153 -7755.013)" fill="#2f4642"/>
      <path id="Path_3326" data-name="Path 3326" d="M8324.05,8007.165c.268-.67.541-1.384.824-2.135.641.658,1.254,1.292,1.839,1.916-.921.072-1.808.147-2.663.22Z" transform="translate(-8137.556 -7825.683)" fill="#405e8b"/>
      <path id="Path_3327" data-name="Path 3327" d="M13615.795,7815.318c-.708-.044-1.425-.084-2.15-.126-.139-.147-.264-.289-.377-.424-.529-.638-1.057-1.3-1.607-1.86.588-1.346,1.016-2.114.56-2.651a.306.306,0,0,1,.069-.005C13613.084,7810.251,13614.442,7812.467,13615.795,7815.318Z" transform="translate(-13306.701 -7635.269)" fill="#475b81"/>
      <path id="Path_3328" data-name="Path 3328" d="M12836.159,7576.31q-3-.094-6.132-.157l1.453-1.142-.836-1.8,2.515-1.355a16.127,16.127,0,0,1,4.05,2.779l-.043.01c-.879.21-.334,1.157-.479,1.176A.592.592,0,0,0,12836.159,7576.31Zm-8.3-.2c-.35-.007-.7-.013-1.05-.016-.214-1.893-.419-3.519-.557-4.616h.048a7.481,7.481,0,0,0,3.52-.8c.158.034.315.072.473.112A38.331,38.331,0,0,0,12827.855,7576.111Zm15.99-1.669a5.224,5.224,0,0,0-1.571-1.18,7.228,7.228,0,0,0-1.739-.5,19.8,19.8,0,0,0-3.564-2.974l1.18-.639c2.178.928,4.1,1.727,5.131,2.044a2.314,2.314,0,0,1,1.125.594C12844.862,7572.329,12844.436,7573.1,12843.846,7574.442Zm-12.4-7.87c-.02-.082-.037-.166-.057-.252.02.006.037.016.061.025C12831.453,7566.418,12831.449,7566.5,12831.449,7566.572Z" transform="translate(-12538.887 -7396.803)" fill="#4c6b9a"/>
      <path id="Path_3329" data-name="Path 3329" d="M12007.473,7685.616c-.525-.009-1.05-.015-1.578-.021-1.092-1.591-2.588-3.739-3.613-5.109.227-.069.453-.132.68-.189a7.443,7.443,0,0,0,3.186.767,5.707,5.707,0,0,0,.691-.041.085.085,0,0,1-.006-.025l.084,0C12007.055,7682.1,12007.26,7683.724,12007.473,7685.616Zm-4.166-.05c-2.336-.021-4.7-.031-7.086-.031H11996a.674.674,0,0,0-.381-.242c-.3-.1-.06-.255-.047-.469a1.193,1.193,0,0,0-.021-.28,16,16,0,0,1,3.757-2.813l2.53.84-.694,1.86Zm-14.365-.9c-.469-1.833-.8-3.068-.8-3.068h0s3.651-1.745,7.069-3.25l-1.708,1.449,1.371.456a19.872,19.872,0,0,0-3.112,3.012,7.235,7.235,0,0,0-1.142.292,5.357,5.357,0,0,0-1.676,1.109Z" transform="translate(-11719.554 -7506.323)" fill="#475b81"/>
      <path id="Path_3330" data-name="Path 3330" d="M12812.932,7278.328h-.047l-.086,0a11.3,11.3,0,0,1-.22-1.2c.1,0,.2,0,.309,0a16.078,16.078,0,0,1,3.563.406A7.484,7.484,0,0,1,12812.932,7278.328Zm5.111-4.179a19.752,19.752,0,0,0-5.146-.685.174.174,0,0,1,.025-.01c.783-.361,2.893-4.137,3.653-5.678-.006-.251-.054-.764-.1-1.326.248,1.924,1.084,4.656,1.554,6.718.019.085.036.17.056.252C12818.078,7273.653,12818.065,7273.9,12818.043,7274.149Z" transform="translate(-12525.523 -7103.651)" fill="#eed4c6"/>
      <path id="Path_3331" data-name="Path 3331" d="M12513.271,7251.1a7.433,7.433,0,0,1-3.186-.768,16,16,0,0,1,3.651-.5,11.609,11.609,0,0,0,.22,1.2c0,.009,0,.018.006.024A5.7,5.7,0,0,1,12513.271,7251.1Zm-5.856-3.782c-.208-.449-.384-.874-.526-1.239.02-.531.076-1.254.136-2.358a5.253,5.253,0,0,0,3.217,1.378,5.056,5.056,0,0,0,.78.063c.088,0,.18,0,.267-.01,2.98-.159,5.327-3.108,6.3-6.617.013.206.031.421.047.625.047.563.1,1.075.1,1.327-.762,1.54-2.871,5.317-3.654,5.678a.233.233,0,0,0-.025.01h-.009A19.715,19.715,0,0,0,12507.415,7247.314Z" transform="translate(-12226.682 -7076.357)" fill="#dab8ad"/>
      <path id="Path_3332" data-name="Path 3332" d="M11817.9,7532.605a6.756,6.756,0,0,1,2.4-3.439h.085c.014-.024.025-.051.038-.075a4.325,4.325,0,0,1,1.288-.494h0s.334,1.236.8,3.068c-.309.277-.613.586-.915.9Q11819.75,7532.582,11817.9,7532.605Zm21.567-.016q-1.288-.019-2.587-.028l-2.164-1.135.7-1.861-2.531-.84a15.633,15.633,0,0,1,2.975-1.245C11836.881,7528.852,11838.377,7531,11839.468,7532.59Zm-11.023-5.339-1.37-.455,1.708-1.449,4.137-3.507s.142.484.418,1.2c.142.364.317.789.525,1.238A19.675,19.675,0,0,0,11828.444,7527.251Z" transform="translate(-11553.13 -7353.319)" fill="#4c6b9a"/>
      <path id="Path_3333" data-name="Path 3333" d="M12900.131,7499.45c-.719-.017-1.443-.028-2.172-.041a38.394,38.394,0,0,1,2.433-5.317,15.862,15.862,0,0,1,2.87,1.058l-2.515,1.354.837,1.8Zm6.943-6.361a19.587,19.587,0,0,0-5.562-2.49c.021-.251.034-.5.041-.729,0-.075,0-.154,0-.227a12.847,12.847,0,0,0-.1-1.783l7.25,4.349-.452.242Z" transform="translate(-12608.99 -7320.101)" fill="#475b81"/>
      <path id="Path_3334" data-name="Path 3334" d="M12104.2,7588.943a16.225,16.225,0,0,1,2.428-2.1c.2-.189-.023-.273-.443-.273a6.205,6.205,0,0,0-.965.094,19.866,19.866,0,0,1,3.111-3.012,19.582,19.582,0,0,1,12.05-4.119h.009a19.622,19.622,0,0,1,14.273,6.15,3.652,3.652,0,0,0-.5-.044c-.311,0-.463.076-.3.251.438.462,2.811,2.27,2.232,2.519a.5.5,0,0,1-.194.038c-.633,0-1.723-.959-2.865-1.581a2.6,2.6,0,0,0-1.138-.409c-.371,0-.509.257-.525.661,0,.195.208.352-.036.43a16.135,16.135,0,0,0-4.051-2.779,15.915,15.915,0,0,0-2.87-1.057c-.157-.04-.314-.079-.472-.113a16.079,16.079,0,0,0-3.565-.405c-.1,0-.205,0-.308,0a16.014,16.014,0,0,0-3.65.5c-.227.057-.453.12-.68.189a15.6,15.6,0,0,0-2.975,1.245,16.018,16.018,0,0,0-3.757,2.813.466.466,0,0,0-.519-.405,2.825,2.825,0,0,0-1.107.333c-.7.325-1.389.77-1.967,1.073-.406,0-.812,0-1.218.006Z" transform="translate(-11833.015 -7409.717)" fill="#2f4642"/>
      <path id="Path_3335" data-name="Path 3335" d="M12580.109,6515.3a1.243,1.243,0,0,0-.711-.928C12579.836,6514.567,12580.2,6514.841,12580.109,6515.3Z" transform="translate(-12297.567 -6368.42)" fill="#fff"/>
      <path id="Path_3336" data-name="Path 3336" d="M11983.1,7855.379c.3-.317.607-.626.916-.9a5.337,5.337,0,0,1,1.676-1.109,7.261,7.261,0,0,1,1.142-.293,6.146,6.146,0,0,1,.964-.094c.422,0,.648.084.443.273a16.16,16.16,0,0,0-2.426,2.1Q11984.458,7855.365,11983.1,7855.379Zm3.931-.029c.579-.3,1.271-.748,1.968-1.072a2.825,2.825,0,0,1,1.107-.333.468.468,0,0,1,.52.405,1.246,1.246,0,0,1,.021.28c-.013.214-.254.365.047.469a.679.679,0,0,1,.381.243C11989.732,7855.341,11988.381,7855.344,11987.028,7855.35Zm34.54.7c-3.078-.173-6.316-.311-9.671-.418a.591.591,0,0,1,.527-.494c.146-.018-.4-.965.479-1.175l.044-.01c.244-.078.035-.235.037-.431.017-.4.154-.66.525-.66a2.608,2.608,0,0,1,1.139.409c1.142.622,2.232,1.581,2.863,1.581a.508.508,0,0,0,.2-.037c.579-.249-1.795-2.056-2.232-2.519-.166-.176-.016-.251.3-.251a3.643,3.643,0,0,1,.5.043,7.266,7.266,0,0,1,1.738.5,5.219,5.219,0,0,1,1.572,1.18c.55.559,1.079,1.223,1.607,1.86.113.136.238.277.377.424Z" transform="translate(-11714.626 -7676.13)" fill="#e3c3b7"/>
      <path id="Path_3337" data-name="Path 3337" d="M12507.027,6773.732a5.006,5.006,0,0,1-.78-.063c.069,0,.142,0,.211,0,.094,0,.186,0,.279-.006l.4-.057s-1.428-1.764-2.943-7.724a41.585,41.585,0,0,1-1.393-8.811c1.48-.261,3.547-.657,4.883-.773a7.532,7.532,0,0,1,3.594,1.9,9.945,9.945,0,0,1,1.063,3.043l1.663-.575.6.227c.517.469.532,1.531.534,2.764a3.234,3.234,0,0,1-1.4,2.84c-.043.2-.1.405-.15.606-.971,3.509-3.316,6.458-6.3,6.617-.088.007-.18.01-.268.01Z" transform="translate(-12222.686 -6604.931)" fill="#eed4c6"/>
      <path id="Path_3338" data-name="Path 3338" d="M12262.549,6807.438c-.068,0-.141,0-.21,0a5.25,5.25,0,0,1-3.216-1.378,12.265,12.265,0,0,1-3.119-4.757c-.7-.116-1.242-1.037-1.918-2.591-.559-1.261-1.076-2.414-.582-2.893a.51.51,0,0,0,.264.082h.032l.528.223-.371-2.2s-.136-1.267,2-2.835a2.5,2.5,0,0,1,.287-.187,2.648,2.648,0,0,0,.986.183h.02a16.084,16.084,0,0,0,1.647-.239,41.451,41.451,0,0,0,1.393,8.81c1.516,5.961,2.942,7.725,2.942,7.725l-.4.057C12262.736,6807.436,12262.645,6807.438,12262.549,6807.438Z" transform="translate(-11978.78 -6638.697)" fill="#debaae"/>
      <path id="Path_3339" data-name="Path 3339" d="M12238.916,6543.815l-.527-.224h-.032a.5.5,0,0,1-.263-.082,1.47,1.47,0,0,1-.555-.933c.63-1.855,1.283-3.667,1.975-5.377a2.315,2.315,0,0,0,1.314,1.39,2.57,2.57,0,0,0-.286.186c-2.132,1.569-2,2.836-2,2.836Zm1.519-8.763q.378-.835.774-1.619a4.216,4.216,0,0,1,.9-.683c.186.44-.16.786-1.677,2.3Z" transform="translate(-11963.367 -6386.389)" fill="#2f4642"/>
      <path id="Path_3340" data-name="Path 3340" d="M12339.138,6493.2a9.98,9.98,0,0,0-1.063-3.044,7.531,7.531,0,0,0-3.594-1.9c-1.336.117-3.4.513-4.882.773a15.681,15.681,0,0,1-1.648.239h-.019a2.676,2.676,0,0,1-.988-.183,2.314,2.314,0,0,1-1.312-1.39c.3-.735.605-1.453.92-2.146,1.517-1.517,1.862-1.862,1.676-2.3a3.838,3.838,0,0,0-.418-.635,3.163,3.163,0,0,1,1.451-.327,4.157,4.157,0,0,1,.933.107c-.072-.045-.116-.092-.122-.146-.014-.091.106-.135.3-.135a4.984,4.984,0,0,1,1.974.585,3.89,3.89,0,0,0-.6-.374.633.633,0,0,1,.27-.038,3.671,3.671,0,0,1,2.578,1.056c0-.657-.078-.8-.714-1.037-.024-.01-.013-.016.032-.016.367,0,2.965.374,3.568,1.255,2.439.242,2.852,1.056,3.443,2.424a15.137,15.137,0,0,1,.751,6.987l-.276-.1-.6-.226-1.663.576Zm-5.659-9.357Zm-2.164-1.006a1.244,1.244,0,0,1,.711.928C12332.119,6483.3,12331.752,6483.03,12331.314,6482.833Z" transform="translate(-12049.484 -6336.883)" fill="#4c5e5a"/>
      <path id="Path_3341" data-name="Path 3341" d="M7230.055,6068.126c-25.741-.541-53.071.67-68.6,2.032,4.121-10.4,10.376-31.335,14.887-33.092,11.461-4.491,44.343-6.87,52.42-7.242h3.166c8.062.372,40.384,2.751,51.847,7.242,4.512,1.757,10.788,22.7,14.894,33.092C7282.97,6067.837,7255.816,6067.585,7230.055,6068.126Zm84.841,8.27c-.979-.78-1.016-2.167-6.537-3.754-4.21-10.577-13.032-37.12-18.836-39.739-16.626-7.53-48.429-8.866-57.415-9.271h-3.534c-8.993.405-40.1.867-57.969,9.271-5.77,2.71-14.623,29.162-18.843,39.739-5.524,1.588-5.56,2.974-6.53,3.754-3.67,2.889-7.329,6.306-9.936,29.269-1.371,12.089.594,25.379.594,25.379s6.43,15.824,14.523,16.05h159.294c1.5,0,4.1-2.521,4.1-2.521s8.3-25.295,8.3-38.909C7322.108,6084.79,7318.559,6079.285,7314.9,6076.4Z" transform="translate(-6974.96 -5888.676)" fill="#f79406"/>
      <path id="Path_3342" data-name="Path 3342" d="M14626.836,7589.906l-7.986-1.333c-3.955-.653-7.573,1.484-7.788,4.88a3.539,3.539,0,0,1-1.565,2.069l-4.386.962a2.48,2.48,0,0,0-1.858,2.928c.273,1.338,2.408,3.223,3.688,2.945l6.291-1.371c1.446,1.648,3.04,1.622,5.618,1.453l7.986-.554a4.928,4.928,0,0,0,4.7-4.82v-1.883a5.579,5.579,0,0,0-4.7-5.276Z" transform="translate(-14276.026 -7418.442)" fill="#2b2b2b"/>
      <path id="Path_3343" data-name="Path 3343" d="M11479.973,6146.907s11.338-5.794,12.473-11.791c1.729-9.177.063-20.314-.287-29.065-.864-21.584-4.148-26.728-7.812-29.617-.965-.78-1.01-2.167-6.545-3.754-4.205-10.577-13.006-37.152-18.824-39.739-18.586-8.257-48.43-8.866-57.429-9.271h-1.945v6.134h1.776c8.07.361,40.387,2.741,51.863,7.234,4.5,1.754,10.749,22.758,14.877,33.159-15.52-1.742-42.808-2.563-68.518-2.031v78.968h74.5c1.494,0,5.873-.227,5.873-.227Z" transform="translate(-11144.202 -5888.714)" fill="#fcb910"/>
      <path id="Path_3344" data-name="Path 3344" d="M7132.521,10394c0,5.085-10.021,9.2-15.211,9.2H6951.674c-5.194,0-15.97-4.118-15.97-9.2v-7.478c0-5.093-1.046-9.211,4.148-9.211h188.526c5.193,0,4.144,4.118,4.144,9.211Z" transform="translate(-6780.23 -10144.815)" fill="#f79406"/>
      <path id="Path_3345" data-name="Path 3345" d="M7229.639,10507.8H7046.207c-5.053,0-4.032.619-4.032,5.7v.565c3.988,3.6,13.945,2.813,18.023,2.813H7215.65c4.073,0,14.039.787,18.016-2.82v-.559C7233.667,10508.418,7234.688,10507.8,7229.639,10507.8Z" transform="translate(-6884.318 -10272.38)" fill="#fcb910"/>
      <path id="Path_3346" data-name="Path 3346" d="M13408.446,9272.174l-.139,0-25.15-.352c-6.63-.1-6.411-5.013-4.288-10.782,1.986-5.449,4.621-9.737,10.623-9.737h22.707a12.478,12.478,0,0,1,3.688.547.5.5,0,0,1,.05.017,3.729,3.729,0,0,0-1.318,1.727c-.084-.029-.169-.054-.26-.08a12.758,12.758,0,0,0-3.343-.437h-20.543c-5.427,0-7.8,3.468-9.6,7.876-1.918,4.672-2.117,8.653,3.885,8.726l22.741.275c.095,0,.188,0,.284,0a13.957,13.957,0,0,0,3.184-.378c.2-.044.385-.094.564-.146a3.021,3.021,0,0,0,1.27,2.077c-.208.069-.425.136-.651.2A14.5,14.5,0,0,1,13408.446,9272.174Z" transform="translate(-13077.831 -9044.031)" fill="#654a06"/>
      <path id="Path_3347" data-name="Path 3347" d="M13508.736,9338.688c-.551,3.918-.055,7.231-4.833,8.335a13.9,13.9,0,0,1-3.468.375l-22.742-.277c-6-.072-5.8-4.053-3.886-8.725,1.8-4.408,4.179-7.876,9.6-7.876h20.544a12.758,12.758,0,0,1,3.343.437C13511.122,9332.038,13509.236,9335.088,13508.736,9338.688Z" transform="translate(-13170.769 -9121.477)" fill="#d1d1d1"/>
      <path id="Path_3348" data-name="Path 3348" d="M14953.377,9272.143a4.054,4.054,0,0,1-2.276-.576c4.578-1.537,4.109-5.479,4.693-10.107.552-4.428,2.623-8.184-1.554-9.537a3.649,3.649,0,0,1,2.1-.562h2.793c2.638,0,4.191.761,4.191,2.949l1.153,14.627c0,3.295-3.5,3.04-7.108,3.118l-3.837.086C14953.478,9272.14,14953.428,9272.143,14953.377,9272.143Z" transform="translate(-14616.133 -9044.09)" fill="#654a06"/>
      <path id="Path_3349" data-name="Path 3349" d="M14895.68,9296.135a3.032,3.032,0,0,1-1.271-2.078c4.18-1.232,3.742-4.434,4.271-8.188.49-3.515,2.3-6.5-1.178-7.651a3.735,3.735,0,0,1,1.318-1.727c4.176,1.353,2.1,5.108,1.553,9.536C14899.789,9290.654,14900.258,9294.6,14895.68,9296.135Z" transform="translate(-14560.711 -9068.658)" fill="#281e02"/>
      <path id="Path_3350" data-name="Path 3350" d="M14890.3,9369.42a8.682,8.682,0,0,1,.188-3.381l2.374-10.687a10.8,10.8,0,0,1,.531-1.772c3.474,1.15,1.666,4.137,1.176,7.652C14894.04,9364.986,14894.477,9368.188,14890.3,9369.42Z" transform="translate(-14556.602 -9144.021)" fill="#545454"/>
      <path id="Path_3351" data-name="Path 3351" d="M14984.23,9333.148c0,2.751-2.21,2.861-5.663,2.934l-3.682.066c-3.512.069-3.651-2.016-2.939-4.814l1.854-9.09c.472-1.852,1.229-3.383,3.775-3.383h2.68c2.519,0,3.3,1.387,3.3,3.211l.67,11.076Z" transform="translate(-14636.177 -9110.08)" fill="#d1d1d1"/>
      <path id="Path_3352" data-name="Path 3352" d="M7496.687,9261.452c.61,4.836.063,8.923,5.342,10.3a14.332,14.332,0,0,0,3.835.469l25.147-.352c6.637-.1,6.414-5.013,4.3-10.781-2-5.449-2.66-9.738-8.662-9.738h-24.682a12.568,12.568,0,0,0-3.689.547C7494.046,9253.234,7496.126,9257.007,7496.687,9261.452Z" transform="translate(-7327.746 -9044.081)" fill="#2b2b2b"/>
      <path id="Path_3353" data-name="Path 3353" d="M7576.4,9338.688c.547,3.918.053,7.231,4.829,8.335a13.948,13.948,0,0,0,3.472.375l22.734-.277c6-.072,5.808-4.053,3.89-8.725-1.8-4.408-2.245-7.876-7.681-7.876h-22.471a12.823,12.823,0,0,0-3.343.437c-3.826,1.082-1.93,4.132-1.43,7.731Z" transform="translate(-7405.765 -9121.477)" fill="#b2b5b7"/>
      <path id="Path_3354" data-name="Path 3354" d="M7153.109,9268.947c0,3.293,3.493,3.038,7.1,3.123l3.842.079c3.669.084,4.254-2.676,3.505-6.031l-2.371-10.687c-.49-2.219-1.289-4.062-3.949-4.062h-2.786c-2.632,0-4.194.761-4.194,2.949l-1.15,14.629Z" transform="translate(-6992.85 -9044.1)" fill="#2b2b2b"/>
      <path id="Path_3355" data-name="Path 3355" d="M7166,9333.148c0,2.751,2.207,2.861,5.656,2.934l3.682.066c3.521.069,3.65-2.016,2.934-4.814l-1.842-9.09c-.476-1.852-1.243-3.383-3.787-3.383h-2.665c-2.525,0-3.311,1.387-3.311,3.211Z" transform="translate(-7005.452 -9110.08)" fill="#b2b5b7"/>
      <path id="Path_3356" data-name="Path 3356" d="M8301.7,8332.762c-6.574-2.268-10.447-15.344-13.076-21.768-1.2-2.939-15.173-15.459-19.205-18.7l-2.889.183c3.509,2.336,17.538,16.684,18.884,19.968,2.632,6.428,4.455,19.865,9.13,22.787,15.193,1.175,42.359.588,42.359.588l.146-2.043C8330.125,8334.047,8313.461,8333.661,8301.7,8332.762Z" transform="translate(-8081.324 -8106.517)" fill="#fcb910"/>
      <path id="Path_3357" data-name="Path 3357" d="M11386.4,8287.569l.148,2.044s23.146.587,38.342-.589c4.67-2.92,6.5-16.358,9.131-22.785,1.346-3.285,15.08-18.688,18.586-21.031l-2.887-.179c-4.031,3.238-17.715,16.814-18.912,19.754-2.635,6.424-6.5,19.5-13.077,21.768C11405.969,8287.45,11393.32,8287.836,11386.4,8287.569Z" transform="translate(-11131.297 -8060.306)" fill="#f79406"/>
      <path id="Path_3358" data-name="Path 3358" d="M9370.431,9137.184c-1.959-5.69-1.333-8.753,3.487-8.753h78.813c5.741.236,4.833,3.816,3.272,8.637l-1.57,4.857c-1.67,5.182-5.479,9.58-10.748,9.58l-62.389-.024c-5.248,0-8.64-4.452-9.825-9.709Z" transform="translate(-9159.479 -8923.915)"/>
      <path id="Path_3359" data-name="Path 3359" d="M9639.284,9370.614a1.282,1.282,0,0,1-1.2,1.353h-76.861a1.371,1.371,0,0,1,0-2.717h76.861A1.285,1.285,0,0,1,9639.284,9370.614Zm-1.875,5.09a1.262,1.262,0,0,1-1.141,1.355H9563.05a1.378,1.378,0,0,1,0-2.714h73.219A1.259,1.259,0,0,1,9637.409,9375.7Zm-1.4,4.751a1.252,1.252,0,0,1-1.1,1.353h-70.483a1.391,1.391,0,0,1,0-2.72h70.483A1.26,1.26,0,0,1,9636,9380.455Z" transform="translate(-9345.854 -9159.34)" fill="#8fa4bc"/>
      <path id="Path_3360" data-name="Path 3360" d="M11706.969,6534.541c-1.434-.019-3-.029-4.682-.029-.107,0-.214,0-.316,0l11.482-30.1c1.4.1,2.951.2,4.7.323q-.264.485-.52.994c-.049.05-.1.1-.15.157l-.336-.413s-.7.762-1.289,1.34c-.35.334-.65.626-.84.814,0-.025,0-.051,0-.079a3.685,3.685,0,0,0-1.43,4.315c-.025.461.177,1.342.211,1.892a5.652,5.652,0,0,0,.164,1.117c-2.327,6.854-4.327,14.316-6.877,19.585Z" transform="translate(-11439.797 -6358.693)" fill-rule="evenodd" fill="url(#linear-gradient-5)"/>
      <path id="Path_3361" data-name="Path 3361" d="M11925.205,7845.535h-.086c.042-.024.082-.05.123-.075C11925.23,7845.485,11925.219,7845.511,11925.205,7845.535Z" transform="translate(-11657.946 -7669.688)" fill-rule="evenodd" fill="url(#linear-gradient-6)"/>
      <path id="Path_3362" data-name="Path 3362" d="M12210.348,6561.238a5.662,5.662,0,0,1-.163-1.117c-.035-.55-.237-1.431-.212-1.892a3.683,3.683,0,0,1,1.432-4.314.52.52,0,0,1,0,.079c.189-.189.49-.481.84-.814.588-.579,1.289-1.34,1.289-1.34l.337.412c.05-.053.1-.106.15-.157q-.4.782-.773,1.619c-.091.088-.183.182-.28.28-.713.107-.94,1.013-.641,1.867C12211.63,6557.571,12210.977,6559.382,12210.348,6561.238Z" transform="translate(-11936.175 -6405.051)" fill-rule="evenodd" fill="url(#linear-gradient-7)"/>
      <path id="Path_3363" data-name="Path 3363" d="M12320.078,6637.646c-.3-.854-.072-1.76.642-1.867.1-.1.188-.193.28-.28C12320.685,6636.194,12320.377,6636.912,12320.078,6637.646Z" transform="translate(-12043.931 -6486.837)" fill-rule="evenodd" fill="url(#linear-gradient-8)"/>
      <path id="Path_3364" data-name="Path 3364" d="M8515.919,6482.956h-.01c.942-2.377,2.024-5.48,3.172-8.744a6.947,6.947,0,0,0,1.022.815l-3.5,7.872C8516.364,6482.917,8516.135,6482.937,8515.919,6482.956Zm6.608-13.388c-.32-.141-.657-.283-1.01-.424l-.492-.387c2.438-6.671,5-12.762,7.1-13.583,9.407-3.672,38.76-5.631,45.385-5.933,5.893.158,9.644.286,12.9.447l-57.424,5.348Z" transform="translate(-8325.117 -6304.75)" fill-rule="evenodd" fill="url(#linear-gradient-9)"/>
      <path id="Path_3365" data-name="Path 3365" d="M8737.93,7320.711c.047-.133.095-.262.142-.391l.492.387q-.23-.091-.472-.18l-.162.183Z" transform="translate(-8542.163 -7156.314)" fill-rule="evenodd" fill="url(#linear-gradient-10)"/>
      <path id="Path_3366" data-name="Path 3366" d="M8658.513,7335.663a7.052,7.052,0,0,1-1.022-.815c.585-1.669,1.189-3.383,1.8-5.064l.163-.183c.159.06.317.119.471.179q.529.212,1.01.424l-.909,2.05a4.133,4.133,0,0,0-1.336,1.365,3.489,3.489,0,0,0,.371.8Z" transform="translate(-8463.525 -7165.387)" fill-rule="evenodd" fill="url(#linear-gradient-11)"/>
      <path id="Path_3367" data-name="Path 3367" d="M8711.48,7450.187a3.486,3.486,0,0,1-.371-.8,4.128,4.128,0,0,1,1.336-1.365l-.965,2.167Z" transform="translate(-8515.944 -7281.153)" fill-rule="evenodd" fill="url(#linear-gradient-12)"/>
      <g id="Group_10108" data-name="Group 10108" transform="translate(191.487 170.275)" clip-path="url(#clip-path-2)">
        <rect id="Rectangle_2384" data-name="Rectangle 2384" width="10.753" height="12.639" transform="translate(-2.194 -2.257)" fill="none"/>
      </g>
      <g id="Group_10109" data-name="Group 10109" transform="translate(194.986 169.033)" clip-path="url(#clip-path-3)">
        <rect id="Rectangle_2385" data-name="Rectangle 2385" width="7.923" height="7.923" transform="translate(-2.863 -2.273)" fill="none"/>
      </g>
      <g id="Group_10110" data-name="Group 10110" transform="translate(192.324 175.281)" clip-path="url(#clip-path-4)">
        <rect id="Rectangle_2386" data-name="Rectangle 2386" width="9.181" height="7.923" transform="translate(-3.032 -2.547)" fill="none"/>
      </g>
      <g id="Group_10111" data-name="Group 10111" transform="translate(197.404 144.932)" clip-path="url(#clip-path-5)">
        <rect id="Rectangle_2387" data-name="Rectangle 2387" width="80.238" height="36.535" transform="translate(-2.138 -2.382)" fill="none"/>
      </g>
      <g id="Group_10112" data-name="Group 10112" transform="translate(196.503 164.817)" clip-path="url(#clip-path-6)">
        <rect id="Rectangle_2388" data-name="Rectangle 2388" width="12.639" height="13.897" transform="translate(-2.809 -2.773)" fill="none"/>
      </g>
      <g id="Group_10113" data-name="Group 10113" transform="translate(204.481 171.738)" clip-path="url(#clip-path-7)">
        <rect id="Rectangle_2389" data-name="Rectangle 2389" width="6.351" height="6.351" transform="translate(-1.669 -2.148)" fill="none"/>
      </g>
      <g id="Group_10114" data-name="Group 10114" transform="translate(197.486 173.517)" clip-path="url(#clip-path-8)">
        <rect id="Rectangle_2390" data-name="Rectangle 2390" width="6.351" height="6.351" transform="translate(-2.22 -2.355)" fill="none"/>
      </g>
      <g id="Group_10115" data-name="Group 10115" transform="translate(197.72 169.199)" clip-path="url(#clip-path-9)">
        <rect id="Rectangle_2391" data-name="Rectangle 2391" width="13.897" height="10.753" transform="translate(-2.454 -2.438)" fill="none"/>
      </g>
      <g id="Group_10116" data-name="Group 10116" transform="translate(197.826 172.037)" clip-path="url(#clip-path-10)">
        <rect id="Rectangle_2392" data-name="Rectangle 2392" width="17.041" height="11.067" transform="translate(-2.56 -2.447)" fill="none"/>
      </g>
      <g id="Group_10117" data-name="Group 10117" transform="translate(208.826 171.999)" clip-path="url(#clip-path-11)">
        <rect id="Rectangle_2393" data-name="Rectangle 2393" width="9.181" height="9.495" transform="translate(-2.87 -2.409)" fill="none"/>
      </g>
      <g id="Group_10118" data-name="Group 10118" transform="translate(203.383 172.058)" clip-path="url(#clip-path-12)">
        <rect id="Rectangle_2394" data-name="Rectangle 2394" width="7.923" height="7.923" transform="translate(-2.142 -2.468)" fill="none"/>
      </g>
      <g id="Group_10119" data-name="Group 10119" transform="translate(196.368 174.498)" clip-path="url(#clip-path-13)">
        <rect id="Rectangle_2395" data-name="Rectangle 2395" width="6.351" height="4.779" transform="translate(-2.673 -1.763)" fill="none"/>
      </g>
      <g id="Group_10120" data-name="Group 10120" transform="translate(196.828 174.479)" clip-path="url(#clip-path-14)">
        <rect id="Rectangle_2396" data-name="Rectangle 2396" width="6.351" height="4.779" transform="translate(-3.134 -1.745)" fill="none"/>
      </g>
      <g id="Group_10121" data-name="Group 10121" transform="translate(196.429 174.864)" clip-path="url(#clip-path-15)">
        <rect id="Rectangle_2397" data-name="Rectangle 2397" width="6.351" height="4.779" transform="translate(-2.735 -2.129)" fill="none"/>
      </g>
      <g id="Group_10122" data-name="Group 10122" transform="translate(195.761 173.828)" clip-path="url(#clip-path-16)">
        <rect id="Rectangle_2398" data-name="Rectangle 2398" width="6.351" height="7.923" transform="translate(-2.066 -2.666)" fill="none"/>
      </g>
      <g id="Group_10123" data-name="Group 10123" transform="translate(204.061 173.804)" clip-path="url(#clip-path-17)">
        <rect id="Rectangle_2399" data-name="Rectangle 2399" width="6.351" height="7.923" transform="translate(-2.821 -2.641)" fill="none"/>
      </g>
      <g id="Group_10124" data-name="Group 10124" transform="translate(196.247 175.564)" clip-path="url(#clip-path-18)">
        <rect id="Rectangle_2400" data-name="Rectangle 2400" width="6.351" height="7.923" transform="translate(-2.553 -2.83)" fill="none"/>
      </g>
      <g id="Group_10125" data-name="Group 10125" transform="translate(196.354 169.397)" clip-path="url(#clip-path-19)">
        <rect id="Rectangle_2401" data-name="Rectangle 2401" width="13.897" height="10.753" transform="translate(-2.659 -2.637)" fill="none"/>
      </g>
      <g id="Group_10126" data-name="Group 10126" transform="translate(195.536 166.581)" clip-path="url(#clip-path-20)">
        <rect id="Rectangle_2402" data-name="Rectangle 2402" width="11.067" height="11.067" transform="translate(-1.841 -2.965)" fill="none"/>
      </g>
      <path id="Path_3387" data-name="Path 3387" d="M3385.066,5290.2l2.264,4.15-2.76,5.958-2.339-7.014Z" transform="translate(-3306.454 -5171.677)" fill="#d8d8d8"/>
      <path id="Path_3388" data-name="Path 3388" d="M845.266,12035.271c-1.733,6.071-2.078,10.438-1.21,14.776.258,1.3,3.132,1.29,3.132,1.29s2.849-1.025,4.087,0c4.8,3.945,11.793,3.51,13.057,3.18,2.211-.561,4.821-1.887,2.211-4.466-2.233-2.212-8.376-5.357-9.229-7.4s-1.075-8.253-1.075-8.253l-10.973.881Z" transform="translate(-824.697 -11764.77)"/>
      <path id="Path_3389" data-name="Path 3389" d="M1540.467,11944.053c-.255,2.858-.626,8.06.331,11.951.292,1.173,4.339,1.449,4.339,1.449s1.994-1.346,4.851.479c4.764,3.03,12.788,1.791,13.781,1.166,1-.641,2.169-1.585-.3-3.82-2.109-1.908-8.222-4.326-9.065-6.148s-4.036-7.109-4.036-7.109l-9.9,2.033Z" transform="translate(-1505.672 -11674.468)"/>
      <path id="Path_3390" data-name="Path 3390" d="M2856.289,4530.26c-1.248,2.743-1.455,6.05-5.182,8.707s-5.238,2.393-5.238,2.393l8.364,21.807a26.462,26.462,0,0,1,10.932-17.861C2868.008,4543.359,2856.289,4530.26,2856.289,4530.26Z" transform="translate(-2782.11 -4428.763)" fill="#d6a092"/>
      <path id="Path_3391" data-name="Path 3391" d="M3249.279,3851.632c-1.283-6.9-17.01-15.633-22.939-8.467a5.117,5.117,0,0,0-1.478,2c-8.263,19.346,3.131,25.527,3.131,25.527.457.107,4.2,1.572,5,1.852a4.942,4.942,0,0,0,3.128.468c1.635-.245,3.55-1.484,5.213-4.122,1.409.06,2.94.421,3.041-.575-.349-1.463.383-4.572.307-5.587,3.251-3.506,5.258-7.6,4.594-11.1Z" transform="translate(-3149.673 -3754.445)" fill="#d6a092"/>
      <path id="Path_3392" data-name="Path 3392" d="M3055.71,3726.838c2.015-1.528,6.272-2.824,11.432-.916,5,1.852,6.281,4.379,8.323,9,1.047,2.337-.317,5.182-.317,5.182a9.389,9.389,0,0,0-3.1-1.2c-1.317-.109-2.7-1.373-5.091.29a41.876,41.876,0,0,1-3.848,2.345s-11.441,7.043-12.146,8.688-5.4-1.79-5.4-1.79a23.957,23.957,0,0,0,1.864-9.973c-.144-9.684,7.81-11.25,8.285-11.626Z" transform="translate(-2977.327 -3641.514)"/>
      <path id="Path_3393" data-name="Path 3393" d="M3711.83,3741.172c1.434-2.531,3.961-1.679,5.276-1.562,1.314.1,4.6,3.239,4.6,3.239s5.308-4.336,2.739-4.009c-1.038.128-7.244-10.376-12.256-12.228a14.46,14.46,0,0,0-5.559-.949c2.091,1.742,3.27,5.275-1.337,16.859a9.755,9.755,0,0,1,1.343,2.034A7.346,7.346,0,0,0,3711.83,3741.172Z" transform="translate(-3622.276 -3642.184)" fill="#1e1e1e"/>
      <path id="Path_3394" data-name="Path 3394" d="M3542.009,4444.9c-.352-1-1.694-3.4-3.024-2.684-1.94,1.031-3.512,5.625-1.749,7.583S3542.009,4444.9,3542.009,4444.9Z" transform="translate(-3457.238 -4342.561)" fill="#d6a092"/>
      <path id="Path_3395" data-name="Path 3395" d="M1353.811,7204.862c.031,1.022-.817,8.4-1.879,15.309-1.56,10.162-4.408,41.612-4.679,43.069-1.16,6.307.522,39.081.522,39.081s-19.3-1.644-20.934-1.6,9.8-70.338,9.2-72.511,1.6-40.2,1.6-40.2Z" transform="translate(-1296.956 -7026.969)" fill="#1e1e1e"/>
      <path id="Path_3396" data-name="Path 3396" d="M814.3,7238.65c-.811,4.474-4.427,6.769-6.757,13-1.56,4.16.428,13.184.258,15.6-.688,9.606-1.946,25.659-3.122,40.56-.569,7.263-6.961,41.512-5.719,45.24.541,1.6,20.18,4.355,21.057,3.116.761-1.053,6.534-41.2,8.061-47.574,3.455-14.325,7.3-44.2,9.36-55.113.708-3.776-1.76-8.628-1.76-8.628Z" transform="translate(-780.901 -7076.474)"/>
      <path id="Path_3397" data-name="Path 3397" d="M987.569,4983.343c2.245,0,4.88-12.7,8.838-23.406,2.49-6.721,9.1-24.307,9.1-24.307s1.349-9.826-1.169-16.381-6.974-15.52-6.974-15.52c-4.76,1.84-9.8,5.32-14.532,9.294-8.75,7.38-16.828,28.19-18.346,30.718s-8.957,12.451-13.447,23.9c0,0,19.415,15.7,36.529,15.7Z" transform="translate(-929.733 -4793.865)"/>
      <path id="Path_3398" data-name="Path 3398" d="M1992.232,7257.75l14.192.581-.283,5.792-14.2.575Z" transform="translate(-1947.312 -7095.146)" fill="#1e1e1e"/>
      <path id="Path_3399" data-name="Path 3399" d="M3025.52,4844.1l2.5-1.158s8.539,14.7,8.617,15.06c.063.368-4.166,5.068-4.166,5.068l-6.948-18.971Z" transform="translate(-2957.736 -4734.438)" fill="#fff"/>
      <path id="Path_3400" data-name="Path 3400" d="M3830.729,7662.725c1.587,1.217,6.149,2.993,7.354,3.656s2.843,3.091,3.358,3.723c1.292,1.591,2.132,4.572,1.566,4.877-.3.179-1.481-2.006-2.056-2.708-.582-.719-2.214-2.524-2.214-2.524a17.006,17.006,0,0,1,2.833,3.852c.581,1.471,1.2,3.757.622,3.691-.594-.065-.974-1.088-1.241-1.823a42.061,42.061,0,0,0-3.113-4.226,56.894,56.894,0,0,1,3.235,5.43c.242.9-.424,1.227-.76.729s-2.547-3.49-3.013-3.9,2.575,2.9,2.025,3.506c-.264.3-1.157-.01-2.27-1.525s-2.955-2.062-4.415-2.543a18.014,18.014,0,0,1-5.71-4.528c-.653-1.117-2.21-4.069-2.21-4.069l3.383-4.412a24.86,24.86,0,0,0,2.625,2.8Z" transform="translate(-3739.031 -7488.314)" fill="#d6a092"/>
      <path id="Path_3401" data-name="Path 3401" d="M3681.667,7727.59l2.355,1.846-5.731,10.25-5.98-4.5Z" transform="translate(-3590.035 -7554.459)" fill="#aac9e2"/>
      <path id="Path_3402" data-name="Path 3402" d="M2430.429,5410.588c-2.827,3.962-1.16,28.913,4.939,40.556,2.858,5.465,11.942,14.055,21.06,20.287,1.6,1.093,10.747-11.967,10.747-11.967s-14.077-13.711-16.249-17.459-4.644-25.665-6.116-29.03C2440.154,5402.31,2430.429,5410.588,2430.429,5410.588Z" transform="translate(-2374.671 -5286.374)"/>
      <path id="Path_3403" data-name="Path 3403" d="M2932.9,4848.16s6.5,15.859,7.278,18.2-.387,13.258-.387,13.258l-3.122-8.193,1.432-3.119-3.77-2.207-4.814-15.34A4.154,4.154,0,0,1,2932.9,4848.16Z" transform="translate(-2863.886 -4739.541)" fill="#1e1e1e"/>
    </g>
  </g>
</svg>
