<svg xmlns="http://www.w3.org/2000/svg" xmlns:xlink="http://www.w3.org/1999/xlink" width="301" height="249" viewBox="0 0 301 249">
  <defs>
    <clipPath id="clip-path">
      <rect y="27" width="301" height="249" fill="none"/>
    </clipPath>
    <linearGradient id="linear-gradient" x1="0.784" y1="0.154" x2="0.014" y2="1.259" gradientUnits="objectBoundingBox">
      <stop offset="0" stop-color="#fff"/>
      <stop offset="0.671" stop-color="#fff"/>
      <stop offset="1" stop-color="#fff"/>
    </linearGradient>
    <clipPath id="clip-path-2">
      <path id="Path_3168" data-name="Path 3168" d="M3838.03,4413.93,3854,4377.983l74.127-6.9c5,.234,9.123.536,15.934,1.018l-14.825,38.834c-27.085.027-75.9,1.76-91.2,3Z" transform="translate(-3838.03 -4371.08)" clip-rule="evenodd"/>
    </clipPath>
  </defs>
  <g id="Scroll_Group_4" data-name="Scroll Group 4" transform="translate(0 -27)" clip-path="url(#clip-path)" style="isolation: isolate">
    <g id="Group_10105" data-name="Group 10105">
      <rect id="Rectangle_2378" data-name="Rectangle 2378" width="301" height="301" fill="none"/>
      <path id="Path_3112" data-name="Path 3112" d="M11758.994,6571.356c2.293-.761,9.143,16.03,9.836,21.056-1.8,2.693-9.883,7.816-9.883,7.816a64.591,64.591,0,0,1-3.836-12.985C11753.911,6580.35,11758.094,6571.656,11758.994,6571.356Z" transform="translate(-11542.604 -6452.653)" fill="#1d1d56"/>
      <path id="Path_3113" data-name="Path 3113" d="M10554.409,6103.118c-3.542-1.085-15.039-6.5-19.633-7.837l-5.216,7.661s.34,11.761,1.266,21.095,0,24.57,0,24.57,3.605.836,18.637-.749c2.134-.224,4.86-1.573,4.56-9.888-.316-8.33-.608-15.035-.829-19.778-.557-11.537,5.852-13.662,1.216-15.075Z" transform="translate(-10339.396 -5985.2)" fill="#233377"/>
      <path id="Path_3114" data-name="Path 3114" d="M9349.447,6233.22c-1.5-10.038-3.3-20.143-3.3-20.143s14.619-6.968,16.457-6.968,4.759,2.618,7.521,4.283c0,0,1.273,9.251,1.954,17.737.722,8.851,1.954,28.708,1.954,28.708s-20.708,3.891-21.26-.3c0,0-.853-1.891.8-12.678C9353.774,6242.54,9349.5,6234.549,9349.447,6233.22Z" transform="translate(-9177.356 -6094.027)" fill="#1d1d56"/>
      <path id="Path_3115" data-name="Path 3115" d="M10226.54,5706.491c-.12,3.586,2,9.764,1.064,11.26-3.3,5.288-14.13,3.15-15.344-1.184-.393-1.4.04-.108,1.621-10.4C10214.094,5704.8,10226.54,5706.491,10226.54,5706.491Z" transform="translate(-10027.694 -5602.588)" fill="#eac4b2"/>
      <path id="Path_3116" data-name="Path 3116" d="M10179.637,5669.137c-.377-1.408.528-3.441,1.424-10.788.169-1.38,13.49-.223,13.49-.223a38.266,38.266,0,0,0,.224,4.423,36.926,36.926,0,0,1-6,4.943c-1.254.56-.313,5.812-.145,6.313C10184.352,5674.306,10180.129,5671.051,10179.637,5669.137Z" transform="translate(-9995.706 -5555.495)" fill="#d19d90"/>
      <path id="Path_3117" data-name="Path 3117" d="M10076.866,4681.354c.168,7.3,5.561,12.569,10.108,12.265,3.471-.229,8.981-5.172,8.818-12.465s2.39-13.674-9.232-13.959C10075.2,4666.915,10076.7,4674.052,10076.866,4681.354Z" transform="translate(-9894.727 -4582.898)" fill="#eac4b2"/>
      <path id="Path_3118" data-name="Path 3118" d="M10019.3,5224.229c1.133.027,2.832,1.064,1.51,4.855s-2.723,1.733-2.723,1.733Zm-18.02.213c-1.121-.025-2.84.972-1.613,4.795s2.682,1.833,2.682,1.833Z" transform="translate(-9818.662 -5129.88)" fill="#eac4b2"/>
      <path id="Path_3119" data-name="Path 3119" d="M9986.213,4691.12c-1.1.185-3.506,1.3-3.759,2.981-.384,2.378.845,7.6.845,7.6l1.766,1.336s-.985-5.6.928-7.813a6.446,6.446,0,0,1,3.039-1.461l-2.818-2.646Z" transform="translate(-9802.098 -4606.398)"/>
      <path id="Path_3120" data-name="Path 3120" d="M10168.9,4501.361c1.582,1.817,1.457,3.254,4.6,2.942s6.009-.292,6.98.063a3.487,3.487,0,0,1,2.338,2.226l.644-2.23a9.363,9.363,0,0,1,.922,2.4c.291,1.3.585,6.2.585,6.2l2-1.91s1.229-7.27-1-9.435-3.462-1.562-3.462-1.562-.817-2.974-6.657-2.182S10168.9,4501.361,10168.9,4501.361Z" transform="translate(-9985.251 -4416.515)" fill="#2b2b2b"/>
      <path id="Path_3121" data-name="Path 3121" d="M8865.629,6118.8c-2.7.6-4.94,2.688-6.737,11.978-1.693,8.746-2.1,13.337-2.1,13.337l13.486,6.668s.151-4.647.151-9.443S8865.629,6118.8,8865.629,6118.8Zm14.467-8.7-7.545,6.389,10.764,3.576-.9,2.4,7.937,4.155s-4.938-7.305-7.04-10A22.936,22.936,0,0,1,8880.1,6110.1Z" transform="translate(-8696.837 -5999.751)" fill="#233377"/>
      <path id="Path_3122" data-name="Path 3122" d="M10742.678,6055.39l9.344,5.607-10.268,5.557,1.082,2.322-5.865,4.611s2.639-7.517,4.52-10.372S10742.678,6055.39,10742.678,6055.39Z" transform="translate(-10543.062 -5946.03)" fill="#1d1d56"/>
      <path id="Path_3123" data-name="Path 3123" d="M9287.289,6227.483a20.66,20.66,0,1,0,20.668-20.66A20.7,20.7,0,0,0,9287.289,6227.483Zm-4.719,0a25.38,25.38,0,1,1,25.387,25.373A25.386,25.386,0,0,1,9282.57,6227.483Z" transform="translate(-9114.928 -6090.09)"/>
      <path id="Path_3124" data-name="Path 3124" d="M9052.331,6645.632c.315-.632.26-1.577-.481-1.7-.176-.032.6-1.209-.517-1.545-.4-.116-.084-.329-.07-.585.031-.865-.43-1.252-2.119-.46s-3.331,2.114-4.062,1.742,2.477-2.51,3.085-3.062c.607-.569-1.77-.4-3.295.152s-2.942,2.166-4.347,3.659a33.259,33.259,0,0,1-4.455,3.506l4.688,3.59c1.624-.409,6.592-.312,7.92-.5s2.106-1.629,3.828-3.462C9052.69,6646.6,9053.486,6645.868,9052.331,6645.632Zm38.352-2.546c-1.3-1.577-2.613-3.278-4.1-3.93s-3.849-.972-3.275-.368,3.631,2.925,2.881,3.258-2.31-1.105-3.942-2-2.125-.548-2.141.324c0,.257.288.485-.113.577-1.132.264-.437,1.488-.616,1.508-.748.077-.863,1.009-.592,1.662-1.17.168-.421.945-.261,1.321,1.593,1.941,2.266,3.422,3.591,3.7s6.276.5,7.874,1.014l4.91-3.275A32.94,32.94,0,0,1,9090.683,6643.086Z" transform="translate(-8872.879 -6518.577)" fill="#ddac9e"/>
      <path id="Path_3125" data-name="Path 3125" d="M5886.13,3330.353c.565-3.126,3.96-8.338,11.875-9.643v3.39s-7.069,1.821-8.2,7.037c-2.545,1.817-3.675-.785-3.675-.785Zm90.1,0c-.564-3.126-3.955-8.338-11.872-9.643v3.39s7.064,1.821,8.2,7.037c2.545,1.817,3.674-.785,3.674-.785Z" transform="translate(-5779.827 -3260.738)" fill="#2b2323"/>
      <path id="Path_3126" data-name="Path 3126" d="M6529.394,2535.826c-1.627-9.912-4.9-18.566-15.181-18.566h-39.047c-11.469,0-14.041,8.654-15.807,18.561,7.646-1.289,20.476-2.141,35.012-2.141S6521.748,2534.537,6529.394,2535.826Z" transform="translate(-6342.704 -2471.798)"/>
      <path id="Path_3127" data-name="Path 3127" d="M6812.667,2581.551c-1.473-9.091-4.431-14.651-12.741-14.651h-33.417c-9.266,0-11.741,5.56-13.258,14.651a312.833,312.833,0,0,1,59.417,0Z" transform="translate(-6631.286 -2520.542)" fill="#fcb910"/>
      <path id="Path_3128" data-name="Path 3128" d="M7499.455,2719.689h-2.525v-1.629h7.582v1.629h-2.527v5.728h-2.53Z" transform="translate(-7361.536 -2668.972)"/>
      <path id="Path_3129" data-name="Path 3129" d="M7979.451,2722.347l-.163-.508c-.232-.7-.469-1.6-.7-2.33h-.057c-.205.744-.441,1.63-.678,2.33l-.16.508Zm.457,1.509h-2.674l-.469,1.561h-2.586l2.905-7.357h3.059l2.91,7.357h-2.678Zm7-2.222-2.437-3.574h2.823l.647,1.2c.2.337.412.744.676,1.217h.058c.2-.473.412-.881.587-1.217l.561-1.2h2.7l-2.437,3.666,2.581,3.691h-2.817l-.764-1.313c-.233-.388-.445-.773-.673-1.221h-.061c-.208.448-.412.833-.62,1.221l-.7,1.313h-2.7Z" transform="translate(-7830.166 -2668.972)"/>
      <path id="Path_3130" data-name="Path 3130" d="M9143.16,2725.417h2.525v-7.357h-2.525Z" transform="translate(-8978.035 -2668.972)"/>
      <path id="Path_3131" data-name="Path 3131" d="M1115.215,6228.456l10.291-1.725c5.117-.853,9.786,1.905,10.062,6.284a4.518,4.518,0,0,0,2.023,2.675l5.662,1.236a3.2,3.2,0,0,1,2.39,3.792c-.354,1.724-2.437,4.189-4.117,3.818l-8.106-1.764c-1.866,2.136-4.577,2.068-7.914,1.844l-10.291-.709a6.354,6.354,0,0,1-6.065-6.224v-2.425a7.168,7.168,0,0,1,6.065-6.8Z" transform="translate(-1089.119 -6114.125)"/>
      <path id="Path_3132" data-name="Path 3132" d="M12324.006,10417.8c0,12.753-7.979,17.152-17.825,17.152h-5.2c-9.848,0-17.825-4.4-17.825-17.152v-28.073c0-12.752,7.978-23.092,17.825-23.092h5.2c9.847,0,17.825,10.34,17.825,23.092Z" transform="translate(-12061.326 -10179.417)" fill="#2b2b2b"/>
      <path id="Path_3133" data-name="Path 3133" d="M2167.691,10417.8c0,12.753-7.977,17.152-17.82,17.152h-5.2c-9.848,0-17.823-4.4-17.823-17.152v-28.073c0-12.752,7.974-23.092,17.823-23.092h5.2c9.843,0,17.82,10.34,17.82,23.092Z" transform="translate(-2088.439 -10179.417)"/>
      <path id="Path_3134" data-name="Path 3134" d="M3481.159,4152.279c5.311-13.417,13.389-40.441,19.2-42.708,14.795-5.8,57.231-8.871,67.643-9.342h4.1c10.392.472,52.11,3.547,66.9,9.342,5.816,2.266,13.9,29.25,19.206,42.676-.272-.033-.548-.06-.829-.092-5.3-.749-11.564-1.325-18.505-1.754-1.577-3.186-3.106-5.544-4.04-5.544a.5.5,0,0,0-.084,0,3.021,3.021,0,0,0-1.449-.765c-1.341-.412-3.818-1.441-6.632-2.638l.58-.312-9.343-5.607s.064.443.1,1.145c-.228-1.265-.5-2.626-.681-3.906-.016-.225-.04-.49-.064-.773a13.419,13.419,0,0,0,1.81-4.443,3.776,3.776,0,0,0,1.369-2.178c.96-2.758.324-4.055-.528-4.571l.1-.093s1.229-7.27-1-9.434c-1.426-1.394-2.442-1.641-2.991-1.641a1.143,1.143,0,0,0-.472.08s-.637-2.314-4.8-2.314a14.017,14.017,0,0,0-1.861.132c-5.625.77-6.853,3.279-6.94,3.471-1.2.356-3.078,1.4-3.3,2.869-.353,2.167.637,6.7.816,7.482-.587.664-.88,1.934-.164,4.171.528,1.63,1.088,2.206,1.565,2.33a13.906,13.906,0,0,0,2.27,4.871c-.44,2.819-.812,4.464-.949,5.581-.419-1.053-.636-1.79-.636-1.79l-5.32,4.5c-4.419,1.945-9.146,4.2-9.146,4.2h0c-1.677.377-3.178,1.322-4.5,4.212-4.308.053-8.619.124-12.9.212-5.536-.117-11.129-.167-16.7-.167-27.854,0-55.124,1.332-71.819,2.793Zm5.547-4.231h.007c.279-.023.573-.047.883-.076,15.308-1.233,64.125-2.979,91.21-3h.509c2.177,0,4.211.013,6.065.037,5.087-10.457,8.481-27.708,14.327-38.452h0c-2.266-.152-4.268-.292-6.082-.42-6.809-.473-10.919-.772-15.927-1.017-4.216-.2-9.059-.372-16.673-.577h0c-8.546.392-46.432,2.914-58.564,7.665-4.77,1.857-11.394,24.843-15.754,35.843Z" transform="translate(-3418.289 -4026.179)" fill="#fff"/>
      <path id="Path_3135" data-name="Path 3135" d="M11950.447,6576.873q-1.56-.094-3.171-.183c-.547-.674-1.1-1.345-1.676-1.93.757-1.737,1.308-2.73.723-3.426a.452.452,0,0,1,.084-.005C11947.341,6571.329,11948.87,6573.688,11950.447,6576.873Z" transform="translate(-11729.863 -6452.651)" fill="#475b81"/>
      <path id="Path_3136" data-name="Path 3136" d="M10701.43,6391.45q-3.625-.118-7.389-.2l.668-.524-1.08-2.322,3.25-1.762a20.611,20.611,0,0,1,5.228,3.591.35.35,0,0,0-.056.016C10701.275,6390.43,10701.358,6391.067,10701.43,6391.45Zm-11.013-.271c-.615-.008-1.229-.02-1.849-.028-.235-2.025-.451-3.759-.608-4.983h.064a9.692,9.692,0,0,0,4.543-1.03c.2.045.4.093.6.145A44.917,44.917,0,0,0,10690.417,6391.178Zm20.256-1.188a6.771,6.771,0,0,0-2.033-1.53,9.721,9.721,0,0,0-2.245-.637,25.6,25.6,0,0,0-4.6-3.838l1.524-.825c2.814,1.2,5.292,2.227,6.633,2.638a3.024,3.024,0,0,1,1.449.765c.585.7.032,1.689-.725,3.426Z" transform="translate(-10494.937 -6267.881)" fill="#4c6b9a"/>
      <path id="Path_3137" data-name="Path 3137" d="M9371.032,6367.9l-2.6-.036c-1.3-1.89-2.86-4.111-3.982-5.613.293-.088.585-.167.88-.244a9.611,9.611,0,0,0,4.1.985,7.678,7.678,0,0,0,.9-.052.13.13,0,0,1-.009-.028c.032,0,.067,0,.1,0C9370.58,6364.14,9370.8,6365.874,9371.032,6367.9Zm-7.138-.081q-3.608-.023-7.276-.023h-.833a1.464,1.464,0,0,0-.028-.309,20.673,20.673,0,0,1,4.849-3.63l3.271,1.085-.9,2.4Zm-16.667-.163c-.6-2.371-1.037-3.976-1.037-3.976h0s4.727-2.253,9.146-4.2l-2.225,1.885,1.769.588a25.461,25.461,0,0,0-4.02,3.891,9.115,9.115,0,0,0-1.469.381A6.923,6.923,0,0,0,9347.228,6367.655Z" transform="translate(-9177.398 -6244.629)" fill="#475b81"/>
      <path id="Path_3138" data-name="Path 3138" d="M10666.982,5914.159h-.064c-.037,0-.072,0-.105,0a14.584,14.584,0,0,1-.283-1.545c.129,0,.26,0,.393,0a20.745,20.745,0,0,1,4.6.524A9.692,9.692,0,0,1,10666.982,5914.159Zm6.6-5.392a25.223,25.223,0,0,0-6.639-.885l.027-.012a37.081,37.081,0,0,0,6-4.943c0-.117-.016-.273-.033-.457.182,1.28.453,2.642.682,3.907A17.925,17.925,0,0,1,10673.578,5908.767Z" transform="translate(-10473.893 -5795.873)" fill="#eed4c6"/>
      <path id="Path_3139" data-name="Path 3139" d="M10190.514,5872.227a9.607,9.607,0,0,1-4.1-.985,20.928,20.928,0,0,1,4.707-.641,13.911,13.911,0,0,0,.284,1.545.168.168,0,0,0,.01.028A7.463,7.463,0,0,1,10190.514,5872.227Zm-7.55-4.876c-.224-.48-.421-.937-.585-1.349.136-1.117.509-2.762.949-5.581,1.917,2.6,4.57,4.176,7.029,4.18.128,0,.252-.008.377-.016,2.057-.136,4.838-1.933,6.724-4.9.024.284.049.548.064.773.016.184.028.339.032.456a37.07,37.07,0,0,1-6,4.944l-.028.012h-.016a25.35,25.35,0,0,0-8.552,1.477Z" transform="translate(-9998.485 -5753.864)" fill="#dab8ad"/>
      <path id="Path_3140" data-name="Path 3140" d="M10118.619,4871.683c-2.457,0-5.112-1.577-7.029-4.18a13.877,13.877,0,0,1-2.27-4.871.929.929,0,0,0,.209.024,1.285,1.285,0,0,0,.907-.52l-.731-4.556.008.008s-.984-5.6.928-7.813a5.041,5.041,0,0,1,2.183-1.233,3.435,3.435,0,0,0,1.377.236c.24,0,.5-.016.8-.043,1.461-.148,2.865-.224,4.052-.224a10.184,10.184,0,0,1,2.929.289,3.483,3.483,0,0,1,2.338,2.225l.646-2.23a9.423,9.423,0,0,1,.921,2.4c.291,1.305.584,6.2.584,6.2l.653-.621-.941,5.107a1.3,1.3,0,0,0,.928.557.89.89,0,0,0,.425-.112,13.408,13.408,0,0,1-1.81,4.443c-1.885,2.962-4.667,4.759-6.725,4.9C10118.871,4871.675,10118.748,4871.683,10118.619,4871.683Z" transform="translate(-9926.747 -4760.947)" fill="#eed4c6"/>
      <path id="Path_3141" data-name="Path 3141" d="M10019,5246.8a1.305,1.305,0,0,1-.929-.557l.941-5.107,1.252-1.2c.853.517,1.489,1.814.528,4.572-.468,1.344-.948,1.953-1.369,2.177A.9.9,0,0,1,10019,5246.8Zm-17.576.216a.972.972,0,0,1-.208-.024c-.478-.124-1.037-.7-1.566-2.33-.716-2.238-.423-3.507.164-4.171.018.08.028.12.028.12l1.758,1.329.731,4.555A1.287,1.287,0,0,1,10001.42,5247.017Z" transform="translate(-9818.639 -5145.306)" fill="#eed4c6"/>
      <path id="Path_3142" data-name="Path 3142" d="M9985.006,4709.159l-.008-.008-1.757-1.328s-.013-.041-.029-.121c-.18-.785-1.169-5.316-.815-7.482.22-1.473,2.1-2.514,3.3-2.87a.033.033,0,0,0,0,.012c1.076,1.232,1.362,2.3,2.426,2.75a5.043,5.043,0,0,0-2.182,1.233C9984.021,4703.563,9985.006,4709.159,9985.006,4709.159Z" transform="translate(-9802.04 -4612.516)" fill="#2f4642"/>
      <path id="Path_3143" data-name="Path 3143" d="M10184.939,4513.08s-.293-4.9-.585-6.2a9.382,9.382,0,0,0-.921-2.4l-.645,2.229a3.487,3.487,0,0,0-2.338-2.225,10.209,10.209,0,0,0-2.93-.288c-1.186,0-2.591.076-4.051.224-.293.027-.557.043-.8.043a3.426,3.426,0,0,1-1.377-.236c-1.064-.451-1.35-1.517-2.427-2.75a.026.026,0,0,1,0-.012c.088-.192,1.315-2.7,6.94-3.471a14.171,14.171,0,0,1,1.861-.131c4.159,0,4.8,2.313,4.8,2.313a1.146,1.146,0,0,1,.472-.08c.549,0,1.565.248,2.99,1.641,2.234,2.165,1.006,9.435,1.006,9.435l-.1.092-1.252,1.2-.653.621Z" transform="translate(-9985.222 -4416.629)" fill="#536561"/>
      <path id="Path_3144" data-name="Path 3144" d="M9096.79,6123.014c1.325-2.89,2.826-3.835,4.5-4.212h0s.434,1.605,1.038,3.976c-.064.059-.129.12-.2.18C9100.357,6122.973,9098.572,6122.99,9096.79,6123.014Zm26.743-.028q-2.25-.024-4.535-.044l-.915-.476.9-2.4-3.271-1.085a20.467,20.467,0,0,1,3.843-1.606C9120.672,6118.875,9122.229,6121.1,9123.533,6122.985Zm-13.549-5.909-1.769-.589,2.225-1.884,5.319-4.5s.217.737.637,1.79c.164.413.36.87.584,1.349A25.332,25.332,0,0,0,9109.984,6117.077Z" transform="translate(-8932.502 -5999.751)" fill="#4c6b9a"/>
      <path id="Path_3145" data-name="Path 3145" d="M10827.713,6069.409c-1.2-.028-2.405-.048-3.623-.073a45.061,45.061,0,0,1,2.745-5.9,20.708,20.708,0,0,1,3.716,1.36l-3.25,1.762,1.081,2.321Zm7.75-7.266a25.341,25.341,0,0,0-7.171-3.21,18.275,18.275,0,0,0,.034-2.389c-.036-.7-.1-1.145-.1-1.145l9.344,5.607-.58.313-1.524.825Z" transform="translate(-10628.607 -5946.04)" fill="#475b81"/>
      <path id="Path_3146" data-name="Path 3146" d="M9623.455,6213.618c-.812,0-2.221-1.24-3.693-2.05a3.41,3.41,0,0,0-1.478-.527c-.479,0-.652.336-.664.853,0,.243.261.461-.057.561a20.594,20.594,0,0,0-8.942-4.952c-.2-.052-.4-.1-.6-.144a20.659,20.659,0,0,0-4.6-.524l-.393,0a20.937,20.937,0,0,0-4.708.642c-.3.076-.587.155-.88.244a20.4,20.4,0,0,0-3.842,1.605,20.653,20.653,0,0,0-4.849,3.63.6.6,0,0,0-.664-.524,3.673,3.673,0,0,0-1.431.433c-.267.125-.535.265-.8.408-.793,0-1.589,0-2.387.009.813-.689,1.881-1.441,2.211-1.738.259-.243-.033-.352-.569-.352a7.84,7.84,0,0,0-1.257.124,25.344,25.344,0,0,1,19.566-9.207h.017a25.338,25.338,0,0,1,13.81,4.095,25.569,25.569,0,0,1,4.6,3.839,4.644,4.644,0,0,0-.647-.056c-.4,0-.594.1-.381.325.569.592,3.631,2.925,2.882,3.257A.622.622,0,0,1,9623.455,6213.618Z" transform="translate(-9410.394 -6090.1)" fill="#2f4642"/>
      <path id="Path_3147" data-name="Path 3147" d="M9392.72,6641.627c.067-.061.131-.121.2-.18a6.929,6.929,0,0,1,2.166-1.43,9.061,9.061,0,0,1,1.469-.38,7.723,7.723,0,0,1,1.257-.124c.536,0,.828.108.568.351-.329.3-1.4,1.049-2.21,1.738Zm5.832-.032c.265-.144.532-.283.8-.408a3.674,3.674,0,0,1,1.43-.433.6.6,0,0,1,.665.524,1.534,1.534,0,0,1,.027.309C9400.5,6641.587,9399.528,6641.592,9398.552,6641.6Zm41.95.865c-3.494-.188-7.149-.344-10.92-.469-.072-.384-.156-1.02.621-1.2a.42.42,0,0,1,.055-.016c.317-.1.053-.316.057-.56.013-.517.185-.853.665-.853a3.414,3.414,0,0,1,1.478.527c1.472.809,2.881,2.049,3.694,2.049a.638.638,0,0,0,.248-.047c.749-.333-2.313-2.666-2.883-3.258-.212-.225-.019-.324.381-.324a4.66,4.66,0,0,1,.649.055,9.707,9.707,0,0,1,2.245.637,6.783,6.783,0,0,1,2.033,1.53C9439.4,6641.115,9439.954,6641.787,9440.5,6642.46Z" transform="translate(-9223.088 -6518.422)" fill="#e3c3b7"/>
      <path id="Path_3148" data-name="Path 3148" d="M1699.748,3714.586c-33.222-.7-68.484.872-88.516,2.626,5.311-13.418,13.389-40.441,19.2-42.707,14.8-5.8,57.231-8.871,67.643-9.343h4.1c10.391.472,52.11,3.547,66.9,9.343,5.82,2.266,13.91,29.289,19.218,42.707C1768.037,3714.217,1732.991,3713.889,1699.748,3714.586Zm109.48,10.659c-1.261-.993-1.309-2.782-8.426-4.827-5.44-13.65-16.82-47.9-24.314-51.286-21.451-9.707-62.5-11.436-74.094-11.973h-4.559c-11.6.537-51.747,1.137-74.806,11.973-7.445,3.5-18.866,37.635-24.312,51.286-7.132,2.045-7.177,3.834-8.427,4.827-4.736,3.739-9.459,8.154-12.821,37.784-1.775,15.6.765,32.756.765,32.756s8.292,20.418,18.746,20.707h205.551c1.941,0,5.292-3.254,5.292-3.254s10.719-32.64,10.719-50.208C1818.542,3736.089,1813.959,3728.984,1809.227,3725.245Z" transform="translate(-1548.361 -3591.112)" fill="#f79406"/>
      <path id="Path_3149" data-name="Path 3149" d="M13563.209,6164.719,13552.9,6163c-5.1-.849-9.771,1.918-10.056,6.289a4.488,4.488,0,0,1-2.018,2.678l-5.66,1.233a3.211,3.211,0,0,0-2.4,3.79c.356,1.729,3.109,4.146,4.767,3.787l8.11-1.77c1.869,2.129,3.926,2.1,7.253,1.878l10.308-.71a6.36,6.36,0,0,0,6.063-6.221v-2.425A7.188,7.188,0,0,0,13563.209,6164.719Z" transform="translate(-13288.304 -6051.543)" fill="#2b2b2b"/>
      <path id="Path_3150" data-name="Path 3150" d="M8507.924,3816.224s14.623-7.482,16.087-15.219c2.229-11.844.079-26.219-.372-37.511-1.113-27.844-5.353-34.489-10.084-38.227-1.248-.993-1.3-2.783-8.437-4.827-5.428-13.65-16.784-47.947-24.3-51.285-23.985-10.653-62.489-11.437-74.1-11.973H8404.2v7.918h2.3c10.416.477,52.106,3.547,66.925,9.346,5.8,2.263,13.874,29.365,19.19,42.788-20.019-2.253-55.233-3.311-88.413-2.626v101.906h96.139c1.921,0,7.584-.289,7.584-.289Z" transform="translate(-8252.42 -3591.132)" fill="#fcb910"/>
      <path id="Path_3151" data-name="Path 3151" d="M1512.644,10648.56c0,6.556-12.925,11.872-19.622,11.872H1279.281c-6.7,0-20.6-5.316-20.6-11.872v-9.656c0-6.56-1.357-11.884,5.343-11.884H1507.3c6.7,0,5.343,5.324,5.343,11.884v9.656Z" transform="translate(-1235.834 -10435.096)" fill="#f79406"/>
      <path id="Path_3152" data-name="Path 3152" d="M1670.7,10835.8H1433.99c-6.521,0-5.2.8-5.2,7.357v.736c5.137,4.645,18,3.627,23.254,3.627h200.607c5.251,0,18.109,1.018,23.248-3.631v-.732c0-6.561,1.317-7.355-5.2-7.355Z" transform="translate(-1402.876 -10640.104)" fill="#fcb910"/>
      <path id="Path_3153" data-name="Path 3153" d="M11610.781,8851.5c-.1,0-.192,0-.288,0l-32.456-.452c-8.554-.116-8.27-6.461-5.535-13.9,2.564-7.029,5.965-12.573,13.71-12.573h29.309a16.084,16.084,0,0,1,4.761.708c.02.008.035.012.056.021a4.8,4.8,0,0,0-1.7,2.233c-.109-.035-.221-.071-.339-.1a15.986,15.986,0,0,0-4.31-.568h-26.5c-7.008,0-10.071,4.482-12.4,10.167-2.478,6.024-2.73,11.163,5.008,11.256l29.35.369h.255a18.547,18.547,0,0,0,4.228-.493c.252-.056.493-.121.721-.188a3.923,3.923,0,0,0,1.633,2.678c-.264.089-.544.168-.836.244A18.234,18.234,0,0,1,11610.781,8851.5Z" transform="translate(-11361.827 -8665.197)" fill="#654a06"/>
      <path id="Path_3154" data-name="Path 3154" d="M11769.471,8961.954c-.705,5.052-.068,9.319-6.226,10.755a18.535,18.535,0,0,1-4.482.493l-29.35-.369c-7.738-.092-7.486-5.23-5.007-11.257,2.325-5.683,5.388-10.166,12.4-10.166h26.5a16.031,16.031,0,0,1,4.31.568C11772.557,8953.371,11770.118,8957.314,11769.471,8961.954Z" transform="translate(-11511.146 -8789.748)" fill="#d1d1d1"/>
      <path id="Path_3155" data-name="Path 3155" d="M14092.319,8851.409a5.218,5.218,0,0,1-2.94-.741c5.921-1.977,5.3-7.068,6.058-13.049.716-5.711,3.391-10.563-2-12.3a4.717,4.717,0,0,1,2.707-.729h3.605c3.394,0,5.412.978,5.412,3.807l1.476,18.878c0,4.251-4.51,3.923-9.165,4.027l-4.953.107Z" transform="translate(-13834.925 -8665.218)" fill="#654a06"/>
      <path id="Path_3156" data-name="Path 3156" d="M14000.522,8890.279a3.933,3.933,0,0,1-1.634-2.679c5.383-1.6,4.826-5.72,5.5-10.566.632-4.532,2.969-8.395-1.518-9.872a4.82,4.82,0,0,1,1.7-2.233c5.392,1.737,2.718,6.59,2,12.3-.752,5.98-.136,11.072-6.056,13.049Z" transform="translate(-13746.069 -8704.828)" fill="#281e02"/>
      <path id="Path_3157" data-name="Path 3157" d="M13992.264,9009.01a11.245,11.245,0,0,1,.24-4.367l3.066-13.79a13.613,13.613,0,0,1,.682-2.282c4.486,1.478,2.148,5.341,1.517,9.873C13997.092,9003.29,13997.648,9007.413,13992.264,9009.01Z" transform="translate(-13739.443 -8826.237)" fill="#545454"/>
      <path id="Path_3158" data-name="Path 3158" d="M14138.877,8951.43c0,3.539-2.846,3.688-7.312,3.775l-4.742.092c-4.533.082-4.713-2.609-3.783-6.213l2.381-11.732c.6-2.385,1.59-4.362,4.885-4.362h3.445c3.254,0,4.268,1.782,4.268,4.136Z" transform="translate(-13867.536 -8771.66)" fill="#d1d1d1"/>
      <path id="Path_3159" data-name="Path 3159" d="M2155.936,8837.659c.79,6.252.079,11.528,6.9,13.293a18.411,18.411,0,0,0,4.949.613l32.45-.457c8.561-.12,8.276-6.464,5.547-13.905-2.578-7.029-3.426-12.573-11.177-12.573h-31.845a16.1,16.1,0,0,0-4.764.708C2152.523,8827.063,2155.212,8831.931,2155.936,8837.659Z" transform="translate(-2115.723 -8665.257)" fill="#2b2b2b"/>
      <path id="Path_3160" data-name="Path 3160" d="M2283.725,8961.954c.708,5.052.075,9.322,6.237,10.755a18.393,18.393,0,0,0,4.479.493l29.338-.369c7.743-.092,7.488-5.228,5.014-11.251-2.325-5.688-2.9-10.172-9.906-10.172h-29a16.019,16.019,0,0,0-4.3.568c-4.943,1.393-2.507,5.336-1.857,9.976Z" transform="translate(-2241.327 -8789.748)" fill="#b2b5b7"/>
      <path id="Path_3161" data-name="Path 3161" d="M1606.38,8847.325c0,4.256,4.511,3.923,9.168,4.027l4.953.107c4.731.108,5.5-3.446,4.525-7.786l-3.059-13.789c-.633-2.866-1.661-5.244-5.1-5.244h-3.6c-3.391,0-5.4.978-5.4,3.808Z" transform="translate(-1577.369 -8665.268)" fill="#2b2b2b"/>
      <path id="Path_3162" data-name="Path 3162" d="M1626.85,8951.43c0,3.539,2.849,3.691,7.309,3.775l4.749.092c4.533.082,4.71-2.609,3.783-6.213l-2.385-11.732c-.6-2.385-1.591-4.362-4.874-4.362h-3.454c-3.251,0-4.267,1.782-4.267,4.136l-.86,14.3Z" transform="translate(-1597.469 -8771.66)" fill="#b2b5b7"/>
      <path id="Path_3163" data-name="Path 3163" d="M3434.511,7341.48c-8.482-2.923-13.48-19.791-16.875-28.081-1.547-3.781-19.585-19.95-24.785-24.129l-3.722.235c4.521,3.014,22.625,21.532,24.359,25.779,3.394,8.291,5.752,25.63,11.782,29.4,19.6,1.513,54.662.76,54.662.76l.187-2.641C3471.191,7343.149,3449.689,7342.649,3434.511,7341.48Z" transform="translate(-3327.922 -7157.626)" fill="#fcb910"/>
      <path id="Path_3164" data-name="Path 3164" d="M8383.12,7268.556l.185,2.642s29.882.752,49.485-.76c6.03-3.767,8.384-21.108,11.779-29.4,1.732-4.248,19.454-24.13,23.981-27.144l-3.723-.236c-5.2,4.179-22.86,21.711-24.405,25.494-3.393,8.29-8.391,25.158-16.874,28.082C8408.371,7268.4,8392.051,7268.9,8383.12,7268.556Z" transform="translate(-8231.722 -7083.382)" fill="#f79406"/>
      <path id="Path_3165" data-name="Path 3165" d="M5155.592,8638.886c-2.528-7.337-1.722-11.3,4.493-11.3H5261.8c7.4.308,6.229,4.927,4.214,11.151l-2.021,6.265c-2.162,6.7-7.074,12.365-13.866,12.365l-80.518-.032c-6.771,0-11.148-5.74-12.675-12.528l-1.343-5.925Z" transform="translate(-5061.166 -8471.775)"/>
      <path id="Path_3166" data-name="Path 3166" d="M5561.643,9015.428a1.659,1.659,0,0,1-1.541,1.749h-99.185a1.769,1.769,0,0,1,0-3.507H5560.1A1.656,1.656,0,0,1,5561.643,9015.428Zm-2.418,6.563a1.633,1.633,0,0,1-1.476,1.753h-94.477a1.78,1.78,0,0,1,0-3.506h94.477A1.632,1.632,0,0,1,5559.224,9021.991Zm-1.816,6.134a1.614,1.614,0,0,1-1.422,1.748h-90.951a1.791,1.791,0,0,1,0-3.5h90.951A1.612,1.612,0,0,1,5557.408,9028.125Z" transform="translate(-5360.783 -8850.884)" fill="#8fa4bc"/>
      <path id="Path_3167" data-name="Path 3167" d="M3788.357,4382.477h-.007c4.36-11,10.985-33.985,15.754-35.843,12.132-4.75,50.018-7.273,58.565-7.665,7.615.2,12.457.373,16.673.577l-74.121,6.9-15.981,35.95C3788.93,4382.429,3788.636,4382.453,3788.357,4382.477Zm98.666-3.042c-1.854-.024-3.887-.036-6.065-.036h-.509l14.819-38.836c1.813.128,3.815.268,6.081.42C3895.505,4351.727,3892.111,4368.979,3887.023,4379.435Z" transform="translate(-3719.933 -4260.608)" fill-rule="evenodd" fill="url(#linear-gradient)"/>
      <g id="Group_10104" data-name="Group 10104" transform="translate(69.315 78.942)" clip-path="url(#clip-path-2)">
        <rect id="Rectangle_2379" data-name="Rectangle 2379" width="111.761" height="48.515" transform="translate(-2.249 -2.874)" fill="none"/>
      </g>
    </g>
  </g>
</svg>
