<svg xmlns="http://www.w3.org/2000/svg" width="199.322" height="40.416" viewBox="0 0 199.322 40.416">
    <defs>
        <clipPath id="clip-path">
            <rect id="Rectangle_2371"  width="199.322" height="40.416" fill="#fff"/>
        </clipPath>
    </defs>
    <g id="Group_9972"  clip-path="url(#clip-path)">
        <path id="Path_2924" d="M33.692,20.22c0,11.178-8.489,19.556-19.741,19.556H0V.664H13.951C25.2.664,33.692,8.991,33.692,20.22Z" transform="translate(0 0.007)" fill="#003048"/>
        <path id="Path_2925" d="M81.261,39.776,93.724,19.491,81.867.664h36.215L106,20.1,118.41,39.776Z" transform="translate(0.844 0.007)" fill="#003048"/>
        <path id="Path_2926" d="M154.524,16.251h-7.354V39.776H129.2V16.251h-7.3V.664h32.626Z" transform="translate(1.266 0.007)" fill="#003048"/>
        <path id="Path_2927" d="M163.178,39.776V.664h19.117c8.268,0,13.182,4.972,13.182,12.737,0,6.372-3.254,10.283-8.659,11.676l10.81,14.692H163.178Z" transform="translate(1.695 0.007)" fill="#003048"/>
        <path id="Path_2928" d="M58.938,20.208l14.1,14.29a19.819,19.819,0,0,1-14.1,5.918A20.21,20.21,0,1,1,78.881,20.208Z" transform="translate(0.405)" fill="#003048"/>
    </g>
</svg>
