<svg xmlns="http://www.w3.org/2000/svg" xmlns:xlink="http://www.w3.org/1999/xlink" width="430" height="166" viewBox="0 0 430 166">
  <defs>
    <clipPath id="clip-path">
      <rect y="128" width="430" height="166" fill="none"/>
    </clipPath>
    <linearGradient id="linear-gradient" x1="0.561" y1="2.262" x2="0.861" y2="0.346" gradientUnits="objectBoundingBox">
      <stop offset="0" stop-color="#fff"/>
      <stop offset="0.71" stop-color="#b3a6a1"/>
      <stop offset="1" stop-color="#b3a6a1"/>
    </linearGradient>
    <linearGradient id="linear-gradient-2" x1="-3.576" y1="3.1" x2="-2.2" y2="-1.443" gradientUnits="objectBoundingBox">
      <stop offset="0" stop-color="#5e2014"/>
      <stop offset="0.71" stop-color="#42150d"/>
      <stop offset="1" stop-color="#42150d"/>
    </linearGradient>
    <linearGradient id="linear-gradient-3" x1="0.335" y1="1.158" x2="0.557" y2="0.092" gradientUnits="objectBoundingBox">
      <stop offset="0" stop-color="#eac4b2"/>
      <stop offset="0.71" stop-color="#a48070"/>
      <stop offset="1" stop-color="#a48070"/>
    </linearGradient>
    <linearGradient id="linear-gradient-4" x1="0.902" y1="0.919" x2="1.513" y2="-0.368" gradientUnits="objectBoundingBox">
      <stop offset="0" stop-color="#2b55b2"/>
      <stop offset="0.71" stop-color="#1e3770"/>
      <stop offset="1" stop-color="#1e3770"/>
    </linearGradient>
    <linearGradient id="linear-gradient-5" x1="-0.044" y1="1.048" x2="1.126" y2="-2.452" gradientUnits="objectBoundingBox">
      <stop offset="0" stop-color="#4686d3"/>
      <stop offset="0.71" stop-color="#315785"/>
      <stop offset="1" stop-color="#315785"/>
    </linearGradient>
  </defs>
  <g id="Scroll_Group_5" data-name="Scroll Group 5" transform="translate(0 -128)" clip-path="url(#clip-path)" style="isolation: isolate">
    <g id="Group_10103" data-name="Group 10103">
      <rect id="Rectangle_2377" data-name="Rectangle 2377" width="430" height="430" fill="none"/>
      <path id="Path_3022" data-name="Path 3022" d="M9205.52,7305.619s.725-4.71,1.45-3.443c1.066,1.864,2.958,9.087,2.353,13.675-.189,1.453,0,8.423-.361,14.853-.318,5.645-10.485-12.5-8.594-16.284C9200.841,7313.475,9205.52,7305.619,9205.52,7305.619Z" transform="translate(-8962.77 -7113.569)" fill="#92b8dd"/>
      <path id="Path_3023" data-name="Path 3023" d="M9375.912,7173.51l2.415,2.779-1.328,2.652-2.609-3.09Z" transform="translate(-9132.531 -6988.434)" fill="#6d9ad1"/>
      <path id="Path_3024" data-name="Path 3024" d="M9111.929,6813.01a18.877,18.877,0,0,1-4.022,7.916c-1.43,1.686,4.931,6.618,5.709,7.395s-.151-2.666.964-3.669a37.288,37.288,0,0,0,3.578-5.149Z" transform="translate(-8872.719 -6637.234)" fill="#d6a092"/>
      <path id="Path_3025" data-name="Path 3025" d="M9145.13,6500.6c-2.323-3.489-13.692-4.416-13.7,1.97-.01,11.644,7.506,12.52,7.506,12.52a9.72,9.72,0,0,0,4.4-.5c.558-.144,1.224-1.777,1.5-3.479.729-.28,1.588-.43,1.421-.955-.494-.667-.806-3.026-1.065-3.527-.025-2.611,1.037-4.386-.06-6.03Z" transform="translate(-8895.839 -6330.226)" fill="#d6a092"/>
      <path id="Path_3026" data-name="Path 3026" d="M9053.049,6425.667a6.8,6.8,0,0,1,5.621-2.945c2.947-.137,4,.409,6.039,2.317,1.038.963,1.113,3.165,1.113,3.165a5,5,0,0,0-1.834.069c-.687.227-1.672-.121-2.525,1.24a24.231,24.231,0,0,1-1.451,2.032s-4.668,5.585-4.67,6.571-2.541,1.053-2.541,1.053.5-1.612-1.443-5.788A6.173,6.173,0,0,1,9053.049,6425.667Z" transform="translate(-8817.138 -6256.996)"/>
      <path id="Path_3027" data-name="Path 3027" d="M9251.965,6429.38c.86-1.362,1.846-1.016,2.533-1.249s3.044.656,3.044.656,1.5-2.191.443-3.165a13.364,13.364,0,0,0-8.812-3.038,8.178,8.178,0,0,0-3.034.726c1.442.437,2.81,1.979,2.977,8.871a5.655,5.655,0,0,1,1.279.906,23.153,23.153,0,0,1,1.568-3.708Z" transform="translate(-9007.59 -6256.871)" fill="#232121"/>
      <path id="Path_3028" data-name="Path 3028" d="M9317.374,6742.145c-.561-.337-1.652-1.394-2.124-.705s-.563,3.62.763,4.238S9317.374,6742.145,9317.374,6742.145Z" transform="translate(-9074.608 -6567.289)" fill="#d6a092"/>
      <path id="Path_3029" data-name="Path 3029" d="M8729.719,7125.754c-.972-1.252-8.378-5.915-8.378-5.915s-.226.842-2.941,3.015a13.359,13.359,0,0,0-4.617,7.063c-.332,1.876.12,14.126-2.414,19.919a5.256,5.256,0,0,0,.6,5.438c.944.942,17.336,6.273,19.2,1.689,2.084-1.721,1.447-2.055,1.628-17.088C8732.834,7137.038,8730.354,7126.565,8729.719,7125.754Z" transform="translate(-8486.154 -6936.148)" fill="#6d9ad1"/>
      <path id="Path_3030" data-name="Path 3030" d="M8877.836,7053.04c.965,1.45,8.395,6.368,8.395,6.368l-3.531,4.529-6.251-8.245Zm-6.792,11.467c-.412,2.879-.059,12.589,2.6,15.73.559.664,9.963,5.766,16.539,1.873.845-.5,1.934-6.22.754-6.763,0,0-9.553-1.633-9.869-1.812-.633-.361-.645-10.748-2.354-12.136C8873.306,7057.014,8871.044,7064.507,8871.044,7064.507Z" transform="translate(-8642.031 -6871.072)" fill="#92b8dd"/>
      <path id="Path_3031" data-name="Path 3031" d="M9615.193,7888.63a4.664,4.664,0,0,1-2.861.75c-.236,0-.03,5.683.484,5.131.844-.9,4.362-2.062,4.6-2.7s-2.225-3.183-2.225-3.183Z" transform="translate(-9364.238 -7685.104)" fill="#eac6b5"/>
      <path id="Path_3032" data-name="Path 3032" d="M9707.95,7782.491a21.059,21.059,0,0,0,1.911-2.311c.361-.239,2.68.231,2.717.667.074.8-1.985.34-2.475.686A9.224,9.224,0,0,1,9707.95,7782.491Z" transform="translate(-9457.485 -7579.389)" fill="#d6a092"/>
      <path id="Path_3033" data-name="Path 3033" d="M9680.188,7802.974c.605-.183,3.06-.437,3.255.231.184.618-1.246.922-1.246.922l-.92.119s2.463-1.038,2.74-.017c.2.752-1.689,1.584-1.689,1.584s1.219-1.143,1.707-.445c.445.618-1.5,1.633-1.5,1.633s1.465-1.233,1.621-.569-.875,1.911-1.646,2.168c-.645.211-1.994,1.18-2.6.664L9678.1,7806C9678.156,7805.631,9679.551,7803.166,9680.188,7802.974Z" transform="translate(-9428.405 -7601.459)" fill="#eac6b5"/>
      <path id="Path_3034" data-name="Path 3034" d="M7323.705,8144.878c-.735,2.311,6.931,19.893,6.765,21.517-.289,2.91,1.061,6.7,2.624,9.286,1.006,1.658,8.171,2.355,8.139.5-.026-1.527-4.161-2.931-4.892-6.85a108.808,108.808,0,0,1-.541-19.925c.389-3.86-.961-8.212-2.445-9.782C7330.646,8136.749,7324.435,8142.57,7323.705,8144.878Z" transform="translate(-7134.706 -7928.861)" fill="#eac4b2"/>
      <path id="Path_3035" data-name="Path 3035" d="M7548.019,9306.352c-1.429,2.891,1.89,6.107,1.89,6.107a41.943,41.943,0,0,1,1.948,4.073l.841.021-1.377-3.486a33.487,33.487,0,0,0,3.841,4.027,5.632,5.632,0,0,0,6.081.221c.606-.412,2.027-1.311.989-2.667a21.6,21.6,0,0,0-3.318-2.8s-1.707,2.6-3.036,2.271-2.856-1.727-4.25-3.3-3.609-4.47-3.609-4.47Z" transform="translate(-7352.932 -9066.247)"/>
      <path id="Path_3036" data-name="Path 3036" d="M7125.895,7022.83c.689.436.689.994,1.389,3.371s4.052,9.643,3.636,11.461-7.409-.14-7.269-3.775S7125.895,7022.83,7125.895,7022.83Z" transform="translate(-6939.859 -6841.641)" fill="#2b55b2"/>
      <path id="Path_3037" data-name="Path 3037" d="M5452.883,8430.46l-6.126,30.63h-42.009l-7-29.653Z" transform="translate(-5258.488 -8212.955)"/>
      <path id="Path_3038" data-name="Path 3038" d="M4741.449,6813.932c6.695-3.83,13.835.6,16.81,2.51s9.552,23.922,13.271,34.45c-8.178,9.569-34.188,9.33-36.422,3.588s6.341-40.549,6.341-40.549Z" transform="translate(-4612.582 -6636.659)"/>
      <path id="Path_3039" data-name="Path 3039" d="M5257.969,8169c.287,3.188-4.732,6.237-11.194,6.8l-42.778,3.77c-6.471.569-11.937-1.553-12.22-4.74s4.733-6.229,11.2-6.8l42.778-3.767c6.466-.571,11.938,1.55,12.213,4.732Z" transform="translate(-5057.819 -7953.542)" fill="#2b2b2b"/>
      <path id="Path_3040" data-name="Path 3040" d="M1143.75,5946.683s-3.061-22.954-5.127-32.5c-.11-.538,22.812-.45,34.88,2.413,9.219,2.176,33.892,30.011,33.892,30.011Zm-68.106,53.189c0-3.5-1.356-20.028-8.093-29.316-4.422-6.095-14.219-12.031-15.095-18.159-.556-3.863,1.965-6.779,5.684-15.313,4.159-7.655,12.233-16.923,14.525-18.64,7.461-5.614,56.3-3.95,56.3-3.95l9.946,84.284s-46.645,1.095-63.271,1.095Zm249.007-18.079c-2.144-13.462-10.557-19.984-10.557-19.984-10.907-4.241-93.322-19.825-93.322-19.825l-39.861-31.674c-46.081-13.939-114.488-3.17-122.675.771-2.488,1.2-10.633,15.306-32.315,32.469-4.516,0-15.357,0-48.785.6,0,0-12.044-2.4-17.469,13.856-1.405,4.231-3.637,19.421-6.017,25.3-1.239,3.04-7.87,1.728-6.4,5.318,5.2,12.746,27.18,16.378,27.18,16.378s26.615.011,31.529.074a29.859,29.859,0,0,1-.372-4.628c0-16.332,13.242-27.758,29.566-27.758s28.246,11.426,28.246,27.758a29.979,29.979,0,0,1-.328,5.223c40.715-.146,126.812.011,170.064.3a22.4,22.4,0,0,1-.45-5.526c0-16.332,13.233-27.758,29.558-27.758s28.631,11.426,28.631,27.758a29.659,29.659,0,0,1-.759,6.647c16.312.022,23.741-.585,25.206-1.587,12.607-8.613,14.474-13.1,14.935-15.424.288-2.564-5.2-5.789-5.6-8.289Z" transform="translate(-922.603 -5751.08)" fill="#fcb910"/>
      <path id="Path_3041" data-name="Path 3041" d="M3263.31,8607.461a28.006,28.006,0,1,1,28.007,28.006A28,28,0,0,1,3263.31,8607.461Z" transform="translate(-3179.117 -8358.12)" fill="#232121"/>
      <path id="Path_3042" data-name="Path 3042" d="M3615.335,8947.485a16.14,16.14,0,1,0,16.144-16.137A16.164,16.164,0,0,0,3615.335,8947.485Zm-2.855,0a18.993,18.993,0,1,1,19,19A19.007,19.007,0,0,1,3612.48,8947.485Z" transform="translate(-3519.278 -8698.146)" fill="#898989"/>
      <path id="Path_3043" data-name="Path 3043" d="M3726.267,9029.051c-6.9-.414-12.006-1.941-12.006-3.774s5.111-3.35,12.01-3.763a17.529,17.529,0,0,0-2.3-5.548c-5.163,4.575-9.865,7.138-11.158,5.84s1.257-6,5.839-11.16a17.165,17.165,0,0,0-5.547-2.295c-.413,6.894-1.945,12.01-3.767,12.01s-3.356-5.116-3.773-12.01a17.3,17.3,0,0,0-5.535,2.295c4.575,5.163,7.114,9.862,5.832,11.16s-5.995-1.265-11.165-5.84a17.653,17.653,0,0,0-1.731,3.569,18.587,18.587,0,0,0-.565,1.979c6.9.413,12.023,1.938,12.023,3.763s-5.124,3.36-12.023,3.774a17.718,17.718,0,0,0,2.3,5.547c5.165-4.586,9.863-7.125,11.159-5.834s-1.256,6-5.838,11.16a17.077,17.077,0,0,0,3.574,1.735c.646.226,1.309.409,1.966.569.417-6.906,1.947-12.031,3.773-12.031s3.355,5.125,3.767,12.031a17.531,17.531,0,0,0,5.539-2.311c-4.574-5.154-7.118-9.867-5.831-11.154s6,1.248,11.163,5.835a17.671,17.671,0,0,0,1.738-3.575A16.507,16.507,0,0,0,3726.267,9029.051Z" transform="translate(-3597.136 -8775.936)" fill="#898989"/>
      <path id="Path_3044" data-name="Path 3044" d="M1487.212,7635.729h-.072a2.387,2.387,0,0,0-1.034.26c-1.257.628-2.412,3.337-3.386,6.6a21.306,21.306,0,0,1,4.7-6.853c-.069-.007-.14-.012-.208-.013Z" transform="translate(-1444.466 -7438.728)" fill="#e36e6e"/>
      <path id="Path_3045" data-name="Path 3045" d="M1376.788,7657.32H1365.72a121.773,121.773,0,0,1,3.018-14.258,21.306,21.306,0,0,1,4.7-6.853c1.809.2,3.62,2.529,4.1,6.878.6,5.418-.754,14.232-.754,14.232Z" transform="translate(-1330.484 -7439.196)" fill="#e25007"/>
      <path id="Path_3046" data-name="Path 3046" d="M1335.844,8395.065c0,1.12-1.355,2.028-3.011,2.028H1325c-1.667,0-3.014-.908-3.014-2.028s1.347-2.035,3.014-2.035h7.829C1334.489,8393.03,1335.844,8393.942,1335.844,8395.065Z" transform="translate(-1287.883 -8176.49)" fill="#e5e5e5"/>
      <path id="Path_3047" data-name="Path 3047" d="M1245.7,8570.8c-1.738-1.954-6.059-4.931-8.773-5.395h-56.169c14.451,1.638,27.383,13.483,27.383,19.758,0,.566-.015,1.156-.042,1.746h32.764c2.181-3.479,6.139-4.221,6.759-8.312C1247.806,8576.477,1247.582,8574.26,1245.7,8570.8Zm-71.561-5.395H1052.5l2.909,21.5h93.612v-1.746c0-7.222,10.666-19.294,26.325-19.758h5.415a27.8,27.8,0,0,0-6.62,0Zm-189.115,0H955.513a42.029,42.029,0,0,0-6.136,0h3.278c16.712-.134,22.585,12.057,26.2,19.758.245.522,2.153,1.156,2.135,1.746h10.584c-.216-1.584-.5-3.472-.884-5.7A46.57,46.57,0,0,0,985.027,8565.4Zm-123.24,4.236c-.131.788-.239,1.55-.326,2.279-.887,7.624,9.134,12.623,15.44,14.988h45.088c-.02-.59-.061-1.166-.061-1.746,0-6.5,9.9-18.583,27.45-19.758h-77.13c-3.309,1.672-10.214,2.729-10.462,4.236Z" transform="translate(-839.18 -8344.222)" fill="#fcc427"/>
      <path id="Path_3048" data-name="Path 3048" d="M1214.259,8858.026c-.064-1.188.07-4.518-2.637-4.985h-46.715c5.423,5.886,8.812,12.535,8.812,19.749,0,.58-.013,1.165-.036,1.748H1205.3c3.592-2.211,7.679-7.857,8.869-11.9A24.663,24.663,0,0,0,1214.259,8858.026Zm-194.211-4.985,1.927,19.288-63.052.438s-.219-2.843-1.75-11.813a47.858,47.858,0,0,0-2.052-7.913H937.358c6.02,6.186,9.267,12.535,9.267,19.75,0,.585-.034,1.164-.059,1.748H1114.6v-1.748a27.1,27.1,0,0,1,8.855-19.75H1020.048Zm-191.936,0a39.022,39.022,0,0,1-.751,4.235c-.131.785-.239,1.551-.326,2.278-.88,7.617,14.558,12.621,20.859,14.983h39.673c-.026-.583-.061-1.163-.061-1.748,0-7.215,3.775-14.167,8.894-19.75H828.112Z" transform="translate(-805.663 -8624.632)" fill="#f79406"/>
      <path id="Path_3049" data-name="Path 3049" d="M4873.406,6208.783H4801.09c.007-.066.016-.134.022-.2h72.27Zm-79.722-28.928h-2.905a33.1,33.1,0,0,0-7.888-6.762c-7.411-4.217-6.174-17.468-5.558-19.875s19.165-30.321,23.85-32.6c3.627-1.77,46.01-4.038,60.547-4.133l.407,3.221a9.369,9.369,0,0,0-.368-1.416c-4.413,0-12.383.27-21.094.694l-.231-.074a.335.335,0,0,0-.1-.015.749.749,0,0,0-.365.123c-16.557.819-35.5,2.179-37.781,3.293-4.443,2.181-21.832,28.889-22.417,31.184s-1.755,14.85,5.271,18.874a36.662,36.662,0,0,1,8.635,7.491Z" transform="translate(-4653.611 -5958.675)" fill="#e9930a"/>
      <path id="Path_3050" data-name="Path 3050" d="M5324.741,8580.108h-2.915a45.917,45.917,0,0,0-5.217-7.229h2.905A47.736,47.736,0,0,1,5324.741,8580.108Z" transform="translate(-5179.441 -8351.699)" fill="#e99c18"/>
      <path id="Path_3051" data-name="Path 3051" d="M8072.307,6116.4l-.786-.015c.269,0,.529,0,.778,0a.2.2,0,0,0,.008.019Z" transform="translate(-7863.275 -5958.579)" fill="#e9930a"/>
      <path id="Path_3052" data-name="Path 3052" d="M5596.2,8874.559h-72.27c.822-7.963-1.578-15.418-5.115-21.5h2.915c3.4,5.794,5.689,12.716,4.9,19.949l69.088-.209s-.224-2.707-.617-6.945Z" transform="translate(-5376.425 -8624.651)" fill="#e47604"/>
      <path id="Path_3053" data-name="Path 3053" d="M12089.4,8607.461a28.007,28.007,0,1,1,28,28.006A28,28,0,0,1,12089.4,8607.461Z" transform="translate(-11777.497 -8358.12)" fill="#232121"/>
      <path id="Path_3054" data-name="Path 3054" d="M12441.356,8947.485a16.14,16.14,0,1,0,16.143-16.137A16.161,16.161,0,0,0,12441.356,8947.485Zm-2.856,0a18.993,18.993,0,1,1,19,19A19.011,19.011,0,0,1,12438.5,8947.485Z" transform="translate(-12117.588 -8698.146)" fill="#898989"/>
      <path id="Path_3055" data-name="Path 3055" d="M12552.308,9029.051c-6.9-.414-12-1.941-12-3.774s5.108-3.35,12.01-3.763a17.606,17.606,0,0,0-2.295-5.548c-5.165,4.575-9.872,7.138-11.159,5.84s1.257-6,5.835-11.16a17.481,17.481,0,0,0-3.574-1.735,17.694,17.694,0,0,0-1.97-.56c-.412,6.894-1.947,12.01-3.772,12.01s-3.355-5.116-3.77-12.01a17.32,17.32,0,0,0-5.533,2.295c4.572,5.163,7.115,9.862,5.829,11.16s-6-1.265-11.162-5.84a17.3,17.3,0,0,0-1.73,3.569,18.044,18.044,0,0,0-.567,1.979c6.9.413,12.023,1.938,12.023,3.763s-5.121,3.36-12.025,3.774a17.656,17.656,0,0,0,2.306,5.547c5.157-4.586,9.864-7.125,11.156-5.834s-1.257,6-5.838,11.16a17.359,17.359,0,0,0,3.575,1.735c.648.226,1.308.409,1.967.569.415-6.906,1.949-12.031,3.77-12.031s3.36,5.125,3.772,12.031a17.534,17.534,0,0,0,5.536-2.311c-4.57-5.154-7.117-9.867-5.827-11.154s6,1.248,11.16,5.835a17.961,17.961,0,0,0,1.738-3.575A16.219,16.219,0,0,0,12552.308,9029.051Z" transform="translate(-12195.466 -8775.936)" fill="#898989"/>
      <path id="Path_3056" data-name="Path 3056" d="M10590.149,7211.756c0,4.453-4.021,8.073-8.981,8.073-2.464,0-2.688-3.62-2.688-8.073,0-4.47.225-8.1,2.688-8.1C10586.128,7203.66,10590.149,7207.286,10590.149,7211.756Z" transform="translate(-10305.556 -7017.806)"/>
      <path id="Path_3057" data-name="Path 3057" d="M14136.115,8250.13c-.2-.054-.391-.1-.574-.129h-33.93c.322-3.582,1.537-8.552,5.236-8.552,4.525,0,24.252.193,24.252.193S14134.99,8247.3,14136.115,8250.13Z" transform="translate(-13737.79 -8028.82)" fill="#c46b02"/>
      <path id="Path_3058" data-name="Path 3058" d="M14097.8,8575c0-.59.026-1.321.1-2.12h33.928a5.794,5.794,0,0,1,.576.13c.376.945.443,1.575-.046,1.575-5.984,0-34.557.414-34.557.414Z" transform="translate(-13734.076 -8351.699)" fill="#c47105"/>
      <path id="Path_3059" data-name="Path 3059" d="M14163.5,8280.529c0-2.619.75-8.64,4.966-8.64s23.112.065,23.112.065,5.229,8.377,4.37,8.377C14190.375,8280.332,14163.5,8280.529,14163.5,8280.529Z" transform="translate(-13798.082 -8058.475)" fill="#e5e5e5"/>
      <path id="Path_3060" data-name="Path 3060" d="M14213.176,8304.734l-9.771.066c-2,.018-1.4-1.91-.8-4.094.545-1.988,1.707-3.477,3.393-3.477h7.422c.451,0,.293,7.5-.242,7.5Z" transform="translate(-13835.613 -8083.163)" fill="#f28c30"/>
      <path id="Path_3061" data-name="Path 3061" d="M8519.247,6683.7l-.058-.451h.633s0-.069-.014-.2h74.8a.311.311,0,0,1,0,.044Zm77.415-29.379h-1.795c.351-7.575.428-14.28-.227-16.266-1.729-5.235-5.584-11.575-8.178-13.755-1.4-1.177-11.76-11.062-21.38-19q-.243-.888-.5-1.792c10.314,8.26,21.764,18.962,23.263,20.211,2.711,2.259,6.773,8.851,8.584,14.268.668,2,.592,8.694.232,16.331Z" transform="translate(-8299.395 -6433.141)" fill="#e9930a"/>
      <path id="Path_3062" data-name="Path 3062" d="M11439.008,8580.108h-1.787c.149-2.418.283-4.864.394-7.229h1.8C11439.3,8575.233,11439.16,8577.684,11439.008,8580.108Z" transform="translate(-11142.141 -8351.699)" fill="#e99c18"/>
      <path id="Path_3063" data-name="Path 3063" d="M8110.926,6180.43h-.218c-.4-3.494-.841-7.014-1.316-10.372-2.463-17.433-6.161-49.866-7.4-52.987,3.086.063,13.5.316,23.357.914-1.987.334-3.931.707-5.755,1.109-8.789-.4-16.407-.535-16.407-.535Z" transform="translate(-7892.959 -5959.25)" fill="#e9930a"/>
      <path id="Path_3064" data-name="Path 3064" d="M8440.992,8580.108h-.34c-.241-2.355-.5-4.786-.782-7.229h.219Z" transform="translate(-8222.122 -8351.699)" fill="#e99c18"/>
      <path id="Path_3065" data-name="Path 3065" d="M8090.487,6301.484h-.447l-7.609-60.154c1.424,6.9,4.53,34.044,6.66,49.216C8089.586,6294.068,8090.057,6297.794,8090.487,6301.484Z" transform="translate(-7873.904 -6080.304)" fill="#e9930a"/>
      <path id="Path_3066" data-name="Path 3066" d="M8378.625,8580.108h-.341l-.915-7.229h.448C8378.1,8575.332,8378.375,8577.763,8378.625,8580.108Z" transform="translate(-8161.233 -8351.699)" fill="#e99c18"/>
      <path id="Path_3067" data-name="Path 3067" d="M8066.65,6116.373v0l.125,0Z" transform="translate(-7858.531 -5958.568)" fill="#e9930a"/>
      <path id="Path_3068" data-name="Path 3068" d="M8491.025,8874.549h-74.8c-.105-1.459-.779-10.683-1.885-21.5h.342l2.583,20.646,72.129-.579s.862-9.738,1.5-20.067h1.787C8492.014,8863.608,8491.1,8873.79,8491.025,8874.549Zm-76.547-8.7-1.618-12.795h.341C8413.723,8857.91,8414.157,8862.388,8414.479,8865.846Z" transform="translate(-8195.809 -8624.643)" fill="#e47604"/>
      <path id="Path_3069" data-name="Path 3069" d="M8078.958,6208.783h-.633l-.025-.2h.644C8078.953,6208.713,8078.958,6208.783,8078.958,6208.783Zm-2.68-28.928h-1.165c-.431-3.689-.9-7.416-1.4-10.939-2.13-15.171-5.236-42.316-6.66-49.215l-.408-3.221h.126l.786.016c1.24,3.121,4.938,35.554,7.4,52.988C8075.438,6172.841,8075.877,6176.361,8076.279,6179.855Z" transform="translate(-7858.53 -5958.675)" fill="#d87506"/>
      <path id="Path_3070" data-name="Path 3070" d="M8396.656,8580.108h-1.137c-.251-2.346-.521-4.776-.81-7.229h1.165C8396.155,8575.322,8396.415,8577.753,8396.656,8580.108Z" transform="translate(-8178.127 -8351.699)" fill="#d87c0f"/>
      <path id="Path_3071" data-name="Path 3071" d="M8429.092,8874.549h-.645l-1.1-8.7c-.32-3.458-.756-7.936-1.276-12.795h1.138C8428.313,8863.866,8428.986,8873.09,8429.092,8874.549Z" transform="translate(-8208.678 -8624.643)" fill="#d35e03"/>
      <path id="Path_3072" data-name="Path 3072" d="M8380.56,6344.559s-2.993-22.449-5.06-32.18c.24-.162.509-.322.807-.484.826-.059,2.2-.095,3.952-.095,7.367,0,21.461.63,30.054,2.67,3.771.888,10.13,6.074,16.325,11.891a71,71,0,0,0,5.954,11.646,32.84,32.84,0,0,0-.256,4.9c0,.544,0,1.077.014,1.591l-26.718.031a34.345,34.345,0,0,0-1.45-5.667l1.027-2.05-2.256-2.6c.078-.117.153-.233.231-.348.217.011.415.016.6.016a10.7,10.7,0,0,0,3.123-.562c.559-.145,1.224-1.777,1.5-3.479.729-.281,1.588-.43,1.421-.955-.494-.667-.806-3.025-1.066-3.527-.018-1.854.514-3.289.431-4.551l.173.062s1.5-2.191.442-3.165a12.754,12.754,0,0,0-6.04-2.816,7.582,7.582,0,0,0-2.012-.227c-.1-.006-.2-.006-.3-.006-.157,0-.309,0-.46.011a8.792,8.792,0,0,0-1.646.239,6.324,6.324,0,0,0-4.027,2.719,6.172,6.172,0,0,0-1.692,7.714c1.939,4.176,1.443,5.788,1.443,5.788h.035l-1.278,2.447.051.069a19.649,19.649,0,0,1-2.223,2.017,13.356,13.356,0,0,0-4.618,7.063,17.131,17.131,0,0,0-.122,1.825l-6.359.009Zm15.035-13.2c-.088-.09-.165-.172-.229-.247.12-.01.269-.023.434-.043C8395.73,6331.17,8395.662,6331.268,8395.595,6331.362Z" transform="translate(-8159.413 -6148.957)" fill="#d5eeea"/>
      <path id="Path_3073" data-name="Path 3073" d="M9435,7343.475a33.16,33.16,0,0,0-1.715-5.968,1.747,1.747,0,0,0-.19-.211l.075-.1,1.02,1.208.3-.6a34.262,34.262,0,0,1,1.45,5.668Z" transform="translate(-9189.717 -7147.901)" fill="#91c2d5"/>
      <path id="Path_3074" data-name="Path 3074" d="M9391.593,7185.858l-1.02-1.208.752-.962s-.821-.546-1.955-1.327a20.71,20.71,0,0,0,1.3-1.751l2.255,2.6-1.027,2.05Z" transform="translate(-9147.125 -6995.351)" fill="#7ab0cd"/>
      <path id="Path_3075" data-name="Path 3075" d="M9160.4,7041.278a57.38,57.38,0,0,1-6.063-4.6l.205-.291a3.052,3.052,0,0,0,1.647-.593,8.017,8.017,0,0,0,5.061,3.34c.246.021.469.039.678.049l-.231.347A20.72,20.72,0,0,1,9160.4,7041.278Z" transform="translate(-8918.159 -6854.267)" fill="#bbb3a6"/>
      <path id="Path_3076" data-name="Path 3076" d="M9232.457,6650.157c-.184,0-.382-.005-.6-.015s-.433-.028-.678-.049a8.02,8.02,0,0,1-5.062-3.34.573.573,0,0,0,.169-.4c0-.5,1.2-2.184,2.388-3.724a1.719,1.719,0,0,0,.813.992.625.625,0,0,0,.255.061c.644,0,.915-1.311,1.028-2.349.078.07.12.113.12.113a23.078,23.078,0,0,1,1.568-3.708,2.134,2.134,0,0,1,1.47-1.079c.341-.059.663-.056.941-.133.041-.011.082-.023.123-.037a.99.99,0,0,1,.295-.039,10.286,10.286,0,0,1,2.576.634c.082,1.262-.448,2.7-.431,4.551.261.5.571,2.86,1.066,3.527.167.526-.692.675-1.421.956-.278,1.7-.943,3.334-1.5,3.479a10.7,10.7,0,0,1-3.123.562Z" transform="translate(-8988.087 -6465.23)" fill="#bbb3a6"/>
      <path id="Path_3077" data-name="Path 3077" d="M9052.791,6439.267s.5-1.612-1.444-5.789a6.171,6.171,0,0,1,1.692-7.714,6.329,6.329,0,0,1,4.028-2.72,7.568,7.568,0,0,0-1.388.486c1.35.407,2.631,1.782,2.928,7.586a1.114,1.114,0,0,0-.415-.1.486.486,0,0,0-.422.229,4.611,4.611,0,0,0-.052,3.248c-1.185,1.539-2.386,3.223-2.388,3.723a.571.571,0,0,1-.169.4,3.038,3.038,0,0,1-1.647.593c-.165.021-.313.033-.433.043a2.33,2.33,0,0,1-.147-.19l-.107.206h-.036Zm10.183-10.745c.338-.066.659-.066.94-.134C9063.636,6428.465,9063.313,6428.462,9062.974,6428.521Zm-1.49-5.5a12.794,12.794,0,0,0-2.012-.227A7.582,7.582,0,0,1,9061.483,6423.026Z" transform="translate(-8817.129 -6257.092)" fill="#37504c"/>
      <path id="Path_3078" data-name="Path 3078" d="M9250.387,6433.075a1.554,1.554,0,0,0-.12-.113c.075-.682.079-1.246.079-1.246a11.052,11.052,0,0,0-1.288-.832c-.3-5.8-1.578-7.178-2.928-7.585a7.486,7.486,0,0,1,1.388-.487,8.816,8.816,0,0,1,1.646-.239c.151-.008.3-.011.46-.011.1,0,.2,0,.3.006a13.526,13.526,0,0,1,8.053,3.043c1.056.974-.442,3.165-.442,3.165l-.174-.062a10.249,10.249,0,0,0-2.574-.634.973.973,0,0,0-.3.039c-.041.013-.084.026-.124.037-.281.067-.6.067-.939.134a2.129,2.129,0,0,0-1.47,1.079A23.132,23.132,0,0,0,9250.387,6433.075Z" transform="translate(-9007.58 -6256.859)" fill="#4c6560"/>
      <path id="Path_3079" data-name="Path 3079" d="M9316.261,6745.689a.615.615,0,0,1-.255-.062,1.717,1.717,0,0,1-.814-.991,4.614,4.614,0,0,1,.052-3.247.49.49,0,0,1,.423-.229,1.1,1.1,0,0,1,.415.1,11.222,11.222,0,0,1,1.287.832s0,.563-.08,1.246C9317.175,6744.38,9316.9,6745.689,9316.261,6745.689Z" transform="translate(-9074.603 -6567.238)" fill="#bbb3a6"/>
      <path id="Path_3080" data-name="Path 3080" d="M8818.07,7169.436a17.414,17.414,0,0,1,.122-1.825,13.371,13.371,0,0,1,4.618-7.063,19.618,19.618,0,0,0,2.225-2.017l6.2,8.176,2.7-3.471a1.73,1.73,0,0,1,.189.211,33.154,33.154,0,0,1,1.715,5.969l-7.148.008c-.291-2.405-.713-4.658-1.446-5.256a5.168,5.168,0,0,0-3.2-1.378c-3.118,0-4.471,4.486-4.471,4.486a18.137,18.137,0,0,0-.138,2.16Z" transform="translate(-8590.563 -6973.84)" fill="#7ab0cd"/>
      <path id="Path_3081" data-name="Path 3081" d="M8882.906,7063.938l-6.2-8.176-.052-.069,1.279-2.445.107-.207a2.117,2.117,0,0,0,.148.19c.064.075.141.157.229.247a56.916,56.916,0,0,0,6.063,4.6c1.134.78,1.954,1.326,1.954,1.326l-.752.963-.074.1Zm-11.795,2.729a18.313,18.313,0,0,1,.139-2.16s1.354-4.485,4.47-4.485a5.168,5.168,0,0,1,3.2,1.378c.733.6,1.154,2.85,1.445,5.255l-9.255.013Z" transform="translate(-8642.236 -6871.072)" fill="#91c2d5"/>
      <path id="Path_3082" data-name="Path 3082" d="M8319.254,6237.761s-5.577-32.164-3.967-37.249a3,3,0,0,1,1.27-1.412c2.066,9.731,5.06,32.18,5.06,32.18l6.358-.008h1.369l9.255-.013,7.148-.008.94,0,26.718-.032c.014.61.034,1.2.073,1.752l-54.224,4.791Zm48.439-24.679c-6.2-5.817-12.553-11-16.325-11.892-8.593-2.039-22.687-2.67-30.054-2.67-1.753,0-3.126.036-3.952.095a41.723,41.723,0,0,1,9.74-3.095c9.424.431,20.194,1.167,24.366,2.374,3.085.891,8.744,5.047,14.688,9.945.448,1.626.881,3.21,1.34,4.649.062.193.128.392.2.592Z" transform="translate(-8100.469 -6035.676)" fill="#d3c356"/>
      <path id="Path_3083" data-name="Path 3083" d="M10578.576,7335.85c-.039-.553-.059-1.141-.072-1.75-.011-.515-.014-1.048-.014-1.592a32.836,32.836,0,0,1,.256-4.9c2.615,4.331,5.006,7.782,5.006,7.782l-5.175.458Z" transform="translate(-10305.565 -7138.558)" fill="#37504c"/>
      <path id="Path_3084" data-name="Path 3084" d="M9672.413,6081.918l-4.032-3.206c-2.949-.891-5.993-1.682-9.1-2.383,1.16-.051,2.24-.079,3.219-.079a19.759,19.759,0,0,1,4.426.355c2.42.639,4.146,2.658,5.488,5.313Z" transform="translate(-9410.07 -5919.483)" fill="#d5eeea"/>
      <path id="Path_3085" data-name="Path 3085" d="M9040.07,6092.854c-5.924-4.74-11.473-8.678-14.547-9.556-3.321-.95-10.622-1.62-18.254-2.081a149.2,149.2,0,0,1,16.82-1.888c3.107.7,6.151,1.491,9.1,2.383l4.032,3.206A45.421,45.421,0,0,1,9040.07,6092.854Z" transform="translate(-8774.883 -5922.484)" fill="#d3c356"/>
      <path id="Path_3086" data-name="Path 3086" d="M8823.323,6165.929c-5.942-4.9-11.6-9.054-14.687-9.945-4.173-1.207-14.943-1.943-24.367-2.374,1.824-.4,3.767-.775,5.754-1.11,7.633.461,14.934,1.131,18.255,2.081,3.074.878,8.624,4.815,14.546,9.555Q8823.079,6165.041,8823.323,6165.929Z" transform="translate(-8557.636 -5993.766)" fill="#c7ab52"/>
      <path id="Path_3087" data-name="Path 3087" d="M8416.56,7519.234c5.25,0,59.509-6.564,60.3-5.629,2.271,2.688,8.394,15.254,3.582,27.506s-7,40.255-12.25,39.379-41.567-10.5-44.2-15.751S8416.56,7519.234,8416.56,7519.234Z" transform="translate(-8199.413 -7319.666)" fill="#2b2b2b"/>
      <path id="Path_3088" data-name="Path 3088" d="M8218.925,5973.417c-1.558,4.5-5.819,40.262-12.47,41.021l-44.036-10.5-9.486-81.222c6.218-.376,38.744-8.681,41.7-4.9s14.033,31.679,17.729,33.945,9.517,13.13,6.563,21.661Zm-1.094-21.661c-4.378-2.623-16.627-35.88-20.129-40.252s-42,5.25-49.362,5.683l11.228,92.655,48.638,11.487c7.874-.875,14-41.565,15.751-46.818s-1.748-20.128-6.126-22.754Z" transform="translate(-7938.114 -5757.878)" fill="#f79406"/>
      <path id="Path_3089" data-name="Path 3089" d="M6920.054,6211.441c1.936,2.212,1.521,8.987.554,12.86s-1.383,8.018,0,9.123c-3.595,0-12.308-.278-13-4.838s6.776-19.217,8.574-18.667A35.83,35.83,0,0,1,6920.054,6211.441Z" transform="translate(-6729.351 -6049.688)" fill="#5e2014"/>
      <path id="Path_3090" data-name="Path 3090" d="M7033.414,7394.354c1.853-1.707,1.506-4.625,1.044-6.412s-4-5.042-6.91-4.426c-2.932.615-3.41,5.011-1.013,8s6.879,2.835,6.879,2.835Z" transform="translate(-6843.76 -7192.947)" fill="#2b55b2"/>
      <path id="Path_3091" data-name="Path 3091" d="M6426.437,6371.049c-.522-.228-1.292-.353-1.98-2.379.361-3.263,2.489-5.737,3.456-6.082,0,0-4.909-11.149-5.945-7.259-1.385,5.184-7.191,8.39-7.312,8.25-.854.3-2.065.085-3.232.809-2.367,2.07-4.505,7.191-4.776,12.172-.276,5.134,15.591,9.125,16.405,8.207,1.31-1.476,3.2-13.393,3.384-13.717Z" transform="translate(-6241.353 -6190.559)" fill="#eac4b2"/>
      <path id="Path_3092" data-name="Path 3092" d="M6247.177,6730.369c.588,2.094,2.685,6.028,4.191,7.282,2.351,1.941,4.783,4,4.783,4s.573,22.289-1.285,27.7c-4.313-1.112-6.461-4.2-9.656-4.581-3.2-.365-8.221-.89-7.724-1.558s4.952-8.7,4.371-11.018.091-7.636.091-7.636.783-.456.058-9.99c1.458-.165,5.171-4.205,5.171-4.205Z" transform="translate(-6076.526 -6556.726)" fill="#2b55b2"/>
      <path id="Path_3093" data-name="Path 3093" d="M6522.811,6950.328s4.165-4.13,4.46-7.035c.419-4.23.85-7.232,1.815-9.5.968-2.291.2-9.744,0-11.041,0,0,3.6,4.295,6.85,3.214,1.679-.562,2.564-3.722,1.821-5.021l2.8,2.629s1.188,7.362,1.624,10.246c.394,2.55-2.652,4.7-3.773,6.711s-.479,14.818-.978,14.927c-5.018,1.084-11.331-3.582-12.778-4.715l-1.842-.409Z" transform="translate(-6354.521 -6742.38)" fill="#4686d3"/>
      <path id="Path_3094" data-name="Path 3094" d="M6509.383,8098.383c1.857,4.452,19.475,6.432,19.176,9.5a31.2,31.2,0,0,0,1.956,13.418c1.987,5.289,6.711,15.9,7.081,17.983.8,4.509-1.214,2.519-.094,6.522.346,1.244,4.218,6.348,7.361,8.3,2.732,1.7,5.909-1.16,5.221-2.051a33.964,33.964,0,0,1-6.433-11.836c-1.272-4.331-3.651-20.77-4.095-27.56-.328-5.021.273-7.478-2.705-10.923-3.065-3.54-10.851-7.565-13.937-12.893C6521.119,8085.729,6507.523,8093.934,6509.383,8098.383Z" transform="translate(-6341.271 -7879.479)" fill="#d6a092"/>
      <path id="Path_3095" data-name="Path 3095" d="M6519.762,6445.515l-1.191-3.3,9.957-5.163,1.211,1.541a15.487,15.487,0,0,1-6.027,5.409.019.019,0,0,1-.015,0c-.855.3-2.065.085-3.232.809A7.387,7.387,0,0,0,6519.762,6445.515Z" transform="translate(-6350.392 -6270.975)" fill-rule="evenodd" fill="url(#linear-gradient)"/>
      <path id="Path_3096" data-name="Path 3096" d="M7099.08,6753.809a9.663,9.663,0,0,1,1.335-3.569l1.1,1.4-2.437,2.168Z" transform="translate(-6915.924 -6576.084)" fill-rule="evenodd" fill="url(#linear-gradient-2)"/>
      <path id="Path_3097" data-name="Path 3097" d="M6572.813,6511.94a13.054,13.054,0,0,1-2.867-2.449c.013.088.029.206.046.351a20.513,20.513,0,0,1-3.959-7.073s-.484.525-1.171,1.205l-.11-.309a7.7,7.7,0,0,1,.7-.712c1.168-.723,2.378-.5,3.232-.809a.021.021,0,0,0,.016.006,15.486,15.486,0,0,0,6.026-5.41l5.145,6.54a9.668,9.668,0,0,0-1.334,3.569Z" transform="translate(-6395.381 -6329.125)" fill-rule="evenodd" fill="url(#linear-gradient-3)"/>
      <path id="Path_3098" data-name="Path 3098" d="M6573.158,6742.962l-4.107-11.387c.686-.679,1.17-1.205,1.17-1.205a20.5,20.5,0,0,0,3.96,7.073c.1.824.273,2.483.365,4.283l-1.388,1.235Z" transform="translate(-6399.57 -6556.727)" fill-rule="evenodd" fill="url(#linear-gradient-4)"/>
      <path id="Path_3099" data-name="Path 3099" d="M6766.482,6995.6c-.093-1.8-.262-3.458-.365-4.282-.018-.145-.034-.263-.047-.351a13.082,13.082,0,0,0,2.867,2.449Z" transform="translate(-6591.506 -6810.604)" fill-rule="evenodd" fill="url(#linear-gradient-5)"/>
      <path id="Path_3100" data-name="Path 3100" d="M6819.71,6097.873c-.011-5.616,4.019-7.444,8.478-7.457s6.537,3.373,5.922,8.387c-.106.826-1.117,8.724-4.194,10.408a7.062,7.062,0,0,1-4.2.075C6821.365,6107.709,6819.724,6103.481,6819.71,6097.873Z" transform="translate(-6643.762 -5933.283)" fill="#eac4b2"/>
      <path id="Path_3101" data-name="Path 3101" d="M6302.639,6045.917a8.892,8.892,0,0,0-5.045,1.962l-.045.014c-3.658,2.928-3.7,4.063-4.472,5.234a131.453,131.453,0,0,0-6.577,11.459s.513.966,1.3.746c-2.286.9-1.783,1-3.915,1.679,2.238,2.232.357,3.067,7.969,3.354,2.878.1,9.115-7.512,7.317-11.184a1.2,1.2,0,0,1-.456-.933c-.276-1.109-.228-2.963.771-3.112a.743.743,0,0,1,.8.36l5.684-3.723,6.258,1.352c3.049-2.843-2.881-7.973-9.595-7.208Z" transform="translate(-6121.766 -5889.858)" fill="#300901"/>
      <path id="Path_3102" data-name="Path 3102" d="M6251.945,7797.543c.25,2.978,0,10.251,0,10.251-2.8-.561-3.714-2.108-5.406-1.679-.78.2.42,1.375-.186,1.865-4.661,3.726-8.759,5.59-9.877,19.2-1.184,14.392-19.591,15.2-16.588,10.248,3.728-6.146-.584-30.276-1.3-32.427-.932-2.794-6.873-5.152-8.2-5.966-6.708-4.1,2.391-12.306,4.662-15.653s16.246.219,21.057,3.353C6244.118,7791.953,6251.572,7793.07,6251.945,7797.543Z" transform="translate(-6047.793 -7581.253)" fill="#2b55b2"/>
      <path id="Path_3103" data-name="Path 3103" d="M6606.928,7747.53c-.192.419.214,1.511,3,.9s16.132-1.244,18.684-1.045c4.025.324,2.721-1,2.333-2.32,0,0-.846-4.236.165-6.08,1.242-2.253-3.792-5.9-5.865-6.333s-12.883.484-14.263.716c-2.77.469-6.766,5.734-5.788,6.781,1.263,1.344,2.4,5.935,1.737,7.376Z" transform="translate(-6434.63 -7533.042)" fill="#900"/>
      <path id="Path_3104" data-name="Path 3104" d="M7119.156,7747.355c4.025.324,2.722-1,2.334-2.32,0,0-.847-4.235.165-6.079,1.241-2.254-3.793-5.9-5.865-6.333a43.158,43.158,0,0,0-7.21.1l.756,14.888C7113.529,7747.378,7117.82,7747.25,7119.156,7747.355Z" transform="translate(-6925.179 -7533.009)" fill="#ce1111"/>
      <path id="Path_3105" data-name="Path 3105" d="M7303.451,7814.232a1.049,1.049,0,0,1-1,1.086,1.019,1.019,0,0,1-1.065-.994l-.04-1.27a1.06,1.06,0,0,1,1-1.091,1.027,1.027,0,0,1,1.063,1.006Z" transform="translate(-7112.973 -7610.415)"/>
      <path id="Path_3106" data-name="Path 3106" d="M6836.238,7836.246a1.062,1.062,0,0,1-1.009,1.092,1.027,1.027,0,0,1-1.074-1l-.038-1.278a1.061,1.061,0,0,1,1.01-1.088,1.025,1.025,0,0,1,1.075,1l.036,1.277Z" transform="translate(-6657.796 -7631.854)" fill="#232121"/>
      <path id="Path_3107" data-name="Path 3107" d="M6850.708,7514.529a.691.691,0,0,1-.636-.744,20.67,20.67,0,0,1,.653-5.094,5.746,5.746,0,0,1,5.207-4.527l.263-.015a5.667,5.667,0,0,1,5.821,3.5,25.632,25.632,0,0,1,1.322,5.19.706.706,0,0,1-.5.855.682.682,0,0,1-.833-.5,25.1,25.1,0,0,0-1.24-4.957,4.276,4.276,0,0,0-4.527-2.708l-.218.008c-2.362.19-3.361,1.67-3.967,3.545a19.894,19.894,0,0,0-.593,4.79.712.712,0,0,1-.67.651Z" transform="translate(-6673.338 -7310.532)" fill="#900"/>
      <path id="Path_3108" data-name="Path 3108" d="M7125.416,7473.086c.088.388.229.471-.192,1.176a3.824,3.824,0,0,1-2.076,1.6c-.6.055-.433-.255-.122-.595s1.469-1.411,1.153-1.356-.384.353-.663.641-1.054.977-1.4,1.233-.962.225-.7-.293c.257-.5.872-1.139,1.07-1.54s.455-.854.55-1.02a11.6,11.6,0,0,0-.734,1.228,7.768,7.768,0,0,1-1.551,1.938c-.374.179-.657-.175-.349-.937s.344-1.046.542-1.437.57-1.43.57-1.43a11.022,11.022,0,0,1-.628,1.666c-.32.7-.789,1.746-1.187,1.685s-.169-1.359.065-1.957a18.364,18.364,0,0,1,.688-2.266,1.594,1.594,0,0,1,1.638-.566,4.48,4.48,0,0,1,2.013.561A5,5,0,0,1,7125.416,7473.086Z" transform="translate(-6935.794 -7278.075)" fill="#eac4b2"/>
      <path id="Path_3109" data-name="Path 3109" d="M6726.88,7477.848a15.8,15.8,0,0,0,2.474-.711c.658.3-1.437,1.517-1.437,1.517a18.919,18.919,0,0,1,1.955.632c.605.27,1.78,1.527,1.171,1.75s-1.382-.767-1.382-.767l-1.553-.036s3.152.991,3.027,1.635-2.972-.469-2.972-.469,2.749,1.021,2.619,1.658-2.836-.548-2.836-.548,2.167.847,1.917,1.385-1.917-.435-2.771-.425-3.02.32-3.79-.206a3.7,3.7,0,0,0-2.272-.893l1.276-3.2,4.574-1.318Z" transform="translate(-6547.628 -7284.225)" fill="#eac4b2"/>
      <path id="Path_3110" data-name="Path 3110" d="M6117.5,6893.36c-2.746.445-4.1,3.23-5.774,6.455-1.213,2.33-3.025,12.216-2.936,14.677s7.825,6.011,13.977,3.915c1.792-.61,5.58-4.022,3.682-7.27-.886-1.5-8.278-.242-7.876-2.094s.518-3.129,1.817-8.108C6122.109,6894.338,6117.5,6893.36,6117.5,6893.36Z" transform="translate(-5951.179 -6715.512)" fill="#4686d3"/>
      <path id="Path_3111" data-name="Path 3111" d="M7571.062,10133.2c-2.376,2.938.591,7.476.591,7.476a49.05,49.05,0,0,1,1.18,5.15l.956.242-.678-4.339a39.379,39.379,0,0,0,3.355,5.59,6.6,6.6,0,0,0,6.9,1.815c.8-.314,2.655-.977,1.817-2.794a25.471,25.471,0,0,0-3.075-4.056s-2.623,2.536-4.053,1.818-2.821-2.712-4.011-4.859S7571.062,10133.2,7571.062,10133.2Z" transform="translate(-7374.831 -9871.765)"/>
    </g>
  </g>
</svg>
