<svg xmlns="http://www.w3.org/2000/svg" xmlns:xlink="http://www.w3.org/1999/xlink" width="336" height="204" viewBox="0 0 336 204">
  <defs>
    <clipPath id="clip-path">
      <rect y="67" width="336" height="204" fill="none"/>
    </clipPath>
    <linearGradient id="linear-gradient" x1="-10.33" y1="6.271" x2="-12.697" y2="7.218" gradientUnits="objectBoundingBox">
      <stop offset="0" stop-color="#fff"/>
      <stop offset="0.671" stop-color="#fff"/>
      <stop offset="1" stop-color="#fff"/>
    </linearGradient>
    <linearGradient id="linear-gradient-2" x1="-4.685" y1="3.631" x2="-5.945" y2="4.252" xlink:href="#linear-gradient"/>
    <linearGradient id="linear-gradient-3" x1="0.421" y1="0.909" x2="1.425" y2="-0.583" gradientUnits="objectBoundingBox">
      <stop offset="0"/>
      <stop offset="0.639"/>
      <stop offset="1"/>
    </linearGradient>
    <linearGradient id="linear-gradient-4" x1="-1.204" y1="-1.985" x2="1.004" y2="0.642" gradientUnits="objectBoundingBox">
      <stop offset="0" stop-color="#fff"/>
      <stop offset="0.639" stop-color="#c6c0b9"/>
      <stop offset="1" stop-color="#c6c0b9"/>
    </linearGradient>
    <linearGradient id="linear-gradient-5" x1="0.179" y1="0.419" x2="1.046" y2="0.872" gradientUnits="objectBoundingBox">
      <stop offset="0" stop-color="#d6a092"/>
      <stop offset="0.639" stop-color="#a6786a"/>
      <stop offset="1" stop-color="#a6786a"/>
    </linearGradient>
    <linearGradient id="linear-gradient-6" x1="-0.03" y1="0.591" x2="0.587" y2="0.909" xlink:href="#linear-gradient-5"/>
    <linearGradient id="linear-gradient-7" x1="0.135" y1="0.711" x2="1.388" y2="0.284" gradientUnits="objectBoundingBox">
      <stop offset="0" stop-color="#3357bc"/>
      <stop offset="0.639" stop-color="#284288"/>
      <stop offset="1" stop-color="#284288"/>
    </linearGradient>
    <linearGradient id="linear-gradient-8" x1="-0.169" y1="0.132" x2="-4.332" y2="1.369" xlink:href="#linear-gradient"/>
    <linearGradient id="linear-gradient-9" x1="-56.078" y1="-307.596" x2="-544.861" y2="132.003" gradientUnits="objectBoundingBox">
      <stop offset="0" stop-color="#4c6b9a"/>
      <stop offset="0.671" stop-color="#4c6b9a"/>
      <stop offset="1" stop-color="#4c6b9a"/>
    </linearGradient>
    <linearGradient id="linear-gradient-10" x1="-2.79" y1="0.309" x2="-16.66" y2="4.276" gradientUnits="objectBoundingBox">
      <stop offset="0" stop-color="#2f4642"/>
      <stop offset="0.671" stop-color="#2f4642"/>
      <stop offset="1" stop-color="#2f4642"/>
    </linearGradient>
    <linearGradient id="linear-gradient-11" x1="-13.451" y1="0.483" x2="-68.669" y2="17.784" gradientUnits="objectBoundingBox">
      <stop offset="0" stop-color="#4c5e5a"/>
      <stop offset="0.671" stop-color="#4c5e5a"/>
      <stop offset="1" stop-color="#4c5e5a"/>
    </linearGradient>
    <linearGradient id="linear-gradient-12" x1="0.974" y1="0.154" x2="0.018" y2="1.259" xlink:href="#linear-gradient"/>
    <clipPath id="clip-path-2">
      <path id="Path_3261" data-name="Path 3261" d="M7472.671,5564.808l12.439-27.992,57.69-5.377c3.906.185,7.115.424,12.414.793l-11.518,30.24c-21.1.011-59.11,1.369-71.026,2.335Z" transform="translate(-7472.671 -5531.439)" clip-rule="evenodd"/>
    </clipPath>
  </defs>
  <g id="Scroll_Group_6" data-name="Scroll Group 6" transform="translate(0 -67)" clip-path="url(#clip-path)" style="isolation: isolate">
    <g id="Group_10107" data-name="Group 10107">
      <rect id="Rectangle_2381" data-name="Rectangle 2381" width="336" height="336" fill="none"/>
      <path id="Path_3169" data-name="Path 3169" d="M3027.389,7911.046l20.818-30.637-2.708-2.511-20.041,29.121-1.648-1.133,21.342-31.026,5.677,5.239-21.787,32.067Zm1.653,1.121h0Z" transform="translate(-2962.85 -7716.104)" fill-rule="evenodd" fill="url(#linear-gradient)"/>
      <path id="Path_3170" data-name="Path 3170" d="M1069.171,9267.313a96.26,96.26,0,0,0-8.006-7.069c-2.643-1.89-7.52-3.111-10.646-1.754a7.533,7.533,0,0,0-2.237,1.442c-3.8,3.034-27.335,37.609-28.624,40.33-1.245,2.636,1.169,8.163,2.891,10.611,2.262,3.224,25.509-33.367,31.431-43.157Z" transform="translate(-998.766 -9071.272)" fill-rule="evenodd" fill="url(#linear-gradient-2)"/>
      <path id="Path_3171" data-name="Path 3171" d="M1151.653,9504.723c-1.242,1.65-2.938,4.191-4.363,4.326-2.143.4-4.983-1.344-6.866-2.77l-1.992-1.51c-2.385-1.8-3.785-3.933-3.614-6.211a6.4,6.4,0,0,1,1.383-3.355l29.294-39.834c2.672-3.528,6.575-3.4,11.014-1.247l2.811,1.351c4.05,2.181,3.8,4.191,3.74,5.486.15,1.074-2.8,5.939-4.2,7.806Z" transform="translate(-1111.926 -9262.03)" fill="#6a7b9b"/>
      <path id="Path_3172" data-name="Path 3172" d="M1360.864,11904.935a3,3,0,0,1-5.778,1.4l-1.33-5.5a3.007,3.007,0,0,1,5.783-1.4Zm-7.835-1.82a2.194,2.194,0,0,1-4.22,1.019l-.972-4.016a2.194,2.194,0,0,1,4.221-1.023Z" transform="translate(-1320.619 -11657.677)" fill="#6a7b9b"/>
      <path id="Path_3173" data-name="Path 3173" d="M4654.653,11199.164c-3.985-1.234-5.174-5.047-7.12-10.659s-1.021-7.493-1.021-7.493l-8.688.011s.838,5.6.42,8-1.856,6.369.137,6.787,5.444.671,7.793,5.188c1.831,3.5,10.231,3.169,10.946,1.78,1.387-2.7-2.466-3.609-2.466-3.609Z" transform="translate(-4543.861 -10955.604)" fill="#232121"/>
      <path id="Path_3174" data-name="Path 3174" d="M4516.894,7756.387c.953.674,1.336,6.187,1.118,7.585a4.928,4.928,0,0,0,1.5.079s.194-5.972.906-6.934C4520.943,7756.4,4516.894,7756.387,4516.894,7756.387Zm16.155-83.427c-2.1,8.092-3.65,39.046-4.274,43.393s-1.534,34.855-1.534,34.855l-11.555,1.372s-4.441-24.771,1.119-33.574c-1.119-13.6-2.363-30.9-2.363-30.9l11.611-16.9Z" transform="translate(-4423.004 -7516.558)" fill="#232121"/>
      <path id="Path_3175" data-name="Path 3175" d="M3572.873,7268.131c.663,18.4-9.5,50.248-10.4,54.292s-14.7,28.826-14.737,30.863c-4.471-.106-10.887-5.637-10.887-5.637s7.152-27.681,12.858-31.4c3.026-1.979,1.79-25.322,1.048-28.183s-2.339-9.321-.621-13.966a40.5,40.5,0,0,1,6-10.492Z" transform="translate(-3465.547 -7117.176)"/>
      <path id="Path_3176" data-name="Path 3176" d="M3468.56,10964.428c-2.563-3.293-1.363-7.1.253-12.812s3.441-6.741,3.441-6.741l-7.128-4.955s-2.511,5.074-4.227,6.8-5.168,4.164-3.773,5.643,4.088,3.664,3.433,8.717c-.51,3.924,6.581,8.451,7.961,7.721C3471.2,10967.371,3468.56,10964.428,3468.56,10964.428Z" transform="translate(-3387.112 -10719.371)"/>
      <path id="Path_3177" data-name="Path 3177" d="M3291.751,11524.2c.4,1.1-2.446,5.842-3.421,6.863a4.862,4.862,0,0,0,1.187.921s3.567-4.794,4.7-5.172C3295.062,11526.527,3291.751,11524.2,3291.751,11524.2Z" transform="translate(-3222.037 -11291.873)"/>
      <path id="Path_3178" data-name="Path 3178" d="M4303.846,7914.31s-2.572-9.362-1.351-13.168c.044-.142.089-.277.133-.412l9.1,7.423Z" transform="translate(-4215.435 -7741.451)" fill-rule="evenodd" fill="url(#linear-gradient-3)"/>
      <path id="Path_3179" data-name="Path 3179" d="M5818.974,5060.324c-5.053.654-10.322,8.259-10.9,11.949-.377,2.379.594-4.135-1.687-7.425-2.007-2.9-2.1-3.468-3.672-4.913,2.01-.729,8.583-7.338,10.018-12.229S5818.974,5060.324,5818.974,5060.324Z" transform="translate(-5685.728 -4945.098)" fill="#d6a092"/>
      <path id="Path_3180" data-name="Path 3180" d="M6318.351,5735.924a12.739,12.739,0,0,1,4.479-3.094c.215.794.409,1.483.574,2.016l-5.053,1.078Z" transform="translate(-6190.973 -5617.256)" fill-rule="evenodd" fill="url(#linear-gradient-4)"/>
      <path id="Path_3181" data-name="Path 3181" d="M5905.212,5073.781l-1.922-5.884a2.337,2.337,0,0,0-.88-.245c2.717-2.249,7.134-7.482,8.294-11.437.074-.25.165-.365.271-.365.924,0,2.993,8.773,4.3,13.647a12.737,12.737,0,0,0-4.479,3.094Z" transform="translate(-5783.417 -4953.925)" fill-rule="evenodd" fill="url(#linear-gradient-5)"/>
      <path id="Path_3182" data-name="Path 3182" d="M6056.364,4683.23c-6.09.086-7.85,3.364-7.747,11.006s4.348,13.064,9.354,14.112c1.709.356,3.808-1.625,5.494-4.618.889-.021,1.74-.183,1.784-.8a19.133,19.133,0,0,1-.418-2.049,23.232,23.232,0,0,0,1.718-8.565C6066.437,4684.673,6062.433,4683.146,6056.364,4683.23Z" transform="translate(-5926.673 -4588.813)" fill-rule="evenodd" fill="url(#linear-gradient-6)"/>
      <path id="Path_3183" data-name="Path 3183" d="M4573.188,5671.916c.673,1.759,1.647,5.117,1.647,5.117-.774,3.671-1.485,12.954-2.078,14.7-.835,2.452-4.218,4.568-5.612,5.078a18.7,18.7,0,0,0-5.575,4.347c-.971,1.33-5.3,6.581-5.3,6.581s-11.74-8.489-12.956-10.2c-.765-1.06,6.308-11.45,9.845-17.021,3.556-5.572,7.577-12.282,16.56-14.7A23.641,23.641,0,0,1,4573.188,5671.916Z" transform="translate(-4451.662 -5551.598)" fill="#232121"/>
      <path id="Path_3184" data-name="Path 3184" d="M4556.163,5676.269c-3.546,5.572-10.613,15.961-9.856,17.024l.018.021,8.833,4.259a20.32,20.32,0,0,0,2.4-3.464c.3-.938,11.072-20.979,12.895-23.476a10.308,10.308,0,0,1,5.551-3.379,23.482,23.482,0,0,0-3.3-5.684c-8.98,2.423-12.995,9.124-16.545,14.7Z" transform="translate(-4454.598 -5547.433)" fill="#3357bc"/>
      <path id="Path_3185" data-name="Path 3185" d="M3958.578,5654.347l-21.118,24.791,25.227,20.583,13.925-26.4,3.891-25.31-2.549-7.8S3972.371,5636.775,3958.578,5654.347Z" transform="translate(-3858.081 -5526.238)" fill="#3357bc"/>
      <path id="Path_3186" data-name="Path 3186" d="M6708.522,4998.4c3.125-1.49,5.924,1.056,4.776,6.586-4.721,2.034-6.749.8-6.749.8l1.973-7.391Z" transform="translate(-6571.346 -4897.217)" fill="#300901"/>
      <path id="Path_3187" data-name="Path 3187" d="M6857.009,4999.2l-1.27.4c2.079,2.075.707,6.6.9,7.482a8.894,8.894,0,0,0,2.864-.989C6860.888,5002.938,6858.71,4998.794,6857.009,4999.2Z" transform="translate(-6717.528 -4898.387)" fill="#4f1109"/>
      <path id="Path_3188" data-name="Path 3188" d="M5626.145,4670.65c-.376-.827-.921-9.244-11.779-7.137-4.07.792-7.09,1.748-10.187,7.835-7.608,14.955-3.927,15.746-3.927,15.746l14.487,8.22a22.982,22.982,0,0,1-1.448-8.244c.068-4.173.288-8.2.288-8.2a15.416,15.416,0,0,1,.736-3.391c.533-1.268,1.89-1.666,2.372-.725.33.657,8.071-2.583,8.071-2.583Z" transform="translate(-5486.479 -4569.167)" fill="#300901"/>
      <path id="Path_3189" data-name="Path 3189" d="M6287.809,4665.345c-.427,1.083-2.581.709-2.581.709-.439-.194-1.439-7.683-9.584-7.873-1.4-.033-2.428.279-2.463.026-.059-.424,1.753-.639,2.11-.715a10.494,10.494,0,0,1,10.322,3.329C6287.176,4662.646,6288.233,4664.264,6287.809,4665.345Z" transform="translate(-6146.712 -4563.351)" fill="#4f1109"/>
      <path id="Path_3190" data-name="Path 3190" d="M4021.536,5990.065c-5.787-6.284-15.655-12.6-15.526-12.75,4.938-5.822,20.562-24.521,22.3-26.778,1.03-.095,7.1-5.157,7.908-5.157.074,0,.1.042.083.137-3.373,14.63-4.252,31.183-2.634,35.66-3.217,2.5-.986,1.472-2.329,2.019Z" transform="translate(-3925.248 -5825.521)" fill-rule="evenodd" fill="url(#linear-gradient-7)"/>
      <path id="Path_3191" data-name="Path 3191" d="M3719.712,7415.74c1.992,2,18.89,9.86,20.888,10.866-.405,5.795-8.708,25.9-10.8,26.713-3.724,1.463-23.428-7.563-23.652-13.557C3706.011,7435.957,3719.712,7415.74,3719.712,7415.74Z" transform="translate(-3631.432 -7266.239)" fill="#ba784a"/>
      <path id="Path_3192" data-name="Path 3192" d="M4240.954,5866.19c2.593-3.114,5.265-4.982,6.26-4.911h.095c.014,0,.326.105.642.991a12.828,12.828,0,0,1,.456,3.75,74.733,74.733,0,0,1-1.369,12.112c-1.9,10.6-7.982,26.4-8.354,28.42l2.867-4.177.15,2.287c2.435-4.68,20.415-41.807,7.07-44.756,0,0-4.583-2.267-9.8,5.033a99.466,99.466,0,0,0-8.526,11.973c-5.581,9.016-10.4,18.772-11.361,22.758l2.372.509c1.2-5.3,11.473-24.744,19.5-33.989Z" transform="translate(-4134.022 -5741.446)" fill="#ba784a"/>
      <path id="Path_3193" data-name="Path 3193" d="M5633.5,7811.615c1.842.491,6.019,1.5,6.4,2.125a30.747,30.747,0,0,1,1.439,3.3,5.11,5.11,0,0,1,.139,1.975c-.094.395-.765.71-.854.132a18.273,18.273,0,0,0-.812-2.26s-.038,1.578-.314,1.754c-.315.194-.5.059-.5.059l-.364-.645s.12.716-.289.925c-.191.1-.479-.259-.624-.532.041.367.235.759-.324.753-.412-.012-.78-.716-.78-.716s.1.574-.182.716-1.074-.379-1.363-.683-1.362-1.135-2.336-2.013c-.577-.526-4.519-3.661-4.519-3.661l1.457-2.49,3.824,1.266Z" transform="translate(-5514.755 -7652.893)" fill="#d8a39a"/>
      <path id="Path_3194" data-name="Path 3194" d="M5080.3,5961.19l-6.734-15.591,5.745-15.4s1.321-9.147-6.616-7.894c-5.569.868-7.916,17.279-9.243,21.839s2.873,9.524,4.716,12.936a40.539,40.539,0,0,0,6.922,8.589l5.209-4.474Z" transform="translate(-4961.126 -5802.792)" fill="#4d87db"/>
      <path id="Path_3195" data-name="Path 3195" d="M12998.2,7028.915c1.784-.595,7.117,12.479,7.658,16.394-1.4,2.1-7.7,6.087-7.7,6.087a50.313,50.313,0,0,1-2.988-10.11C12994.234,7035.917,12997.5,7029.146,12998.2,7028.915Z" transform="translate(-12733.022 -6887.193)" fill="#1d1d56"/>
      <path id="Path_3196" data-name="Path 3196" d="M12159.734,6702.947c-2.755-.838-11.705-5.059-15.279-6.1l-4.064,5.96s.26,9.163.989,16.43c.706,7.261,0,19.135,0,19.135s2.806.646,14.5-.584c1.67-.179,3.783-1.224,3.547-7.7s-.465-11.7-.636-15.4C12158.359,6705.708,12163.342,6704.055,12159.734,6702.947Z" transform="translate(-11895.641 -6561.841)" fill="#233377"/>
      <path id="Path_3197" data-name="Path 3197" d="M11317.693,6795.182c-1.159-7.821-2.563-15.682-2.563-15.682s11.379-5.43,12.815-5.43,3.7,2.04,5.856,3.334c0,0,.983,7.2,1.519,13.81.557,6.9,1.516,22.354,1.516,22.354s-16.117,3.031-16.549-.235c0,0-.666-1.47.621-9.867C11321.076,6802.438,11317.734,6796.215,11317.693,6795.182Z" transform="translate(-11087.018 -6637.505)" fill="#1d1d56"/>
      <path id="Path_3198" data-name="Path 3198" d="M11929.352,6366.14c-.1,2.794,2.547,9.46,1.822,10.623-2.569,4.12-11.008,2.458-11.952-.922-.3-1.088.029-.082,1.266-8.1C11920.655,6366.676,11929.352,6366.14,11929.352,6366.14Z" transform="translate(-11678.83 -6237.798)" fill="#eac4b2"/>
      <path id="Path_3199" data-name="Path 3199" d="M11894.267,6327.531c-.3-1.1.053-1.923.2-8.23.021-1.086,10.422-2.2,10.422-2.2a30.155,30.155,0,0,0,.165,3.441c-.76,1.548-2.885,5.342-3.668,5.7-.982.441-.24,4.529-.12,4.92C11897.934,6331.554,11894.646,6329.021,11894.267,6327.531Z" transform="translate(-11654.364 -6189.747)" fill="#d19d90"/>
      <path id="Path_3200" data-name="Path 3200" d="M10980.355,6713.852c-2.107.468-3.849,2.086-5.247,9.321-1.315,6.811-1.64,10.383-1.64,10.383l10.5,5.192s.114-3.617.114-7.352S10980.355,6713.852,10980.355,6713.852Zm11.262-6.781-5.879,4.974,8.387,2.788-.694,1.866,6.179,3.24s-3.844-5.692-5.484-7.787A17.824,17.824,0,0,1,10991.617,6707.07Z" transform="translate(-10752.244 -6571.856)" fill="#233377"/>
      <path id="Path_3201" data-name="Path 3201" d="M12289.686,6668.79l7.275,4.368-7.994,4.327.839,1.807-4.565,3.594s2.051-5.854,3.518-8.07S12289.686,6668.79,12289.686,6668.79Z" transform="translate(-12037.57 -6534.348)" fill="#1d1d56"/>
      <path id="Path_3202" data-name="Path 3202" d="M11274.636,6790.9a16.081,16.081,0,1,0,16.082-16.085A16.109,16.109,0,0,0,11274.636,6790.9Zm-3.677,0a19.758,19.758,0,1,1,19.759,19.758A19.771,19.771,0,0,1,11270.959,6790.9Z" transform="translate(-11043.737 -6634.624)"/>
      <path id="Path_3203" data-name="Path 3203" d="M11111.428,7081.251c.248-.493.2-1.225-.367-1.322-.145-.024.459-.945-.41-1.2-.3-.094-.062-.256-.05-.456.021-.676-.341-.977-1.657-.361s-2.592,1.647-3.154,1.359,1.926-1.952,2.4-2.387-1.38-.312-2.563.117a10.672,10.672,0,0,0-3.385,2.849,25.808,25.808,0,0,1-3.467,2.735l3.643,2.793c1.277-.32,5.141-.247,6.182-.392s1.631-1.269,2.976-2.693C11111.708,7082,11112.328,7081.438,11111.428,7081.251Zm29.861-1.979c-1.013-1.227-2.033-2.558-3.191-3.061s-2.992-.76-2.551-.289,2.828,2.281,2.242,2.537-1.795-.861-3.069-1.56-1.646-.426-1.669.253c-.006.2.229.376-.086.447-.881.209-.338,1.16-.482,1.177-.574.062-.668.789-.453,1.3-.91.123-.33.732-.2,1.024,1.236,1.509,1.754,2.663,2.8,2.881,1.021.218,4.88.395,6.128.792l3.826-2.552A25.413,25.413,0,0,1,11141.289,7079.272Z" transform="translate(-10875.019 -6933.027)" fill="#ddac9e"/>
      <path id="Path_3204" data-name="Path 3204" d="M11710.45,5722.143c-.368-4.15-1.524-7.573-8.062-7.082-8.145.609-7.111,5.1-6.84,10.169s4.082,10.29,8.25,10.054c3.16-.176,5.609-3.47,6.472-7.264a3.234,3.234,0,0,0,1.4-2.849c-.006-1.654-.029-2.994-1.225-3.029Z" transform="translate(-11459.579 -5599.799)" fill="#eac4b2"/>
      <path id="Path_3205" data-name="Path 3205" d="M11618.436,5763.264c-2.449-10.037-.871-11.706-1.154-11.655-4.68.847-5.572,2.764-5.348,6.484l.232,1.1c-1.277.162-.645,1.569.044,3.131s1.23,2.484,1.933,2.6c1.4,3.535,3.771,6.329,6.854,6.151l.4-.053s-1.431-1.777-2.96-7.761Z" transform="translate(-11377.344 -5635.655)" fill="#d6a092"/>
      <path id="Path_3206" data-name="Path 3206" d="M11569.311,5578.292l.109-.413s.459-2.375.126-2.334a4.4,4.4,0,0,0-2.7,1.384l-.341-.409s-.7.763-1.286,1.342c-.6.574-1.057,1.031-1.057,1.031s.212.614.212-.289a3.71,3.71,0,0,0-1.437,4.333c-.023.462.178,1.354.217,1.907.133,2.287,1.014,2.133,1.014,2.133l.526.228-.368-2.214s-.139-1.271,2-2.854c1.574-1.157,5.4-1.177,5.4-1.177Z" transform="translate(-11329.585 -5463.142)"/>
      <path id="Path_3207" data-name="Path 3207" d="M11701.189,5549.77c-.592-1.371-1.008-2.192-3.461-2.425-.672-.989-3.852-1.343-3.615-1.254.635.241.718.385.718,1.048a3.607,3.607,0,0,0-2.864-1.027s1.2.583,1.363,1.4l.367.129c-.32-1.31-3.476-2.063-3.426-1.6.059.392,2.178.488,1.973,1.524,0-.995-2.552-2.037-4.241-1.159.735,1.03.864.818-1.543,3.231-1.4.218-.942,3.467,1.69,3.447.817-.006,4.523-.833,6.561-1.007a7.587,7.587,0,0,1,3.608,1.913,9.919,9.919,0,0,1,1.065,3.053l1.678-.58.879.33a15.218,15.218,0,0,0-.753-7.02Z" transform="translate(-11450.104 -5434.096)" fill="#232121"/>
      <path id="Path_3208" data-name="Path 3208" d="M8901.469,4806.408c.441-2.437,3.085-6.493,9.248-7.508v2.64s-5.5,1.419-6.385,5.477A1.755,1.755,0,0,1,8901.469,4806.408Zm70.153,0c-.435-2.437-3.087-6.493-9.251-7.508v2.64s5.51,1.419,6.388,5.477a1.755,1.755,0,0,0,2.864-.608Z" transform="translate(-8722.016 -4702.154)" fill="#2b2323"/>
      <path id="Path_3209" data-name="Path 3209" d="M9356.161,4252.724c-1.26-7.721-3.812-14.464-11.815-14.464h-30.4c-8.927,0-10.935,6.743-12.3,14.46,5.945-1.009,15.936-1.668,27.255-1.668S9350.217,4251.711,9356.161,4252.724Z" transform="translate(-9114.119 -4152.816)"/>
      <path id="Path_3210" data-name="Path 3210" d="M9552.721,4284.559c-1.146-7.079-3.446-11.409-9.928-11.409h-26.012c-7.215,0-9.145,4.327-10.322,11.4a244.051,244.051,0,0,1,46.262.006Z" transform="translate(-9314.81 -4187.003)" fill="#fcb910"/>
      <path id="Path_3211" data-name="Path 3211" d="M10026.674,4379.818h-1.975v-1.269h5.911v1.269h-1.966v4.459h-1.971Z" transform="translate(-9822.602 -4290.278)"/>
      <path id="Path_3212" data-name="Path 3212" d="M10362.1,4381.9l-.126-.4c-.188-.547-.368-1.245-.551-1.816h-.041c-.167.583-.345,1.269-.53,1.816l-.127.4Zm.35,1.171h-2.08l-.368,1.216h-2.01l2.269-5.728h2.376l2.265,5.728h-2.082l-.368-1.216Zm5.457-1.727-1.9-2.785h2.2l.507.936c.155.262.323.578.53.948h.041c.158-.371.32-.686.459-.948l.43-.936h2.109l-1.906,2.853,2.021,2.875h-2.2l-.6-1.023c-.183-.3-.345-.6-.524-.951h-.044c-.168.353-.324.651-.482.951l-.554,1.023h-2.1Z" transform="translate(-10149.173 -4290.288)"/>
      <path id="Path_3213" data-name="Path 3213" d="M11173.2,4384.326h1.978V4378.6h-1.978Z" transform="translate(-10947.947 -4290.327)"/>
      <path id="Path_3214" data-name="Path 3214" d="M5574.287,6827.21l8.006-1.343c3.988-.665,7.62,1.487,7.835,4.893a3.541,3.541,0,0,0,1.578,2.087l4.406.962a2.48,2.48,0,0,1,1.859,2.949c-.273,1.342-1.895,3.265-3.2,2.973l-6.313-1.372c-1.454,1.664-3.564,1.608-6.166,1.436l-8.006-.553a4.952,4.952,0,0,1-4.726-4.839v-1.893A5.589,5.589,0,0,1,5574.287,6827.21Z" transform="translate(-5457.278 -6688.141)"/>
      <path id="Path_3215" data-name="Path 3215" d="M13395.459,9753.229c0,9.93-6.213,13.356-13.877,13.356h-4.053c-7.656,0-13.869-3.426-13.869-13.356v-21.858c0-9.933,6.213-17.982,13.869-17.982h4.053c7.664,0,13.877,8.05,13.877,17.982Z" transform="translate(-13094.249 -9517.567)" fill="#2b2b2b"/>
      <path id="Path_3216" data-name="Path 3216" d="M6311.3,9753.3c0,9.934-6.213,13.359-13.877,13.359h-4.047c-7.67,0-13.875-3.426-13.875-13.359v-21.854c0-9.934,6.205-17.983,13.875-17.983h4.047c7.664,0,13.877,8.05,13.877,17.983Z" transform="translate(-6152.906 -9517.637)"/>
      <path id="Path_3217" data-name="Path 3217" d="M7223.82,5383.252c4.138-10.445,10.428-31.487,14.957-33.25,11.521-4.512,44.553-6.9,52.671-7.272h3.181c8.1.368,40.576,2.761,52.1,7.272,4.527,1.763,10.831,22.772,14.952,33.227l-.642-.071c-4.036-.571-8.779-1.012-14.033-1.341-1.354-2.867-2.72-5.092-3.517-5.092a.5.5,0,0,0-.071.006,2.363,2.363,0,0,0-1.133-.6c-1.042-.318-2.97-1.118-5.159-2.048l.456-.247-7.276-4.368a13.188,13.188,0,0,1,.095,1.793c-.021-.009-.042-.015-.062-.023-.472-2.1-1.328-4.877-1.566-6.812-.015-.185-.029-.376-.044-.562.059-.2.109-.409.156-.618a3.236,3.236,0,0,0,1.4-2.849c-.006-1.251-.021-2.323-.545-2.788l.285.109a15.223,15.223,0,0,0-.753-7.02c-.592-1.372-1.006-2.193-3.461-2.425-.606-.895-3.255-1.269-3.591-1.269-.039,0-.047.007-.024.015.636.241.718.386.718,1.048a3.682,3.682,0,0,0-2.589-1.062.7.7,0,0,0-.274.036,4.046,4.046,0,0,1,.6.379,4.987,4.987,0,0,0-1.987-.589c-.2,0-.317.042-.309.136a.229.229,0,0,0,.118.142,4.2,4.2,0,0,0-.927-.106,3.143,3.143,0,0,0-1.459.33,4.216,4.216,0,0,1,.423.636,4.365,4.365,0,0,0-.9.674c.171-.333.342-.662.516-.982h0l-4.733-.327c-5.308-.37-8.512-.6-12.418-.794-3.275-.16-7.043-.289-12.959-.448h0c-6.663.306-36.152,2.267-45.6,5.972-3.709,1.445-8.865,19.338-12.265,27.905h0c.218-.021.448-.038.689-.058,11.917-.963,49.933-2.323,71.021-2.337h.345c1.675,0,3.237.009,4.67.026a6.8,6.8,0,0,0-2.4,3.456c-3.246.039-6.5.094-9.724.162-4.3-.088-8.647-.132-12.977-.132-21.692,0-42.94,1.039-55.949,2.175Zm81.192-5.745c2.559-5.295,4.566-12.786,6.9-19.673a1.472,1.472,0,0,0,.557.945c-.495.482.026,1.645.583,2.907.68,1.557,1.23,2.485,1.934,2.6a12.285,12.285,0,0,0,3.129,4.774c-.062,1.109-.115,1.833-.136,2.369-.276-.715-.421-1.2-.421-1.2l-4.152,3.514c-3.435,1.517-7.108,3.268-7.108,3.268h0a4.455,4.455,0,0,0-1.287.491Z" transform="translate(-7078.188 -5235.021)" fill="#fff"/>
      <path id="Path_3218" data-name="Path 3218" d="M13132.232,7034.082c-.713-.044-1.437-.088-2.167-.13-.139-.144-.265-.285-.376-.42-.527-.642-1.061-1.311-1.611-1.875.586-1.349,1.016-2.117.566-2.661a.554.554,0,0,1,.07-.006C13129.512,7028.989,13130.878,7031.215,13132.232,7034.082Z" transform="translate(-12863.417 -6887.285)" fill="#475b81"/>
      <path id="Path_3219" data-name="Path 3219" d="M12519.844,6764.729a5.266,5.266,0,0,0-1.582-1.187,7.114,7.114,0,0,0-1.751-.5,19.818,19.818,0,0,0-3.581-2.99l1.186-.642c2.189.931,4.117,1.73,5.16,2.048a2.364,2.364,0,0,1,1.133.6c.45.544.021,1.313-.565,2.661Zm-12.457-7.9c-.018-.085-.038-.174-.059-.259.021.008.041.014.063.023C12507.391,6756.669,12507.391,6756.749,12507.387,6756.828Z" transform="translate(-12255.181 -6620.357)" fill="#4c6b9a"/>
      <path id="Path_3220" data-name="Path 3220" d="M11315.887,6887.737c-.468-1.845-.807-3.09-.807-3.09h0s3.674-1.751,7.108-3.267l-1.729,1.46,1.386.463a20.045,20.045,0,0,0-3.123,3.025,7.136,7.136,0,0,0-1.152.3A5.326,5.326,0,0,0,11315.887,6887.737Z" transform="translate(-11086.969 -6742.651)" fill="#475b81"/>
      <path id="Path_3221" data-name="Path 3221" d="M12257.273,6426.5a19.794,19.794,0,0,0-5.164-.691l.018-.009c.784-.362,2.908-4.156,3.668-5.7-.006-.262-.059-.807-.105-1.393.238,1.934,1.094,4.716,1.565,6.812.021.085.042.174.059.259C12257.308,6426,12257.293,6426.243,12257.273,6426.5Z" transform="translate(-12005.107 -6289.298)" fill="#eed4c6"/>
      <path id="Path_3222" data-name="Path 3222" d="M11895.049,6399.661c-.211-.453-.389-.877-.529-1.245.02-.536.073-1.26.135-2.37a5.308,5.308,0,0,0,3.209,1.381,5.012,5.012,0,0,0,.813.067c.09,0,.179,0,.27-.009,2.988-.165,5.34-3.12,6.316-6.646.016.186.029.376.045.562.047.585.1,1.13.105,1.393-.76,1.548-2.884,5.342-3.668,5.7l-.018.008h-.02A19.819,19.819,0,0,0,11895.049,6399.661Z" transform="translate(-11654.727 -6262.002)" fill="#dab8ad"/>
      <path id="Path_3223" data-name="Path 3223" d="M11125.088,6979.393a6.8,6.8,0,0,1,2.4-3.456h.1a.62.62,0,0,0,.041-.085,4.487,4.487,0,0,1,1.287-.491h0s.338,1.245.807,3.091c-.307.276-.613.582-.916.9-1.239.013-2.479.024-3.721.042Zm32.657.22q-3.019-.1-6.157-.158l1.454-1.145-.839-1.807,2.525-1.369a16.03,16.03,0,0,1,4.067,2.8l-.041.008c-.88.209-.339,1.16-.483,1.177A.6.6,0,0,0,11157.745,6979.613Zm-8.341-.2-1.057-.018c-.215-1.9-.418-3.532-.559-4.636h.043a7.5,7.5,0,0,0,3.541-.8c.156.037.313.076.468.114A38.82,38.82,0,0,0,11149.4,6979.414Z" transform="translate(-10900.807 -6833.365)" fill="#4c6b9a"/>
      <path id="Path_3224" data-name="Path 3224" d="M12025.432,6983.932c-.527-.005-1.057-.014-1.589-.02-1.095-1.6-2.6-3.753-3.624-5.13.228-.068.453-.133.684-.192a7.459,7.459,0,0,0,3.191.769,6.2,6.2,0,0,0,.7-.038.1.1,0,0,1-.006-.023h.088C12025.015,6980.4,12025.217,6982.037,12025.432,6983.932Z" transform="translate(-11777.892 -6837.902)" fill="#475b81"/>
      <path id="Path_3225" data-name="Path 3225" d="M12236.209,6955.016h-.131a11.814,11.814,0,0,1-.219-1.2c.1,0,.207,0,.307,0a16.292,16.292,0,0,1,3.584.406A7.5,7.5,0,0,1,12236.209,6955.016Z" transform="translate(-11989.185 -6813.621)" fill="#eed4c6"/>
      <path id="Path_3226" data-name="Path 3226" d="M12057.331,6955.2a7.465,7.465,0,0,1-3.19-.768,16.216,16.216,0,0,1,3.664-.5,11.963,11.963,0,0,0,.218,1.2c0,.009,0,.015.006.023a6.208,6.208,0,0,1-.7.038Z" transform="translate(-11811.13 -6813.739)" fill="#dab8ad"/>
      <path id="Path_3227" data-name="Path 3227" d="M11688.313,7054c-2.352-.02-4.739-.031-7.141-.031-.067,0-.136,0-.2,0a.662.662,0,0,0-.383-.25c-.306-.094-.062-.256-.05-.457a1.11,1.11,0,0,0-.021-.282,16.127,16.127,0,0,1,3.772-2.831l2.547.845-.7,1.866Z" transform="translate(-11444.957 -6908.02)" fill="#475b81"/>
      <path id="Path_3228" data-name="Path 3228" d="M11594.459,6717.855q-1.289-.018-2.594-.03l-2.172-1.139.7-1.865-2.547-.845a15.857,15.857,0,0,1,2.994-1.251C11591.863,6714.1,11593.363,6716.26,11594.459,6717.855Zm-11.073-5.359-1.386-.462,1.729-1.461,4.151-3.514s.146.485.422,1.2c.141.368.317.792.529,1.245A19.755,19.755,0,0,0,11583.386,6712.5Z" transform="translate(-11348.507 -6571.845)" fill="#4c6b9a"/>
      <path id="Path_3229" data-name="Path 3229" d="M12333.334,6680.438q-1.084-.022-2.184-.041a38.818,38.818,0,0,1,2.438-5.339,15.969,15.969,0,0,1,2.887,1.06l-2.525,1.369.84,1.807Zm6.967-6.39a19.661,19.661,0,0,0-5.582-2.5c.02-.253.034-.494.04-.727,0-.08,0-.159,0-.235a13.384,13.384,0,0,0-.095-1.793l7.276,4.369-.456.247Z" transform="translate(-12082.555 -6534.348)" fill="#475b81"/>
      <path id="Path_3230" data-name="Path 3230" d="M11444.689,6780.6a15.754,15.754,0,0,1,2.439-2.11c.2-.191-.023-.273-.444-.273a6,6,0,0,0-.966.094,20.045,20.045,0,0,1,3.123-3.025,19.707,19.707,0,0,1,12.1-4.145h.02a19.723,19.723,0,0,1,14.328,6.184,3.471,3.471,0,0,0-.5-.044c-.312,0-.462.074-.3.25.441.465,2.829,2.281,2.243,2.537a.53.53,0,0,1-.19.036c-.634,0-1.729-.966-2.879-1.6a2.631,2.631,0,0,0-1.143-.409c-.373,0-.512.26-.527.663-.006.191.21.359-.044.439a16.028,16.028,0,0,0-6.955-3.856l-.468-.114a16.292,16.292,0,0,0-3.584-.406c-.1,0-.2,0-.307,0a16.154,16.154,0,0,0-3.664.5c-.23.059-.456.124-.684.191a15.9,15.9,0,0,0-2.992,1.251,16.082,16.082,0,0,0-3.773,2.832.469.469,0,0,0-.521-.412,2.839,2.839,0,0,0-1.115.333c-.7.329-1.393.776-1.969,1.077-.41,0-.819,0-1.23.005Z" transform="translate(-11213.965 -6634.634)" fill="#2f4642"/>
      <path id="Path_3231" data-name="Path 3231" d="M11309.7,7079.03c.3-.318.609-.624.916-.9a5.328,5.328,0,0,1,1.684-1.113,7.148,7.148,0,0,1,1.153-.3,5.941,5.941,0,0,1,.966-.094c.421,0,.647.082.444.273a15.761,15.761,0,0,0-2.439,2.11Zm3.953-.026c.578-.3,1.27-.748,1.969-1.077a2.854,2.854,0,0,1,1.115-.333.469.469,0,0,1,.522.412,1.318,1.318,0,0,1,.021.282c-.012.2-.256.362.049.457a.661.661,0,0,1,.383.25Q11315.689,7079,11313.652,7079Zm34.691.706c-3.09-.174-6.34-.312-9.709-.418a.6.6,0,0,1,.526-.5c.144-.018-.4-.968.483-1.178l.04-.008c.254-.08.038-.248.044-.439.016-.4.154-.663.527-.663a2.62,2.62,0,0,1,1.143.409c1.15.63,2.245,1.6,2.879,1.6a.51.51,0,0,0,.19-.036c.586-.256-1.8-2.071-2.242-2.537-.165-.176-.015-.25.3-.25a3.4,3.4,0,0,1,.5.044,7.177,7.177,0,0,1,1.752.495,5.291,5.291,0,0,1,1.58,1.187c.551.565,1.084,1.233,1.611,1.875.111.135.237.276.376.42Z" transform="translate(-11081.696 -6933.044)" fill="#e3c3b7"/>
      <path id="Path_3232" data-name="Path 3232" d="M11894.131,5869.616a4.959,4.959,0,0,1-.812-.068c.079.006.159.006.238.006s.184,0,.277-.009l.4-.053s-1.43-1.777-2.961-7.761a41.6,41.6,0,0,1-1.392-8.856c1.486-.26,3.561-.66,4.906-.774a7.6,7.6,0,0,1,3.609,1.912,9.908,9.908,0,0,1,1.064,3.053l1.678-.58.594.221c.525.464.539,1.537.545,2.788a3.232,3.232,0,0,1-1.4,2.849c-.047.209-.1.415-.157.619-.977,3.526-3.328,6.481-6.316,6.646C11894.311,5869.613,11894.222,5869.616,11894.131,5869.616Z" transform="translate(-11650.182 -5734.123)" fill="#eed4c6"/>
      <path id="Path_3233" data-name="Path 3233" d="M11620.686,5907.2c-.08,0-.16,0-.238-.006a5.308,5.308,0,0,1-3.209-1.381,12.308,12.308,0,0,1-3.128-4.774c-.7-.12-1.254-1.048-1.935-2.6-.557-1.262-1.076-2.425-.582-2.907a.542.542,0,0,0,.262.079.171.171,0,0,0,.035,0l.526.227-.368-2.213s-.137-1.271,2-2.855a2.923,2.923,0,0,1,.293-.188,2.615,2.615,0,0,0,.99.18h.021a13.932,13.932,0,0,0,1.654-.233,41.582,41.582,0,0,0,1.391,8.856c1.531,5.983,2.961,7.762,2.961,7.762l-.4.053C11620.868,5907.2,11620.776,5907.2,11620.686,5907.2Z" transform="translate(-11377.311 -5771.767)" fill="#debaae"/>
      <path id="Path_3234" data-name="Path 3234" d="M11976.6,5583.236a1.249,1.249,0,0,0-.706-.927C11976.326,5582.507,11976.688,5582.78,11976.6,5583.236Z" transform="translate(-11734.457 -5469.771)" fill="#fff"/>
      <path id="Path_3235" data-name="Path 3235" d="M11595.028,5613.43l-.526-.227a.183.183,0,0,1-.035,0,.542.542,0,0,1-.262-.079,1.469,1.469,0,0,1-.557-.945c.633-1.863,1.287-3.679,1.984-5.4a2.3,2.3,0,0,0,1.321,1.389,2.907,2.907,0,0,0-.292.188c-2.139,1.583-2,2.855-2,2.855Zm1.531-8.81c.256-.559.515-1.106.782-1.636a4.41,4.41,0,0,1,.9-.674C11598.432,5602.751,11598.084,5603.1,11596.56,5604.62Z" transform="translate(-11359.921 -5489.368)" fill="#2f4642"/>
      <path id="Path_3236" data-name="Path 3236" d="M11705.609,5557.076a9.9,9.9,0,0,0-1.064-3.052,7.583,7.583,0,0,0-3.609-1.913c-1.346.115-3.42.515-4.906.774a14.006,14.006,0,0,1-1.654.232h-.021a2.643,2.643,0,0,1-.991-.18,2.308,2.308,0,0,1-1.322-1.39c.3-.738.609-1.462.928-2.163,1.523-1.521,1.871-1.869,1.683-2.311a4.241,4.241,0,0,0-.423-.636,3.154,3.154,0,0,1,1.459-.329,4.228,4.228,0,0,1,.928.105.224.224,0,0,1-.117-.141c-.01-.094.107-.136.308-.136a4.989,4.989,0,0,1,1.987.589,3.978,3.978,0,0,0-.6-.38.7.7,0,0,1,.274-.036,3.678,3.678,0,0,1,2.589,1.063c0-.663-.082-.807-.718-1.048-.023-.008-.014-.015.023-.015.336,0,2.984.375,3.592,1.269,2.455.232,2.869,1.054,3.46,2.425a15.225,15.225,0,0,1,.754,7.02l-.286-.109-.594-.221-1.677.58Zm-5.686-9.4Zm-2.16-1a1.248,1.248,0,0,1,.705.927C11698.561,5547.143,11698.2,5546.869,11697.764,5546.672Z" transform="translate(-11456.33 -5434.133)" fill="#4c5e5a"/>
      <path id="Path_3237" data-name="Path 3237" d="M5991.5,5078.341c-25.863-.542-53.321.68-68.926,2.042,4.138-10.445,10.428-31.487,14.957-33.25,11.521-4.512,44.553-6.9,52.671-7.272h3.181c8.1.368,40.576,2.761,52.1,7.272,4.529,1.763,10.84,22.8,14.963,33.25C6044.669,5078.052,6017.388,5077.8,5991.5,5078.341Zm85.246,8.3c-.983-.774-1.024-2.169-6.572-3.762-4.224-10.628-13.095-37.294-18.923-39.932-16.706-7.561-48.664-8.906-57.694-9.321h-3.547c-9.036.415-40.29.884-58.244,9.321-5.8,2.723-14.692,29.3-18.928,39.932-5.551,1.593-5.589,2.988-6.566,3.762-3.683,2.908-7.361,6.349-9.979,29.412-1.383,12.153.589,25.507.589,25.507s6.46,15.9,14.6,16.126h160.052c1.507,0,4.118-2.537,4.118-2.537s8.346-25.412,8.346-39.1c0-20.974-3.57-26.5-7.248-29.412Z" transform="translate(-5776.943 -4932.151)" fill="#f79406"/>
      <path id="Path_3238" data-name="Path 3238" d="M14258.816,6782.754l-8.027-1.339c-3.979-.662-7.611,1.489-7.822,4.9a3.534,3.534,0,0,1-1.574,2.081l-4.41.962a2.508,2.508,0,0,0-1.869,2.952c.277,1.345,2.42,3.231,3.715,2.95l6.316-1.377c1.447,1.659,3.053,1.63,5.645,1.463l8.027-.553a4.952,4.952,0,0,0,4.717-4.845v-1.89A5.593,5.593,0,0,0,14258.816,6782.754Z" transform="translate(-13948.084 -6644.585)" fill="#2b2b2b"/>
      <path id="Path_3239" data-name="Path 3239" d="M10738.523,5157.513s11.387-5.822,12.526-11.853c1.737-9.221.062-20.412-.288-29.2-.869-21.683-4.168-26.857-7.854-29.765-.971-.774-1.012-2.17-6.569-3.762-4.231-10.628-13.073-37.333-18.919-39.931-18.678-8.294-48.661-8.906-57.7-9.322h-1.957v6.167h1.789c8.111.368,40.573,2.758,52.105,7.272,4.529,1.767,10.808,22.867,14.951,33.315-15.591-1.751-43.01-2.572-68.846-2.042v79.348h74.854c1.5,0,5.91-.226,5.91-.226Z" transform="translate(-10442.899 -4932.202)" fill="#fcb910"/>
      <path id="Path_3240" data-name="Path 3240" d="M5871.4,9911.752c0,5.109-10.069,9.248-15.279,9.248H5689.686c-5.216,0-16.044-4.139-16.044-9.248v-7.515c0-5.112-1.054-9.257,4.165-9.257h189.42c5.222,0,4.168,4.145,4.168,9.257Z" transform="translate(-5559.176 -9695.498)" fill="#f79406"/>
      <path id="Path_3241" data-name="Path 3241" d="M5980.7,10040.9H5796.391c-5.077,0-4.055.617-4.055,5.729v.57c4.005,3.613,14.016,2.826,18.113,2.826h156.188c4.094,0,14.108.787,18.11-2.826v-.57c0-5.111,1.021-5.729-4.046-5.729Z" transform="translate(-5675.48 -9838.477)" fill="#fcb910"/>
      <path id="Path_3242" data-name="Path 3242" d="M12897.891,8658.968h-.221l-25.264-.353c-6.655-.092-6.437-5.033-4.312-10.829,2-5.471,4.646-9.786,10.675-9.786h22.822a12.45,12.45,0,0,1,3.7.551.232.232,0,0,0,.045.014,3.776,3.776,0,0,0-1.321,1.739l-.257-.079a12.5,12.5,0,0,0-3.363-.44h-20.639c-5.454,0-7.842,3.487-9.65,7.914-1.926,4.691-2.123,8.688,3.9,8.765l22.852.285h.209a14.117,14.117,0,0,0,3.273-.383c.2-.046.388-.1.566-.149a3.039,3.039,0,0,0,1.272,2.087c-.206.067-.421.133-.647.191A14.365,14.365,0,0,1,12897.891,8658.968Z" transform="translate(-12607.376 -8463.858)" fill="#654a06"/>
      <path id="Path_3243" data-name="Path 3243" d="M13009.111,8734.7c-.553,3.935-.06,7.258-4.859,8.373a14.169,14.169,0,0,1-3.482.383l-22.852-.285c-6.025-.077-5.828-4.074-3.9-8.766,1.81-4.427,4.2-7.914,9.65-7.914h20.639a12.537,12.537,0,0,1,3.363.441C13011.506,8728.017,13009.611,8731.084,13009.111,8734.7Z" transform="translate(-12711.284 -8550.563)" fill="#d1d1d1"/>
      <path id="Path_3244" data-name="Path 3244" d="M14625.646,8658.871a4.06,4.06,0,0,1-2.287-.577c4.609-1.537,4.133-5.5,4.722-10.157.557-4.447,2.634-8.228-1.565-9.581a3.682,3.682,0,0,1,2.113-.565h2.811c2.644,0,4.205.764,4.205,2.965l1.158,14.7c0,3.313-3.518,3.059-7.146,3.138l-3.85.083Z" transform="translate(-14328.553 -8463.849)" fill="#654a06"/>
      <path id="Path_3245" data-name="Path 3245" d="M14561.5,8685.758a3.041,3.041,0,0,1-1.272-2.087c4.194-1.239,3.763-4.453,4.293-8.224.487-3.531,2.309-6.537-1.187-7.687a3.776,3.776,0,0,1,1.322-1.74c4.2,1.354,2.122,5.134,1.565,9.58C14565.633,8680.256,14566.11,8684.221,14561.5,8685.758Z" transform="translate(-14266.694 -8491.313)" fill="#281e02"/>
      <path id="Path_3246" data-name="Path 3246" d="M14555.752,8768.211a8.81,8.81,0,0,1,.186-3.4l2.393-10.738a10.647,10.647,0,0,1,.525-1.777c3.5,1.151,1.676,4.156,1.188,7.688-.529,3.771-.1,6.983-4.292,8.224Z" transform="translate(-14262.217 -8575.853)" fill="#545454"/>
      <path id="Path_3247" data-name="Path 3247" d="M14659.383,8728.015c0,2.759-2.225,2.87-5.689,2.94l-3.7.07c-3.523.065-3.661-2.03-2.943-4.841l1.857-9.13c.471-1.861,1.236-3.4,3.8-3.4h2.691c2.528,0,3.317,1.386,3.317,3.219Z" transform="translate(-14351.423 -8537.991)" fill="#d1d1d1"/>
      <path id="Path_3248" data-name="Path 3248" d="M6299.89,8648.133c.609,4.869.056,8.978,5.366,10.352a14.219,14.219,0,0,0,3.853.478l25.263-.354c6.669-.095,6.452-5.036,4.32-10.831-2.007-5.472-2.664-9.787-8.7-9.787h-24.8a12.539,12.539,0,0,0-3.706.551C6297.235,8639.884,6299.322,8643.674,6299.89,8648.133Z" transform="translate(-6171.891 -8463.849)" fill="#2b2b2b"/>
      <path id="Path_3249" data-name="Path 3249" d="M6388.932,8734.7c.55,3.935.056,7.258,4.85,8.373a14.27,14.27,0,0,0,3.491.383l22.846-.285c6.027-.077,5.827-4.07,3.905-8.766-1.81-4.427-2.257-7.914-7.714-7.914h-22.581a12.447,12.447,0,0,0-3.355.441c-3.85,1.086-1.942,4.153-1.442,7.768Z" transform="translate(-6259.235 -8550.563)" fill="#b2b5b7"/>
      <path id="Path_3250" data-name="Path 3250" d="M5916.26,8655.656c0,3.309,3.509,3.053,7.142,3.135l3.861.079c3.679.086,4.268-2.682,3.52-6.06l-2.387-10.737c-.486-2.233-1.294-4.083-3.961-4.083h-2.8c-2.646,0-4.214.763-4.214,2.965Z" transform="translate(-5796.988 -8463.849)" fill="#2b2b2b"/>
      <path id="Path_3251" data-name="Path 3251" d="M5930.71,8728.006c0,2.758,2.217,2.875,5.687,2.939l3.7.071c3.538.065,3.665-2.03,2.949-4.839l-1.854-9.133c-.479-1.86-1.248-3.4-3.806-3.4H5934.7c-2.531,0-3.323,1.387-3.323,3.221Z" transform="translate(-5811.147 -8537.981)" fill="#b2b5b7"/>
      <path id="Path_3252" data-name="Path 3252" d="M7195.055,7607.784c-6.6-2.278-10.5-15.414-13.139-21.872-1.2-2.946-15.24-15.528-19.293-18.784l-2.9.183c3.523,2.345,17.616,16.765,18.97,20.07,2.643,6.454,4.477,19.958,9.174,22.893,15.267,1.174,42.557.588,42.557.588l.149-2.054C7223.619,7609.076,7206.875,7608.688,7195.055,7607.784Z" transform="translate(-7015.381 -7414.576)" fill="#fcb910"/>
      <path id="Path_3253" data-name="Path 3253" d="M10643.1,7557.015l.149,2.054s23.259.586,38.519-.588c4.7-2.935,6.543-16.439,9.184-22.893,1.35-3.306,15.146-18.785,18.669-21.133l-2.9-.186c-4.047,3.256-17.8,16.9-19,19.85-2.644,6.457-6.531,19.594-13.136,21.872C10662.764,7556.895,10650.061,7557.283,10643.1,7557.015Z" transform="translate(-10428.535 -7362.782)" fill="#f79406"/>
      <path id="Path_3254" data-name="Path 3254" d="M8392.072,8509.434c-1.966-5.713-1.339-8.795,3.5-8.795h79.193c5.766.238,4.858,3.835,3.287,8.68l-1.58,4.877c-1.678,5.216-5.507,9.628-10.8,9.628l-62.688-.023c-5.266,0-8.678-4.475-9.87-9.754Z" transform="translate(-8221.867 -8329.267)"/>
      <path id="Path_3255" data-name="Path 3255" d="M8683.594,8771.218a1.294,1.294,0,0,1-1.2,1.36H8605.17a1.375,1.375,0,0,1,0-2.729h77.224A1.293,1.293,0,0,1,8683.594,8771.218Zm-1.887,5.115a1.272,1.272,0,0,1-1.151,1.363H8607a1.388,1.388,0,0,1,0-2.731h73.558A1.267,1.267,0,0,1,8681.707,8776.333Zm-1.407,4.769a1.257,1.257,0,0,1-1.108,1.363h-70.822a1.4,1.4,0,0,1,0-2.729h70.822A1.258,1.258,0,0,1,8680.3,8781.1Z" transform="translate(-8430.514 -8593.05)" fill="#8fa4bc"/>
      <path id="Path_3256" data-name="Path 3256" d="M11000.655,5601.025c-1.433-.018-3-.026-4.671-.026h-.344l11.531-30.239,4.734.327c-.174.32-.346.65-.516.982-.057.056-.109.112-.162.171l-.342-.41s-.7.763-1.286,1.342c-.353.335-.655.632-.845.821v-.079a3.709,3.709,0,0,0-1.436,4.333c-.023.462.176,1.354.217,1.908a5.79,5.79,0,0,0,.16,1.112c-2.338,6.887-4.345,14.378-6.9,19.673-.045.029-.092.056-.139.085Z" transform="translate(-10773.969 -5458.454)" fill-rule="evenodd" fill="url(#linear-gradient-8)"/>
      <path id="Path_3257" data-name="Path 3257" d="M11244.458,7067.9h-.1c.047-.029.094-.056.137-.085A.52.52,0,0,1,11244.458,7067.9Z" transform="translate(-11017.676 -6925.333)" fill-rule="evenodd" fill="url(#linear-gradient-9)"/>
      <path id="Path_3258" data-name="Path 3258" d="M11563.264,5633.337a5.713,5.713,0,0,1-.16-1.113c-.041-.553-.241-1.445-.217-1.907a3.708,3.708,0,0,1,1.436-4.333v.079c.188-.188.492-.485.844-.82.586-.58,1.287-1.343,1.287-1.343l.341.409c.054-.059.106-.115.162-.17-.268.53-.526,1.077-.782,1.636-.089.092-.184.186-.283.286-.715.112-.944,1.021-.645,1.877-.7,1.72-1.351,3.535-1.982,5.4Z" transform="translate(-11329.536 -5510.522)" fill-rule="evenodd" fill="url(#linear-gradient-10)"/>
      <path id="Path_3259" data-name="Path 3259" d="M11685.741,5719.063c-.3-.856-.071-1.766.644-1.877.1-.1.2-.194.283-.286C11686.351,5717.6,11686.044,5718.325,11685.741,5719.063Z" transform="translate(-11450.031 -5601.647)" fill-rule="evenodd" fill="url(#linear-gradient-11)"/>
      <path id="Path_3260" data-name="Path 3260" d="M7438.452,5543.017h0c3.4-8.568,8.556-26.46,12.265-27.906,9.451-3.705,38.94-5.666,45.6-5.972,5.917.159,9.684.289,12.959.448l-57.7,5.377-12.438,27.994c-.241.02-.471.038-.688.058Z" transform="translate(-7288.49 -5398.076)" fill-rule="evenodd" fill="url(#linear-gradient-12)"/>
      <g id="Group_10106" data-name="Group 10106" transform="translate(150.649 111.514)" clip-path="url(#clip-path-2)">
        <rect id="Rectangle_2382" data-name="Rectangle 2382" width="87.769" height="38.321" transform="translate(-2.562 -2.118)" fill="none"/>
      </g>
    </g>
  </g>
</svg>
